<svg xmlns="http://www.w3.org/2000/svg" viewBox="2 2.01 46 46" xmlns:v="https://vecta.io/nano"><path d="M25 2.008a23.02 23.02 0 0 0-23 23 23.02 23.02 0 0 0 23 23 23.02 23.02 0 0 0 23-23 23.02 23.02 0 0 0-23-23zm0 2c11.61 0 21 9.39 21 21 0 5.733-2.296 10.918-6.012 14.705-1.83-1.343-4.06-2.017-5.949-2.689-1.064-.379-2.02-.754-2.719-1.172-.669-.401-1.04-.812-1.236-1.285-.092-1.147-.073-2.07-.066-3.16.121-.121.277-.205.4-.352.292-.345.589-.763.873-1.234.487-.808.841-1.795 1.039-2.797.303-.154.627-.188.873-.502.455-.58.762-1.396.898-2.533a2.85 2.85 0 0 0-.619-2.225c.448-1.465 1.003-3.794.814-6.205-.104-1.326-.437-2.661-1.24-3.771-.766-1.06-2.011-1.822-3.604-2.098C28.442 8.541 26.835 8 24.914 8h-.01-.008c-4.303.079-7.079 1.86-8.268 4.576-1.13 2.583-.887 5.799-.076 9.146-.436.53-.778 1.234-.654 2.266.137 1.137.444 1.953.898 2.533.246.314.57.347.873.502.198 1.001.553 1.987 1.039 2.795.284.471.581.889.873 1.234.124.146.279.233.4.354.006 1.089.025 2.012-.066 3.16-.196.471-.567.883-1.234 1.285-.697.42-1.653.797-2.715 1.178-1.887.676-4.116 1.355-5.951 2.688C6.298 35.929 4 30.742 4 25.008c0-11.61 9.39-21 21-21zm-.078 5.994c1.844.002 3.004.548 3.322 1.105l.244.428.486.066c1.256.175 1.958.662 2.461 1.357s.782 1.666.867 2.756c.17 2.18-.454 4.754-.85 5.945l-.252.756.682.414c-.069-.042.32.189.232.92-.107.89-.334 1.343-.486 1.537s-.217.169-.201.168l-.824.068-.088.822c-.075.706-.473 1.67-.937 2.441a7.75 7.75 0 0 1-.687.975c-.208.245-.429.397-.346.354l-.535.279V31c0 1.324-.054 2.407.086 3.949l.012.133.047.125c.394 1.059 1.215 1.806 2.139 2.359s1.983.953 3.076 1.342c1.801.641 3.678 1.271 5.109 2.203-3.646 3.054-8.343 4.896-13.479 4.896s-9.829-1.841-13.475-4.893c1.439-.926 3.319-1.559 5.117-2.203 1.092-.391 2.149-.793 3.07-1.348s1.74-1.302 2.133-2.357l.047-.125.012-.133c.139-1.541.086-2.624.086-3.949v-.605l-.535-.281c.084.044-.138-.108-.346-.354a7.7 7.7 0 0 1-.687-.973c-.465-.772-.862-1.736-.937-2.441l-.088-.822-.824-.068c.015.001-.049.026-.201-.168s-.379-.647-.486-1.537c-.087-.732.307-.965.232-.92l.635-.385-.186-.721c-.86-3.312-.991-6.325-.105-8.348s2.655-3.303 6.461-3.375z"/></svg>