<svg version="1.2" xmlns="http://www.w3.org/2000/svg" fill="none" viewBox="184.1 161.1 17.9 18.2"><path d="m190.1 179.3q-1.4 0-2.6-0.5-1.2-0.5-2.1-1.4-0.8-0.8-1.3-2.1l1.5-0.7q0.6 1.4 1.8 2.2 1.1 0.8 2.7 0.8 1.2 0 2.1-0.4 0.9-0.5 1.5-1.4 0.5-0.9 0.5-2.2 0-1.2-0.6-2.1-0.5-0.9-1.4-1.4-1-0.4-2.2-0.4-0.3 0-0.7 0-0.3 0-0.6 0.1l-0.3-0.9 4.8-6.1h-8.3v-1.7h10.4v1.7l-4.5 5.7-0.2-0.3q1.6 0 2.8 0.7 1.3 0.7 2 1.9 0.7 1.2 0.7 2.8 0 1.6-0.8 2.9-0.7 1.3-2.1 2-1.4 0.8-3.1 0.8zm11.9-0.3h-1.9v-2.6h1.9z" stroke="#000000" stroke-width="0.1"></path></svg>