<svg version="1.2" xmlns="http://www.w3.org/2000/svg" viewBox="26 170.1 74.8 71.1"><defs><linearGradient id="P" gradientUnits="userSpaceOnUse"></linearGradient><linearGradient id="g1" x2="1" href="#P" gradientTransform="matrix(-80.734,80.734,-76.783,-76.783,135.261,203.091)"><stop stop-color="#324c00"></stop><stop offset=".53" stop-color="#113d4c"></stop><stop offset="1" stop-color="#4c0041"></stop></linearGradient><linearGradient id="g2" x2="1" href="#P" gradientTransform="matrix(-82.875,82.875,-78.819,-78.819,135.348,203.005)"><stop stop-color="#b5732e"></stop><stop offset=".53" stop-color="#5681b5"></stop><stop offset="1" stop-color="#b50082"></stop></linearGradient></defs><style>.a{mix-blend-mode:screen;fill:url(#g1)}.b{mix-blend-mode:color-dodge;fill:url(#g2)}</style><path class="a" d="m63.4 170.1l-37.4 27.1 14.3 44h46.2l14.3-44zm-35.1 31.1l20.1-17.5-19.2 20-0.3-0.6zm32-27.7l22.7 13.6-24.6-12 1-1zm-2.7 2.3l22 10.7-23.7-9.1 0.9-0.9zm-2.5 2.4l21.2 8.1-22.6-6.5 0.7-0.9zm-2.1 2.5l20.2 5.7-21.4-4.1 0.7-0.9zm-1.8 2.5l19 3.7-20-2.1 0.5-0.9zm-1.5 2.5l17.8 1.9-18.5-0.4 0.3-0.8zm-1.2 2.5l16.4 0.3-16.9 1.2 0.2-0.8zm-0.9 2.4l15-1-15.4 2.4 0.2-0.7zm-0.7 2.4l13.6-2.2-13.8 3.5 0.1-0.7zm-0.4 2.3l12-3-12.2 4.2 0.1-0.6zm-0.2 2.2l10.6-3.6-10.7 4.7v-0.5zm0.5 6l6.7-4.5-6.5 5.3-0.1-0.4zm0.5 1.8l5.4-4.4-5.2 5-0.1-0.2zm0.5 1.6l4.5-4.3-4.2 4.8-0.1-0.2zm0.7 1.5l3.4-4-3.2 4.4-0.1-0.1zm0.8 1.3l2.6-3.6-2.4 4-0.1-0.1zm0.9 1.2l1.8-3.2-1.6 3.4h-0.1zm0.9 1l1.3-2.6-1.1 2.8zm0.9 0.9l0.8-2-0.7 2.2zm12.2-11.6l7.4 5.3 0.4 0.3-2.8 8.9v0.2l-9.6 0.1-3.1-8.9v-0.1l7.3-5.5zm-9.2 13.5l0.1-0.2-0.1 0.2zm11.5 5.1l-0.3-0.1zm8.4-9.3l-0.1 0.1zm-20.8 3.6l0.1-0.8-0.1 0.9zm11.7 6.3l-0.1 0.1-0.8-0.5zm9.6-9v0.1l-0.5 0.5zm-5.6-12h0.1l0.1 0.3zm-13.1 1.7v-0.1l0.5-0.1zm-3.5 12.3l0.4-1.4-0.3 1.5zm11.7 7.8l-0.1 0.1-1.4-0.9zm10.9-8.6v0.1l-1 0.8zm-4.8-13h0.1l0.4 0.9zm-14 0.6l0.1-0.1 1.1-0.1zm6.9 21.8l-0.3 0.1-1.7-1.5zm12.1-8.1v0.2l-1.6 1.1zm-3.9-14.1h0.2l0.4 1.7zm-14.7-0.7l0.1-0.2 1.8 0.1zm5.3 23.4l-0.3 0.2-2.2-2.1zm13.5-7.4v0.2l-2.4 1.3zm-2.8-15.2l0.2 0.1 0.4 2.3zm-15.3-2l0.1-0.2 2.5 0.4zm3.5 25l-0.4 0.1-2.5-2.8zm14.8-6.6v0.3l-3.2 1.4zm-1.6-16.2l0.3 0.1 0.3 3.1zm-15.9-3.4l0.1-0.3 3.2 0.7zm1.4 26.6l-0.4 0.1-2.7-3.7zm16.1-5.6l-0.1 0.4-4 1.3zm-0.3-17.1l0.4 0.2v3.8zm-16.4-5l0.2-0.3 3.8 1.3zm-0.8 27.9l-0.5 0.1-2.8-4.6zm17.3-4.5l-0.1 0.5-4.8 1.1zm1.2-17.9l0.4 0.2-0.4 4.6zm-16.8-6.7l0.4-0.3 4.4 1.9zm-3.4 29.3h-0.6l-2.8-5.6zm18.6-3.2l-0.1 0.6-5.8 0.8zm2.8-18.7l0.5 0.3-1 5.4zm-17-8.5l0.5-0.4 4.9 2.7zm-6.1 30.4h-0.7l-2.6-6.8zm19.8-1.6l-0.2 0.6-6.8 0.4zm4.6-19.4l0.5 0.4-1.6 6.1zm-17.1-10.4h0.1l0.5-0.4 5.5 3.6zm-9.2 31.4l-0.8-0.1-2.2-7.9zm20.9 0l-0.4 0.7-7.7-0.3zm6.6-19.8l0.5 0.5-2.5 6.8zm-16.9-12.5l0.6-0.3 5.9 4.6zm-17.4 10.6l-0.1-0.5v-0.4l7.9-4.4zm5 21.5l-0.8-0.2-1.8-9zm21.9 1.9l-0.4 0.7-8.7-1.1zm8.7-20.2l0.5 0.6-3.4 7.5zm-16.7-14.6h0.1l0.6-0.3 6.2 5.7zm-19.2 9.6v-0.5-0.5l9.2-4.1zm3.4 23h-0.1l-0.9-0.3-1.1-10.3zm22.9 4l-0.6 0.8-9.6-2.1zm10.9-20.5l0.6 0.8-4.7 8zm-16.1-16.7l0.1-0.1 0.7-0.3 6.4 7.1zm-19.5 32.7h-0.1l-1-0.4-0.2-11.4zm23.6 6.1l-0.7 0.9-10.4-3.2zm13.3-20.5l0.5 0.8-5.9 8.5zm-15.5-19h0.2l0.8-0.3 6.4 8.5zm-23.4 32.6l-0.1-0.1-1-0.5 0.9-12.6zm24.1 8.6l-0.8 0.9-11.2-4.6zm15.8-20.3l0.5 1-7.4 8.8zm-14.6-21.3l0.3-0.1 0.9-0.1 6.2 10zm-27.4 32l-0.2-0.1-1-0.6 2.2-13.7zm24.6 11.2l-1 0.8-11.9-6zm18.4-19.9l0.4 1.1-9 9zm-13.3-23.7h0.3l1-0.1 5.8 11.6zm-31.6 31.1l-0.2-0.1-1-0.7 3.7-14.8zm24.8 13.9l-1.2 0.9-12.4-7.8zm21-19.2l0.4 1.3-10.7 9zm-11.8-26l0.3-0.1h1l5.4 13.3zm-36 29.8l-0.2-0.2-1-0.9 5.4-15.7zm24.7 16.8l-1.3 0.8-12.8-9.6zm23.8-18.3l0.3 1.5-12.5 8.8zm-10.1-28.4h0.4l1.1 0.2 4.5 14.9zm-40.4 28l-0.3-0.2-0.9-1 7.3-16.6zm24.5 19.9l-1.6 0.7-12.9-11.6zm26.6-17.1l0.2 1.7-14.5 8.3zm-8-30.6h0.4l1.2 0.3 3.5 16.6zm-44.9 25.8l-0.3-0.3-0.9-1.2 9.5-17.2zm23.9 23.1l-1.8 0.6-12.9-13.8zm29.4-15.5l0.1 1.8-16.5 7.7zm-5.7-32.9l0.5 0.1 1.3 0.4 2.2 18.3zm-49.4 23l-0.3-0.3-0.9-1.4 11.9-17.6zm23 26.3l-2 0.5-12.6-16.1zm32.2-13.6l-0.1 1.9-18.5 6.8zm-3-35l0.5 0.2 1.3 0.4 0.7 20.1zm-53.9 19.7l-0.3-0.5-0.8-1.5 14.4-17.9zm21.7 29.7l-2.1 0.4-12.1-18.6zm35.1-11.3l-0.3 2-20.7 5.6zm0-37l0.6 0.3 1.3 0.6-1.1 21.7zm-58.4 15.7l-0.2-0.5-0.7-1.7 17.2-17.8zm20.1 33.1l-2.4 0.2-11.2-21.1zm37.8-8.8l-0.6 2.2-22.7 4.1zm3.3-38.8l0.7 0.3 1.3 0.8-3.3 23.2zm-47.1 47.8l-10-23.7 12.6 23.7zm43-5.7l-0.8 2.3-24.8 2.2zm7-40.4l0.7 0.4 1.3 1-5.7 24.7zm-31.3-22.8l23.1 16.7-25.2-15.2zm-12.9 9.4l-22.5 19.6-0.9-2.6zm-18.2 32.9l11.3 26.7h-2.6zm53.4 26.6h-27.1l27.9-2.4zm13.9-42.6l-8.5 26 6.4-27.5z"></path><path class="b" d="m63.4 170.1l-37.4 27.1 14.3 44h46.2l14.3-44zm-35.1 31.1l20.1-17.5-19.2 20-0.3-0.6zm32-27.7l22.7 13.6-24.6-12 1-1zm-2.7 2.3l22 10.7-23.7-9.1 0.9-0.9zm-2.5 2.4l21.2 8.1-22.6-6.5 0.7-0.9zm-2.1 2.5l20.2 5.7-21.4-4.1 0.7-0.9zm-1.8 2.5l19 3.7-20-2.1 0.5-0.9zm-1.5 2.5l17.8 1.9-18.5-0.4 0.3-0.8zm-1.2 2.5l16.4 0.3-16.9 1.2 0.2-0.8zm-0.9 2.4l15-1-15.4 2.4 0.2-0.7zm-0.7 2.4l13.6-2.2-13.8 3.5 0.1-0.7zm-0.4 2.3l12-3-12.2 4.2 0.1-0.6zm-0.2 2.2l10.6-3.6-10.7 4.7v-0.5zm0.5 6l6.7-4.5-6.5 5.3-0.1-0.4zm0.5 1.8l5.4-4.4-5.2 5-0.1-0.2zm0.5 1.6l4.5-4.3-4.2 4.8-0.1-0.2zm0.7 1.5l3.4-4-3.2 4.4-0.1-0.1zm0.8 1.3l2.6-3.6-2.4 4-0.1-0.1zm0.9 1.2l1.8-3.2-1.6 3.4h-0.1zm0.9 1l1.3-2.6-1.1 2.8zm0.9 0.9l0.8-2-0.7 2.2zm12.2-11.6l7.4 5.3 0.4 0.3-2.8 8.9v0.2l-9.6 0.1-3.1-8.9v-0.1l7.3-5.5zm-9.2 13.5l0.1-0.2-0.1 0.2zm11.5 5.1l-0.3-0.1zm8.4-9.3l-0.1 0.1zm-20.8 3.6l0.1-0.8-0.1 0.9zm11.7 6.3l-0.1 0.1-0.8-0.5zm9.6-9v0.1l-0.5 0.5zm-5.6-12h0.1l0.1 0.3zm-13.1 1.7v-0.1l0.5-0.1zm-3.5 12.3l0.4-1.4-0.3 1.5zm11.7 7.8l-0.1 0.1-1.4-0.9zm10.9-8.6v0.1l-1 0.8zm-4.8-13h0.1l0.4 0.9zm-14 0.6l0.1-0.1 1.1-0.1zm6.9 21.8l-0.3 0.1-1.7-1.5zm12.1-8.1v0.2l-1.6 1.1zm-3.9-14.1h0.2l0.4 1.7zm-14.7-0.7l0.1-0.2 1.8 0.1zm5.3 23.4l-0.3 0.2-2.2-2.1zm13.5-7.4v0.2l-2.4 1.3zm-2.8-15.2l0.2 0.1 0.4 2.3zm-15.3-2l0.1-0.2 2.5 0.4zm3.5 25l-0.4 0.1-2.5-2.8zm14.8-6.6v0.3l-3.2 1.4zm-1.6-16.2l0.3 0.1 0.3 3.1zm-15.9-3.4l0.1-0.3 3.2 0.7zm1.4 26.6l-0.4 0.1-2.7-3.7zm16.1-5.6l-0.1 0.4-4 1.3zm-0.3-17.1l0.4 0.2v3.8zm-16.4-5l0.2-0.3 3.8 1.3zm-0.8 27.9l-0.5 0.1-2.8-4.6zm17.3-4.5l-0.1 0.5-4.8 1.1zm1.2-17.9l0.4 0.2-0.4 4.6zm-16.8-6.7l0.4-0.3 4.4 1.9zm-3.4 29.3h-0.6l-2.8-5.6zm18.6-3.2l-0.1 0.6-5.8 0.8zm2.8-18.7l0.5 0.3-1 5.4zm-17-8.5l0.5-0.4 4.9 2.7zm-6.1 30.4h-0.7l-2.6-6.8zm19.8-1.6l-0.2 0.6-6.8 0.4zm4.6-19.4l0.5 0.4-1.6 6.1zm-17.1-10.4h0.1l0.5-0.4 5.5 3.6zm-9.2 31.4l-0.8-0.1-2.2-7.9zm20.9 0l-0.4 0.7-7.7-0.3zm6.6-19.8l0.5 0.5-2.5 6.8zm-16.9-12.5l0.6-0.3 5.9 4.6zm-17.4 10.6l-0.1-0.5v-0.4l7.9-4.4zm5 21.5l-0.8-0.2-1.8-9zm21.9 1.9l-0.4 0.7-8.7-1.1zm8.7-20.2l0.5 0.6-3.4 7.5zm-16.7-14.6h0.1l0.6-0.3 6.2 5.7zm-19.2 9.6v-0.5-0.5l9.2-4.1zm3.4 23h-0.1l-0.9-0.3-1.1-10.3zm22.9 4l-0.6 0.8-9.6-2.1zm10.9-20.5l0.6 0.8-4.7 8zm-16.1-16.7l0.1-0.1 0.7-0.3 6.4 7.1zm-19.5 32.7h-0.1l-1-0.4-0.2-11.4zm23.6 6.1l-0.7 0.9-10.4-3.2zm13.3-20.5l0.5 0.8-5.9 8.5zm-15.5-19h0.2l0.8-0.3 6.4 8.5zm-23.4 32.6l-0.1-0.1-1-0.5 0.9-12.6zm24.1 8.6l-0.8 0.9-11.2-4.6zm15.8-20.3l0.5 1-7.4 8.8zm-14.6-21.3l0.3-0.1 0.9-0.1 6.2 10zm-27.4 32l-0.2-0.1-1-0.6 2.2-13.7zm24.6 11.2l-1 0.8-11.9-6zm18.4-19.9l0.4 1.1-9 9zm-13.3-23.7h0.3l1-0.1 5.8 11.6zm-31.6 31.1l-0.2-0.1-1-0.7 3.7-14.8zm24.8 13.9l-1.2 0.9-12.4-7.8zm21-19.2l0.4 1.3-10.7 9zm-11.8-26l0.3-0.1h1l5.4 13.3zm-36 29.8l-0.2-0.2-1-0.9 5.4-15.7zm24.7 16.8l-1.3 0.8-12.8-9.6zm23.8-18.3l0.3 1.5-12.5 8.8zm-10.1-28.4h0.4l1.1 0.2 4.5 14.9zm-40.4 28l-0.3-0.2-0.9-1 7.3-16.6zm24.5 19.9l-1.6 0.7-12.9-11.6zm26.6-17.1l0.2 1.7-14.5 8.3zm-8-30.6h0.4l1.2 0.3 3.5 16.6zm-44.9 25.8l-0.3-0.3-0.9-1.2 9.5-17.2zm23.9 23.1l-1.8 0.6-12.9-13.8zm29.4-15.5l0.1 1.8-16.5 7.7zm-5.7-32.9l0.5 0.1 1.3 0.4 2.2 18.3zm-49.4 23l-0.3-0.3-0.9-1.4 11.9-17.6zm23 26.3l-2 0.5-12.6-16.1zm32.2-13.6l-0.1 1.9-18.5 6.8zm-3-35l0.5 0.2 1.3 0.4 0.7 20.1zm-53.9 19.7l-0.3-0.5-0.8-1.5 14.4-17.9zm21.7 29.7l-2.1 0.4-12.1-18.6zm35.1-11.3l-0.3 2-20.7 5.6zm0-37l0.6 0.3 1.3 0.6-1.1 21.7zm-58.4 15.7l-0.2-0.5-0.7-1.7 17.2-17.8zm20.1 33.1l-2.4 0.2-11.2-21.1zm37.8-8.8l-0.6 2.2-22.7 4.1zm3.3-38.8l0.7 0.3 1.3 0.8-3.3 23.2zm-47.1 47.8l-10-23.7 12.6 23.7zm43-5.7l-0.8 2.3-24.8 2.2zm7-40.4l0.7 0.4 1.3 1-5.7 24.7zm-31.3-22.8l23.1 16.7-25.2-15.2zm-12.9 9.4l-22.5 19.6-0.9-2.6zm-18.2 32.9l11.3 26.7h-2.6zm53.4 26.6h-27.1l27.9-2.4zm13.9-42.6l-8.5 26 6.4-27.5z"></path></svg>