<svg version="1.2" xmlns="http://www.w3.org/2000/svg" viewBox="46.3 758 175.1 203.4"><defs><linearGradient id="P" gradientUnits="userSpaceOnUse"></linearGradient><linearGradient id="g1" x2="1" href="#P" gradientTransform="matrix(150.168,0,0,139.716,68.192,757.969)"><stop stop-color="#3ddeed"></stop><stop offset="1" stop-color="#cb00dd"></stop></linearGradient><linearGradient id="g2" x2="1" href="#P" gradientTransform="matrix(150.742,0,0,133.506,65.133,759.267)"><stop stop-color="#3ddeed"></stop><stop offset="1" stop-color="#cb00dd"></stop></linearGradient><linearGradient id="g3" x2="1" href="#P" gradientTransform="matrix(150.168,0,0,139.716,62.503,761.328)"><stop stop-color="#3ddeed"></stop><stop offset="1" stop-color="#cb00dd"></stop></linearGradient><linearGradient id="g4" x2="1" href="#P" gradientTransform="matrix(148.452,0,0,144.863,60.324,764.135)"><stop stop-color="#3ddeed"></stop><stop offset="1" stop-color="#cb00dd"></stop></linearGradient><linearGradient id="g5" x2="1" href="#P" gradientTransform="matrix(145.605,0,0,148.907,58.612,767.666)"><stop stop-color="#3ddeed"></stop><stop offset="1" stop-color="#cb00dd"></stop></linearGradient><linearGradient id="g6" x2="1" href="#P" gradientTransform="matrix(141.651,0,0,151.818,57.379,771.896)"><stop stop-color="#3ddeed"></stop><stop offset="1" stop-color="#cb00dd"></stop></linearGradient><linearGradient id="g7" x2="1" href="#P" gradientTransform="matrix(136.619,0,0,153.573,56.636,776.792)"><stop stop-color="#3ddeed"></stop><stop offset="1" stop-color="#cb00dd"></stop></linearGradient><linearGradient id="g8" x2="1" href="#P" gradientTransform="matrix(130.546,0,0,154.16,56.388,782.317)"><stop stop-color="#3ddeed"></stop><stop offset="1" stop-color="#cb00dd"></stop></linearGradient><linearGradient id="g9" x2="1" href="#P" gradientTransform="matrix(136.619,0,0,153.573,56.636,788.428)"><stop stop-color="#3ddeed"></stop><stop offset="1" stop-color="#cb00dd"></stop></linearGradient><linearGradient id="g10" x2="1" href="#P" gradientTransform="matrix(141.651,0,0,151.818,57.379,795.079)"><stop stop-color="#3ddeed"></stop><stop offset="1" stop-color="#cb00dd"></stop></linearGradient><linearGradient id="g11" x2="1" href="#P" gradientTransform="matrix(145.605,0,0,148.907,58.612,802.22)"><stop stop-color="#3ddeed"></stop><stop offset="1" stop-color="#cb00dd"></stop></linearGradient><linearGradient id="g12" x2="1" href="#P" gradientTransform="matrix(148.452,0,0,144.863,60.324,809.796)"><stop stop-color="#3ddeed"></stop><stop offset="1" stop-color="#cb00dd"></stop></linearGradient><linearGradient id="g13" x2="1" href="#P" gradientTransform="matrix(150.168,0,0,139.716,62.503,817.75)"><stop stop-color="#3ddeed"></stop><stop offset="1" stop-color="#cb00dd"></stop></linearGradient><linearGradient id="g14" x2="1" href="#P" gradientTransform="matrix(150.742,0,0,133.506,65.133,826.02)"><stop stop-color="#3ddeed"></stop><stop offset="1" stop-color="#cb00dd"></stop></linearGradient><linearGradient id="g15" x2="1" href="#P" gradientTransform="matrix(150.168,0,0,139.716,68.192,821.109)"><stop stop-color="#3ddeed"></stop><stop offset="1" stop-color="#cb00dd"></stop></linearGradient><linearGradient id="g16" x2="1" href="#P" gradientTransform="matrix(148.452,0,0,144.863,71.659,816.489)"><stop stop-color="#3ddeed"></stop><stop offset="1" stop-color="#cb00dd"></stop></linearGradient><linearGradient id="g17" x2="1" href="#P" gradientTransform="matrix(145.605,0,0,148.907,75.506,812.195)"><stop stop-color="#3ddeed"></stop><stop offset="1" stop-color="#cb00dd"></stop></linearGradient><linearGradient id="g18" x2="1" href="#P" gradientTransform="matrix(141.651,0,0,151.818,79.704,808.261)"><stop stop-color="#3ddeed"></stop><stop offset="1" stop-color="#cb00dd"></stop></linearGradient><linearGradient id="g19" x2="1" href="#P" gradientTransform="matrix(136.619,0,0,153.573,84.222,804.716)"><stop stop-color="#3ddeed"></stop><stop offset="1" stop-color="#cb00dd"></stop></linearGradient><linearGradient id="g20" x2="1" href="#P" gradientTransform="matrix(130.546,0,0,154.16,89.024,801.587)"><stop stop-color="#3ddeed"></stop><stop offset="1" stop-color="#cb00dd"></stop></linearGradient><linearGradient id="g21" x2="1" href="#P" gradientTransform="matrix(136.619,0,0,153.573,80.937,798.898)"><stop stop-color="#3ddeed"></stop><stop offset="1" stop-color="#cb00dd"></stop></linearGradient><linearGradient id="g22" x2="1" href="#P" gradientTransform="matrix(141.651,0,0,151.818,73.16,796.669)"><stop stop-color="#3ddeed"></stop><stop offset="1" stop-color="#cb00dd"></stop></linearGradient><linearGradient id="g23" x2="1" href="#P" gradientTransform="matrix(145.606,0,0,148.907,65.752,794.918)"><stop stop-color="#3ddeed"></stop><stop offset="1" stop-color="#cb00dd"></stop></linearGradient><linearGradient id="g24" x2="1" href="#P" gradientTransform="matrix(148.452,0,0,144.863,58.77,793.658)"><stop stop-color="#3ddeed"></stop><stop offset="1" stop-color="#cb00dd"></stop></linearGradient><linearGradient id="g25" x2="1" href="#P" gradientTransform="matrix(150.168,0,0,139.716,52.266,792.898)"><stop stop-color="#3ddeed"></stop><stop offset="1" stop-color="#cb00dd"></stop></linearGradient><linearGradient id="g26" x2="1" href="#P" gradientTransform="matrix(150.742,0,0,133.506,46.29,792.644)"><stop stop-color="#3ddeed"></stop><stop offset="1" stop-color="#cb00dd"></stop></linearGradient></defs><style>.a{fill:url(#g1)}.b{fill:url(#g2)}.c{fill:url(#g3)}.d{fill:url(#g4)}.e{fill:url(#g5)}.f{fill:url(#g6)}.g{fill:url(#g7)}.h{fill:url(#g8)}.i{fill:url(#g9)}.j{fill:url(#g10)}.k{fill:url(#g11)}.l{fill:url(#g12)}.m{fill:url(#g13)}.n{fill:url(#g14)}.o{fill:url(#g15)}.p{fill:url(#g16)}.q{fill:url(#g17)}.r{fill:url(#g18)}.s{fill:url(#g19)}.t{fill:url(#g20)}.u{fill:url(#g21)}.v{fill:url(#g22)}.w{fill:url(#g23)}.x{fill:url(#g24)}.y{fill:url(#g25)}.z{fill:url(#g26)}</style><path class="a" d="m68.2 897.7l63.7-139.7 0.2 0.3 86.3 125.9-0.4 0.1zm63.8-138.8l-63.1 138.3 148.6-13.3z"></path><path class="b" d="m215.9 892.8h-150.8l75.4-133.5zm-150-0.5h149.2l-74.6-132.1z"></path><path class="c" d="m212.7 901h-0.4l-149.8-13.4 86.5-126.3zm-149.4-13.8l148.6 13.3-63-138.3z"></path><path class="d" d="m208.8 909l-148.5-26.8 0.3-0.3 96.6-117.8 0.2 0.4zm-147.7-27.1l147 26.5-51.1-143.3z"></path><path class="e" d="m204.2 916.6l-145.6-39.9 106.6-109zm-144.7-40.2l144.1 39.5-38.6-147.4z"></path><path class="f" d="m199 923.7l-0.3-0.1-141.3-52.6 115.5-99.1zm-140.8-52.9l140.2 52.2-25.9-150.3z"></path><path class="g" d="m193.3 930.4l-136.7-65.2 123.5-88.4 0.1 0.4zm-135.8-65.2l135.2 64.4-13-152z"></path><path class="h" d="m186.9 936.5l-130.5-77.1 130.5-77.1zm-129.6-77.1l129.2 76.3v-152.5z"></path><path class="i" d="m180.1 942l-123.5-88.4 136.7-65.2-0.1 0.4zm-122.6-88.3l122.2 87.5 13-152z"></path><path class="j" d="m172.9 946.9l-0.3-0.3-115.2-98.8 141.6-52.7zm-114.6-99l114.3 98.1 25.9-150.2z"></path><path class="k" d="m165.2 951.1l-106.6-109 145.6-39.9zm-105.7-108.7l105.5 107.8 38.6-147.3z"></path><path class="l" d="m157.2 954.7l-96.9-118.1 148.5-26.8zm-96.1-117.8l95.9 116.9 51-143.4z"></path><path class="m" d="m149 957.5l-0.3-0.4-86.2-125.9 150.2-13.5-0.2 0.4zm-85.6-125.9l85.5 125 63.1-138.3z"></path><path class="n" d="m140.5 959.5l-75.4-133.5h150.8zm-74.6-133l74.6 132.1 74.6-132.1z"></path><path class="o" d="m131.9 960.8l-63.7-139.7 150.2 13.4zm-63-139.1l63 138.2 85.6-124.9z"></path><path class="p" d="m123.2 961.4l-0.1-0.4-51.4-144.5 148.4 26.8zm-50.9-144.3l51.1 143.4 95.9-116.9z"></path><path class="q" d="m114.5 961.1l-39-148.9 145.6 39.9zm-38.4-148.3l38.6 147.4 105.5-107.9z"></path><path class="r" d="m105.9 960.1l-26.2-151.8 141.7 52.7zm-25.6-151.1l25.9 150.2 114.2-98z"></path><path class="s" d="m97.4 958.3l-0.1-0.4-13.1-153.2 136.6 65.2zm-12.6-152.9l13 152 122.2-87.5z"></path><path class="t" d="m89 955.7v-154.1l130.6 77.1zm0.4-153.4v152.6l129.2-76.3z"></path><path class="u" d="m80.9 952.5l0.1-0.4 13.1-153.2 123.5 88.4zm13.5-152.7l-13 152 135.2-64.5z"></path><path class="v" d="m73.2 948.5l26.1-151.8 0.3 0.2 115.2 98.9-0.4 0.1zm26.5-151l-25.9 150.3 140.2-52.2z"></path><path class="w" d="m65.8 943.8l39-148.9 106.6 109zm39.2-148l-38.6 147.4 144.1-39.5z"></path><path class="x" d="m58.8 938.5l0.1-0.4 51.4-144.4 96.9 118.1zm51.7-144l-51 143.4 146.9-26.5z"></path><path class="y" d="m52.3 932.6l63.7-139.7 0.2 0.3 86.2 126h-0.4zm63.8-138.8l-63 138.3 148.6-13.3z"></path><path class="z" d="m197 926.2h-150.7l75.4-133.6zm-150-0.4h149.2l-74.6-132.1z"></path></svg>