<svg version="1.2" xmlns="http://www.w3.org/2000/svg" viewBox="108.2 40.1 82.5 71.5"><defs><linearGradient id="P" gradientUnits="userSpaceOnUse"></linearGradient><linearGradient id="g1" x2="1" href="#P" gradientTransform="matrix(-80.39,80.39,-69.62,-69.62,221.004,71.013)"><stop stop-color="#324c00"></stop><stop offset=".53" stop-color="#113d4c"></stop><stop offset="1" stop-color="#4c0041"></stop></linearGradient><linearGradient id="g2" x2="1" href="#P" gradientTransform="matrix(-87.434,87.434,-75.72,-75.72,230.31,61.708)"><stop stop-color="#b5732e"></stop><stop offset=".53" stop-color="#5681b5"></stop><stop offset="1" stop-color="#b50082"></stop></linearGradient></defs><style>.a{mix-blend-mode:screen;fill:url(#g1)}.b{mix-blend-mode:color-dodge;fill:url(#g2)}</style><path class="a" d="m149.5 40.1l-41.3 71.5h82.5zm-8.9 31.4l0.2-2.3 19.1 13.4zm0.1-3.5l0.5-2.8 22.6 19zm0.5-4.1l0.9-3.4 26 26zm1-4.7l1.4-4.1 29.2 34.7zm1 23.8l1.4 0.1h-1.3zm0.6-29.2l2.2-4.8 31.8 45.4zm39.4 46.5l-36.9-52.7 3.2-5.6zm-16.2-12.8l1.9 1.4-22.1 10.3zm-10.7-3.5l0.4 0.1-2.7 3.3zm13.8 5.2l2.2 1.9-28.9 10.6zm-12.2-5.1l0.6 0.1-5 5zm-11 11.9l-0.4 0.4-1.6-6zm12.8-11.5l1 0.4-8 6.7zm-14 12.8l-0.7 0.6-1.6-9.2zm16.1-12.3l1.2 0.6-11.7 8.2zm-17.6 13.8l-1 0.7-1.2-13zm20-12.9l1.6 0.9-16.4 9.5zm-23.4-11.8v-1.7l15.6 9zm2.2-21l-26.7 57.2h-6.3zm30.5 38.5l2.6 2.6-37 9.9zm-32.1-13.9l9.2 3.4-9-2.4zm-18.5 31.3l-5.2 0.4 23-49.3zm24.7-14.4l-0.2 0.2-1.2-3.3zm-6.7-19.2l12.3 5.7-12.1-4.4zm-12.6 32.1l-4.2 0.8 15.2-41.8zm19.9-14l-0.1 0.1-0.5-1.1zm-6.4-13.7l6.3 1.7-6.1-1.1zm-8.9 26l-3.4 0.9 9.4-34.8zm44.2-10.8l2.9 3.5-46.5 8.2zm-34.6-13.5l3.6 0.6-3.5-0.3zm-5.8 22.5l-2.6 1 5-28.4zm44.6-4.8l3.1 4.5-57.3 5.1zm-28.8-15.2l-3.4 7.4-4.6-6.7zm-12.9 18.2l-1.9 0.9 1.9-22.6zm46 2.4l3.4 5.8h-69.9zm-30.8-20.8h0.1l-1 1.5zm-14.1 0l1.4 16.6-1.4 0.9z"></path><path class="b" d="m149.5 40.1l-41.3 71.5h82.5zm-8.9 31.4l0.2-2.3 19.1 13.4zm0.1-3.5l0.5-2.8 22.6 19zm0.5-4.1l0.9-3.4 26 26zm1-4.7l1.4-4.1 29.2 34.7zm1 23.8l1.4 0.1h-1.3zm0.6-29.2l2.2-4.8 31.8 45.4zm39.4 46.5l-36.9-52.7 3.2-5.6zm-16.2-12.8l1.9 1.4-22.1 10.3zm-10.7-3.5l0.4 0.1-2.7 3.3zm13.8 5.2l2.2 1.9-28.9 10.6zm-12.2-5.1l0.6 0.1-5 5zm-11 11.9l-0.4 0.4-1.6-6zm12.8-11.5l1 0.4-8 6.7zm-14 12.8l-0.7 0.6-1.6-9.2zm16.1-12.3l1.2 0.6-11.7 8.2zm-17.6 13.8l-1 0.7-1.2-13zm20-12.9l1.6 0.9-16.4 9.5zm-23.4-11.8v-1.7l15.6 9zm2.2-21l-26.7 57.2h-6.3zm30.5 38.5l2.6 2.6-37 9.9zm-32.1-13.9l9.2 3.4-9-2.4zm-18.5 31.3l-5.2 0.4 23-49.3zm24.7-14.4l-0.2 0.2-1.2-3.3zm-6.7-19.2l12.3 5.7-12.1-4.4zm-12.6 32.1l-4.2 0.8 15.2-41.8zm19.9-14l-0.1 0.1-0.5-1.1zm-6.4-13.7l6.3 1.7-6.1-1.1zm-8.9 26l-3.4 0.9 9.4-34.8zm44.2-10.8l2.9 3.5-46.5 8.2zm-34.6-13.5l3.6 0.6-3.5-0.3zm-5.8 22.5l-2.6 1 5-28.4zm44.6-4.8l3.1 4.5-57.3 5.1zm-28.8-15.2l-3.4 7.4-4.6-6.7zm-12.9 18.2l-1.9 0.9 1.9-22.6zm46 2.4l3.4 5.8h-69.9zm-30.8-20.8h0.1l-1 1.5zm-14.1 0l1.4 16.6-1.4 0.9z"></path></svg>