<svg version="1.2" xmlns="http://www.w3.org/2000/svg" viewBox="200.1 40.4 71 70.9"><defs><linearGradient id="P" gradientUnits="userSpaceOnUse"></linearGradient><linearGradient id="g1" x2="1" href="#P" gradientTransform="matrix(-79.134,79.134,-79.134,-79.134,309.803,72.613)"><stop stop-color="#324c00"></stop><stop offset=".53" stop-color="#113d4c"></stop><stop offset="1" stop-color="#4c0041"></stop></linearGradient><linearGradient id="g2" x2="1" href="#P" gradientTransform="matrix(-79.877,79.877,-79.877,-79.877,310.527,71.889)"><stop stop-color="#b5732e"></stop><stop offset=".53" stop-color="#5681b5"></stop><stop offset="1" stop-color="#b50082"></stop></linearGradient></defs><style>.a{mix-blend-mode:screen;fill:url(#g1)}.b{mix-blend-mode:color-dodge;fill:url(#g2)}</style><path class="a" d="m220.9 111.3h29.4l20.6-20.6 0.2-0.1v-29.4l-20.8-20.8h-29.4l-20.8 20.8v29.4l20.6 20.6zm-15-16.4l18.4 15.4h-3zm-4.1-29.7l13-15.5-12.7 18.2zm67.7 21.4l-13 15.4 12.7-18.2zm-55.4-19.6l6.8-6.8-6.8 8.1zm0.4 2.3l5.6-6.6-5.5 7.8zm42.8 7.3l-1-10.5 1 0.9zm-0.5 6l-5.5 6.5 5.4-7.7zm-41.7-11.2l4.4-6.2-4.2 7.2zm41.1 9.1l-4.4 6.2 4.2-7.2zm-40.3-7.2l3.3-5.7-3.1 6.6zm39.6 5.2l-3.3 5.8 3.1-6.7zm-38.7-3.4l2.4-5.2-2.2 6zm37.9 1.6l-2.5 5.2 2.2-5.9zm-32.1-5l0.9-1-0.8 1.2zm26.2 8.3l-0.8 0.9 0.8-1.1zm-25.9-7l0.4-0.5-0.4 0.6zm25.6 5.7l-0.4 0.5 0.3-0.6zm-25-4.5zm24.6 3.3h-0.1 0.1zm-4-5.1v6.9l-4.9 4.8h-6.8l-4.9-4.8v-6.9l4.9-4.8h6.8zm-6.7-8.9h0.1zm-3.2 24.6h-0.1zm11.5-19.9v0.1zm-7.1-5.2h0.1l0.5 0.3zm-10.3 3h0.1zm-2.3 17.3zm7 5.2l-0.6-0.4zm10.3-2.9zm3.4-16.9v0.1l0.2 0.6zm-7-6.1h0.2l0.9 0.8zm-11 2.2v-0.1l0.7-0.1zm-3.9 18.1l-0.1-0.1-0.1-0.6zm7 6h-0.2l-1-0.8zm11.1-2.1h-0.1l-0.6 0.1zm5-17.4l0.2 0.1 0.1 1.3zm-6.8-7h0.2l1.4 1.4zm-11.8 1.3l0.1-0.1 1.3-0.1zm-5.6 18.5l-0.2-0.1-0.1-1.2zm6.8 6.9h-0.2l-1.4-1.3zm11.8-1.4l-0.1 0.2-1.3 0.1zm7-6.8v0.3l-1.4 1.3zm0-8.9l-0.2-2.1 0.2 0.1zm-6.7-9.9h0.3l1.7 2zm-12.4 0.4l0.1-0.2h2zm-7.7 7.9v-0.2l1.3-1.4zm0 9l0.2 2.1-0.2-0.2zm6.7 10l-0.3-0.1-1.7-2zm12.5-0.3l-0.2 0.1h-1.9zm7.9-6.5l-0.1 0.4-2 1.6zm0.8-8.7v-2.9l0.2 0.3zm-6.1-11.7l0.4 0.1 1.9 2.7zm-13.1-0.7l0.3-0.2 2.6 0.2zm-8.8 7.7l0.1-0.3 2-1.7zm-0.8 8.7v2.9l-0.2-0.3zm6.1 11.7l-0.4-0.1-1.9-2.7zm13.1 0.7l-0.3 0.2-2.6-0.2zm8.8-6.2v0.5l-2.8 1.9zm1.5-8.5l0.3-3.6 0.3 0.4zm-5.4-13.5l0.6 0.2 2 3.5zm-13.7-1.9l0.4-0.2 3.3 0.6zm-9.9 7.2l0.1-0.4 2.7-1.9zm-1.4 8.4l-0.4 3.7-0.2-0.4zm5.3 13.5l-0.5-0.2-2-3.5zm13.7 1.8l-0.4 0.3-3.3-0.6zm9.8-5.7l-0.2 0.6-3.5 2zm2.9-12.5l0.3 0.5-1 3.9zm-5.1-10.7l0.6 0.2 2.1 4.4zm-14.3-3.1l0.5-0.3 4 1.1zm-11 6.8l0.2-0.6 3.5-2zm-2.9 12.5l-0.3-0.5 1.1-3.9zm5.1 10.7l-0.7-0.2-2-4.5zm14.2 3.2l-0.5 0.3-4-1.1zm10.8-5.1l-0.2 0.6-4.5 2.1zm4.2-12.9l0.3 0.6-1.7 4.6zm-4.4-11.7l0.7 0.3 2 5.4zm-14.7-4.5l0.6-0.3 4.7 1.7zm-12.1 6.1l0.2-0.6 4.5-2.1zm-4.2 12.9l-0.3-0.6 1.7-4.6zm4.4 11.7l-0.7-0.3-2-5.4zm14.6 4.6l-0.6 0.2-4.6-1.6zm11.8-4.5l-0.4 0.7-5.4 2zm1.9-25.8l0.8 0.4 1.7 6.4zm-14.9-6l0.7-0.3 5.2 2.5zm-13.2 5.4l0.4-0.8 5.4-1.9zm-2 25.8l-0.7-0.4-1.8-6.4zm15 6l-0.7 0.3-5.3-2.5zm12.7-3.6l-0.4 0.8-6.4 1.7zm4.3-26.9l0.8 0.6 1.3 7.5zm-15.1-7.7l0.8-0.2 5.8 3.3zm-14.4 4.5l0.5-0.8 6.4-1.7zm-4.3 26.9l-0.8-0.5-1.3-7.5zm15.1 7.6l-0.8 0.3-5.8-3.4zm13.6-2.6l-0.6 0.8-7.4 1.4zm6.8-27.9l0.9 0.7 0.8 8.6zm-15.3-9.4l1.1-0.2 6.2 4.4zm-15.5 3.4l0.6-0.8 7.5-1.3zm-6.9 27.8l-0.9-0.7-0.7-8.5zm15.2 9.3l-1 0.2-6.2-4.4zm14.5-1.5l-0.7 0.9-8.6 0.7zm-5.5-39.8l1.2-0.1 6.6 5.5zm-16.5 2.3l0.7-0.9 8.6-0.8zm-9.7 28.7l-0.9-1v-9.6zm15.1 11.2l-1.1 0.1-6.6-5.5zm15.4-0.4l-1 0.9h-9.6zm11.7-13v1.3l-6.8 6.8zm-13.9-29.2h1.3l6.8 6.8zm-17.5 0.9l0.9-0.9h9.6zm2.3 42.2h-1.3l-6.8-6.8zm16.1 1l-1.1 0.9-10.7-0.9zm13.5-12.6l-0.2 1.4-8.2 6.9zm0.6-18.4l1 1.1-1 10.7zm-12.6-13.5l1.4 0.1 6.9 8.3zm-18.4-0.6l1.1-1 10.7 1zm-13.5 12.6l0.2-1.4 8.2-6.9zm-0.6 6.6v11.8l-0.9-1.1zm12.6 25.2l-1.5-0.1-6.8-8.2zm16.8 2.4l-1.3 1-11.7-2.1zm15.2-12.1l-0.3 1.6-9.7 6.8zm2.3-19.3l0.9 1.4-2.1 11.7zm-12-15.3l1.6 0.3 6.8 9.7zm-19.3-2.2l1.3-0.9 11.7 2zm-15.2 12.1l0.2-1.6 9.8-6.8zm-2.3 19.3l-0.9-1.3 2.1-11.7zm12 15.2l-1.6-0.3-6.8-9.7zm17.5 4l-1.6 0.9-12.6-3.4zm17-11.3l-0.4 1.8-11.4 6.5zm4.1-20l0.9 1.5-3.4 12.7zm-11.3-17.1l1.7 0.5 6.6 11.3zm-20-4.1l1.5-0.8 12.6 3.3zm-17 11.3l0.4-1.7 11.4-6.5zm-4.1 20l-0.9-1.5 3.4-12.7zm11.3 17.1l-1.7-0.5-6.6-11.3zm18 5.8l-1.8 0.8-13.5-4.9zm18.9-10.3l-0.7 1.8-13 6.1zm6.1-20.7l0.8 1.8-4.9 13.5zm-10.3-18.9l1.8 0.7 6.1 13zm-20.7-6.1l1.8-0.8 13.5 4.9zm-18.9 10.3l0.7-1.8 13-6.1zm-6.1 20.7l-0.8-1.8 4.9-13.5zm10.3 18.9l-1.8-0.7-6.1-13zm18.3 7.7l-2 0.7-14.2-6.6zm20.7-9.1l-0.9 1.9-14.7 5.4zm8.1-21.2l0.8 2-6.7 14.3zm-9.1-20.7l1.9 0.9 5.4 14.7zm-21.1-8.2l2-0.7 14.2 6.6zm-20.7 9.2l0.9-1.9 14.8-5.4zm-8.2 21.1l-0.8-2 6.7-14.2zm9.1 20.7l-1.9-0.9-5.4-14.8zm18.5 9.7l-2.2 0.6-14.8-8.5zm22.5-7.8l-1.1 2-16.6 4.5zm10.5-21.5l0.6 2.3-8.6 14.8zm-7.7-22.5l2 1.1 4.4 16.6zm-21.4-10.5l2.2-0.6 14.9 8.6zm-22.6 7.7l1.2-2 16.5-4.4zm-10.4 21.4l-0.6-2.3 8.5-14.8zm7.8 22.6l-2-1.2-4.5-16.6zm18.6 11.9l-2.5 0.4-15.3-10.7zm24.4-6.1l-1.5 2.1-18.3 3.2zm12.9-21.5l0.4 2.5-10.7 15.2zm-6.1-24.3l2.1 1.4 3.2 18.4zm-21.5-12.9l2.5-0.5 15.2 10.7zm-24.3 6.1l1.4-2.1 18.4-3.2zm-12.9 21.5l-0.5-2.4 10.7-15.3zm6.1 24.4l-2-1.5-3.3-18.3zm18.4 14l-2.7 0.3-15.5-13zm26.1-4.2l-1.7 2.1-20.2 1.7zm11.3-47.5l2.1 1.8 1.7 20.1zm-21.4-15.5l2.7-0.2 15.5 13zm-26.1 4.2l1.8-2.1 20.1-1.8zm-11.2 47.5l-2.1-1.7-1.8-20.1zm43.7 16.4h-21.9l24-2.1zm4.7-4.8l15.5-18.4v2.9zm15.4-22.2l-2.1-23.9 2.1 2.1zm-4.7-26.6l-18.4-15.5h2.9zm-44-15.4h21.8l-23.9 2.1zm-4.8 4.7l-15.5 18.4v-2.9zm-15.4 22.2l2.1 23.9-2.1-2.1z"></path><path class="b" d="m220.9 111.3h29.4l20.6-20.6 0.2-0.1v-29.4l-20.8-20.8h-29.4l-20.8 20.8v29.4l20.6 20.6zm-15-16.4l18.4 15.4h-3zm-4.1-29.7l13-15.5-12.7 18.2zm67.7 21.4l-13 15.4 12.7-18.2zm-55.4-19.6l6.8-6.8-6.8 8.1zm0.4 2.3l5.6-6.6-5.5 7.8zm42.8 7.3l-1-10.5 1 0.9zm-0.5 6l-5.5 6.5 5.4-7.7zm-41.7-11.2l4.4-6.2-4.2 7.2zm41.1 9.1l-4.4 6.2 4.2-7.2zm-40.3-7.2l3.3-5.7-3.1 6.6zm39.6 5.2l-3.3 5.8 3.1-6.7zm-38.7-3.4l2.4-5.2-2.2 6zm37.9 1.6l-2.5 5.2 2.2-5.9zm-32.1-5l0.9-1-0.8 1.2zm26.2 8.3l-0.8 0.9 0.8-1.1zm-25.9-7l0.4-0.5-0.4 0.6zm25.6 5.7l-0.4 0.5 0.3-0.6zm-25-4.5zm24.6 3.3h-0.1 0.1zm-4-5.1v6.9l-4.9 4.8h-6.8l-4.9-4.8v-6.9l4.9-4.8h6.8zm-6.7-8.9h0.1zm-3.2 24.6h-0.1zm11.5-19.9v0.1zm-7.1-5.2h0.1l0.5 0.3zm-10.3 3h0.1zm-2.3 17.3zm7 5.2l-0.6-0.4zm10.3-2.9zm3.4-16.9v0.1l0.2 0.6zm-7-6.1h0.2l0.9 0.8zm-11 2.2v-0.1l0.7-0.1zm-3.9 18.1l-0.1-0.1-0.1-0.6zm7 6h-0.2l-1-0.8zm11.1-2.1h-0.1l-0.6 0.1zm5-17.4l0.2 0.1 0.1 1.3zm-6.8-7h0.2l1.4 1.4zm-11.8 1.3l0.1-0.1 1.3-0.1zm-5.6 18.5l-0.2-0.1-0.1-1.2zm6.8 6.9h-0.2l-1.4-1.3zm11.8-1.4l-0.1 0.2-1.3 0.1zm7-6.8v0.3l-1.4 1.3zm0-8.9l-0.2-2.1 0.2 0.1zm-6.7-9.9h0.3l1.7 2zm-12.4 0.4l0.1-0.2h2zm-7.7 7.9v-0.2l1.3-1.4zm0 9l0.2 2.1-0.2-0.2zm6.7 10l-0.3-0.1-1.7-2zm12.5-0.3l-0.2 0.1h-1.9zm7.9-6.5l-0.1 0.4-2 1.6zm0.8-8.7v-2.9l0.2 0.3zm-6.1-11.7l0.4 0.1 1.9 2.7zm-13.1-0.7l0.3-0.2 2.6 0.2zm-8.8 7.7l0.1-0.3 2-1.7zm-0.8 8.7v2.9l-0.2-0.3zm6.1 11.7l-0.4-0.1-1.9-2.7zm13.1 0.7l-0.3 0.2-2.6-0.2zm8.8-6.2v0.5l-2.8 1.9zm1.5-8.5l0.3-3.6 0.3 0.4zm-5.4-13.5l0.6 0.2 2 3.5zm-13.7-1.9l0.4-0.2 3.3 0.6zm-9.9 7.2l0.1-0.4 2.7-1.9zm-1.4 8.4l-0.4 3.7-0.2-0.4zm5.3 13.5l-0.5-0.2-2-3.5zm13.7 1.8l-0.4 0.3-3.3-0.6zm9.8-5.7l-0.2 0.6-3.5 2zm2.9-12.5l0.3 0.5-1 3.9zm-5.1-10.7l0.6 0.2 2.1 4.4zm-14.3-3.1l0.5-0.3 4 1.1zm-11 6.8l0.2-0.6 3.5-2zm-2.9 12.5l-0.3-0.5 1.1-3.9zm5.1 10.7l-0.7-0.2-2-4.5zm14.2 3.2l-0.5 0.3-4-1.1zm10.8-5.1l-0.2 0.6-4.5 2.1zm4.2-12.9l0.3 0.6-1.7 4.6zm-4.4-11.7l0.7 0.3 2 5.4zm-14.7-4.5l0.6-0.3 4.7 1.7zm-12.1 6.1l0.2-0.6 4.5-2.1zm-4.2 12.9l-0.3-0.6 1.7-4.6zm4.4 11.7l-0.7-0.3-2-5.4zm14.6 4.6l-0.6 0.2-4.6-1.6zm11.8-4.5l-0.4 0.7-5.4 2zm1.9-25.8l0.8 0.4 1.7 6.4zm-14.9-6l0.7-0.3 5.2 2.5zm-13.2 5.4l0.4-0.8 5.4-1.9zm-2 25.8l-0.7-0.4-1.8-6.4zm15 6l-0.7 0.3-5.3-2.5zm12.7-3.6l-0.4 0.8-6.4 1.7zm4.3-26.9l0.8 0.6 1.3 7.5zm-15.1-7.7l0.8-0.2 5.8 3.3zm-14.4 4.5l0.5-0.8 6.4-1.7zm-4.3 26.9l-0.8-0.5-1.3-7.5zm15.1 7.6l-0.8 0.3-5.8-3.4zm13.6-2.6l-0.6 0.8-7.4 1.4zm6.8-27.9l0.9 0.7 0.8 8.6zm-15.3-9.4l1.1-0.2 6.2 4.4zm-15.5 3.4l0.6-0.8 7.5-1.3zm-6.9 27.8l-0.9-0.7-0.7-8.5zm15.2 9.3l-1 0.2-6.2-4.4zm14.5-1.5l-0.7 0.9-8.6 0.7zm-5.5-39.8l1.2-0.1 6.6 5.5zm-16.5 2.3l0.7-0.9 8.6-0.8zm-9.7 28.7l-0.9-1v-9.6zm15.1 11.2l-1.1 0.1-6.6-5.5zm15.4-0.4l-1 0.9h-9.6zm11.7-13v1.3l-6.8 6.8zm-13.9-29.2h1.3l6.8 6.8zm-17.5 0.9l0.9-0.9h9.6zm2.3 42.2h-1.3l-6.8-6.8zm16.1 1l-1.1 0.9-10.7-0.9zm13.5-12.6l-0.2 1.4-8.2 6.9zm0.6-18.4l1 1.1-1 10.7zm-12.6-13.5l1.4 0.1 6.9 8.3zm-18.4-0.6l1.1-1 10.7 1zm-13.5 12.6l0.2-1.4 8.2-6.9zm-0.6 6.6v11.8l-0.9-1.1zm12.6 25.2l-1.5-0.1-6.8-8.2zm16.8 2.4l-1.3 1-11.7-2.1zm15.2-12.1l-0.3 1.6-9.7 6.8zm2.3-19.3l0.9 1.4-2.1 11.7zm-12-15.3l1.6 0.3 6.8 9.7zm-19.3-2.2l1.3-0.9 11.7 2zm-15.2 12.1l0.2-1.6 9.8-6.8zm-2.3 19.3l-0.9-1.3 2.1-11.7zm12 15.2l-1.6-0.3-6.8-9.7zm17.5 4l-1.6 0.9-12.6-3.4zm17-11.3l-0.4 1.8-11.4 6.5zm4.1-20l0.9 1.5-3.4 12.7zm-11.3-17.1l1.7 0.5 6.6 11.3zm-20-4.1l1.5-0.8 12.6 3.3zm-17 11.3l0.4-1.7 11.4-6.5zm-4.1 20l-0.9-1.5 3.4-12.7zm11.3 17.1l-1.7-0.5-6.6-11.3zm18 5.8l-1.8 0.8-13.5-4.9zm18.9-10.3l-0.7 1.8-13 6.1zm6.1-20.7l0.8 1.8-4.9 13.5zm-10.3-18.9l1.8 0.7 6.1 13zm-20.7-6.1l1.8-0.8 13.5 4.9zm-18.9 10.3l0.7-1.8 13-6.1zm-6.1 20.7l-0.8-1.8 4.9-13.5zm10.3 18.9l-1.8-0.7-6.1-13zm18.3 7.7l-2 0.7-14.2-6.6zm20.7-9.1l-0.9 1.9-14.7 5.4zm8.1-21.2l0.8 2-6.7 14.3zm-9.1-20.7l1.9 0.9 5.4 14.7zm-21.1-8.2l2-0.7 14.2 6.6zm-20.7 9.2l0.9-1.9 14.8-5.4zm-8.2 21.1l-0.8-2 6.7-14.2zm9.1 20.7l-1.9-0.9-5.4-14.8zm18.5 9.7l-2.2 0.6-14.8-8.5zm22.5-7.8l-1.1 2-16.6 4.5zm10.5-21.5l0.6 2.3-8.6 14.8zm-7.7-22.5l2 1.1 4.4 16.6zm-21.4-10.5l2.2-0.6 14.9 8.6zm-22.6 7.7l1.2-2 16.5-4.4zm-10.4 21.4l-0.6-2.3 8.5-14.8zm7.8 22.6l-2-1.2-4.5-16.6zm18.6 11.9l-2.5 0.4-15.3-10.7zm24.4-6.1l-1.5 2.1-18.3 3.2zm12.9-21.5l0.4 2.5-10.7 15.2zm-6.1-24.3l2.1 1.4 3.2 18.4zm-21.5-12.9l2.5-0.5 15.2 10.7zm-24.3 6.1l1.4-2.1 18.4-3.2zm-12.9 21.5l-0.5-2.4 10.7-15.3zm6.1 24.4l-2-1.5-3.3-18.3zm18.4 14l-2.7 0.3-15.5-13zm26.1-4.2l-1.7 2.1-20.2 1.7zm11.3-47.5l2.1 1.8 1.7 20.1zm-21.4-15.5l2.7-0.2 15.5 13zm-26.1 4.2l1.8-2.1 20.1-1.8zm-11.2 47.5l-2.1-1.7-1.8-20.1zm43.7 16.4h-21.9l24-2.1zm4.7-4.8l15.5-18.4v2.9zm15.4-22.2l-2.1-23.9 2.1 2.1zm-4.7-26.6l-18.4-15.5h2.9zm-44-15.4h21.8l-23.9 2.1zm-4.8 4.7l-15.5 18.4v-2.9zm-15.4 22.2l2.1 23.9-2.1-2.1z"></path></svg>