<svg version="1.2" xmlns="http://www.w3.org/2000/svg" viewBox="770.6 523.4 178.6 178.6"><defs><linearGradient id="P" gradientUnits="userSpaceOnUse"></linearGradient><linearGradient id="g1" x2="1" href="#P" gradientTransform="matrix(162.469,0,0,163.834,778.691,530.762)"><stop stop-color="#3ddeed"></stop><stop offset="1" stop-color="#cb00dd"></stop></linearGradient><linearGradient id="g2" x2="1" href="#P" gradientTransform="matrix(158.305,0,0,160.009,780.773,532.675)"><stop stop-color="#3ddeed"></stop><stop offset="1" stop-color="#cb00dd"></stop></linearGradient><linearGradient id="g3" x2="1" href="#P" gradientTransform="matrix(154.26,0,0,155.676,782.796,534.841)"><stop stop-color="#3ddeed"></stop><stop offset="1" stop-color="#cb00dd"></stop></linearGradient><linearGradient id="g4" x2="1" href="#P" gradientTransform="matrix(149.851,0,0,151.326,785,537.016)"><stop stop-color="#3ddeed"></stop><stop offset="1" stop-color="#cb00dd"></stop></linearGradient><linearGradient id="g5" x2="1" href="#P" gradientTransform="matrix(145.296,0,0,146.757,787.278,539.301)"><stop stop-color="#3ddeed"></stop><stop offset="1" stop-color="#cb00dd"></stop></linearGradient><linearGradient id="g6" x2="1" href="#P" gradientTransform="matrix(140.664,0,0,141.904,789.594,541.727)"><stop stop-color="#3ddeed"></stop><stop offset="1" stop-color="#cb00dd"></stop></linearGradient><linearGradient id="g7" x2="1" href="#P" gradientTransform="matrix(141.655,0,0,145.1,789.099,540.129)"><stop stop-color="#3ddeed"></stop><stop offset="1" stop-color="#cb00dd"></stop></linearGradient><linearGradient id="g8" x2="1" href="#P" gradientTransform="matrix(148.265,0,0,147.829,785.793,538.765)"><stop stop-color="#3ddeed"></stop><stop offset="1" stop-color="#cb00dd"></stop></linearGradient><linearGradient id="g9" x2="1" href="#P" gradientTransform="matrix(150.799,0,0,154.314,784.526,535.522)"><stop stop-color="#3ddeed"></stop><stop offset="1" stop-color="#cb00dd"></stop></linearGradient><linearGradient id="g10" x2="1" href="#P" gradientTransform="matrix(157.026,0,0,156.696,781.413,534.331)"><stop stop-color="#3ddeed"></stop><stop offset="1" stop-color="#cb00dd"></stop></linearGradient><linearGradient id="g11" x2="1" href="#P" gradientTransform="matrix(159.209,0,0,162.779,780.321,531.29)"><stop stop-color="#3ddeed"></stop><stop offset="1" stop-color="#cb00dd"></stop></linearGradient><linearGradient id="g12" x2="1" href="#P" gradientTransform="matrix(165.022,0,0,164.802,777.414,530.278)"><stop stop-color="#3ddeed"></stop><stop offset="1" stop-color="#cb00dd"></stop></linearGradient><linearGradient id="g13" x2="1" href="#P" gradientTransform="matrix(166.846,0,0,170.452,776.503,527.453)"><stop stop-color="#3ddeed"></stop><stop offset="1" stop-color="#cb00dd"></stop></linearGradient><linearGradient id="g14" x2="1" href="#P" gradientTransform="matrix(172.217,0,0,172.106,773.817,526.626)"><stop stop-color="#3ddeed"></stop><stop offset="1" stop-color="#cb00dd"></stop></linearGradient><linearGradient id="g15" x2="1" href="#P" gradientTransform="matrix(173.671,0,0,177.295,773.09,524.031)"><stop stop-color="#3ddeed"></stop><stop offset="1" stop-color="#cb00dd"></stop></linearGradient><linearGradient id="g16" x2="1" href="#P" gradientTransform="matrix(178.573,0,0,178.573,770.639,523.392)"><stop stop-color="#3ddeed"></stop><stop offset="1" stop-color="#cb00dd"></stop></linearGradient></defs><style>.a{fill:url(#g1)}.b{fill:url(#g2)}.c{fill:url(#g3)}.d{fill:url(#g4)}.e{fill:url(#g5)}.f{fill:url(#g6)}.g{fill:url(#g7)}.h{fill:url(#g8)}.i{fill:url(#g9)}.j{fill:url(#g10)}.k{fill:url(#g11)}.l{fill:url(#g12)}.m{fill:url(#g13)}.n{fill:url(#g14)}.o{fill:url(#g15)}.p{fill:url(#g16)}</style><path class="a" d="m915.1 694.6h-0.2l-136.2-25.2v-0.2l26.1-138.4h0.2l136.2 25.2-0.1 0.2zm-135.9-25.6l135.6 25.1 25.9-137.8-135.5-25.1z"></path><path class="b" d="m918.9 692.7l-138.1-21.5v-0.2l20.2-138.3 138.1 21.4-0.1 0.2zm-137.6-21.8l137.3 21.4 20.1-137.8-137.3-21.3z"></path><path class="c" d="m920.6 690.5h-0.2l-137.6-15.5v-0.2l16.5-140 0.2 0.1 137.6 15.5-0.1 0.2zm-137.3-15.9l137 15.4 16.3-139.3-137-15.4z"></path><path class="d" d="m924.2 688.3h-0.2l-139-11.6v-0.2l10.6-139.5h0.2l139.1 11.7-0.1 0.2zm-138.8-12.1l138.5 11.6 10.5-138.8-138.4-11.6z"></path><path class="e" d="m925.8 686.1l-138.5-5.8 6.7-141 138.6 5.8zm-138.2-6.2l137.8 5.8 6.7-140.2-137.8-5.7z"></path><path class="f" d="m929.3 683.6l-139.7-1.8v-0.2l0.9-139.9 139.8 1.9v0.2zm-139.4-2.3l139 1.8 0.9-139.2-138.9-1.8z"></path><path class="g" d="m792.1 685.2l-3-141.1h0.2l138.4-4 3.1 141.1h-0.2zm-2.6-140.7l2.9 140.3 137.9-3.9-3-140.3z"></path><path class="h" d="m794.5 686.6v-0.2l-8.7-139.6 139.5-8v0.2l8.8 139.6zm-8.3-139.5l8.6 139 138.8-7.9-8.7-139z"></path><path class="i" d="m797.3 689.8l-12.8-140.5h0.2l137.9-13.8 12.7 140.6h-0.2zm-12.3-140.2l12.7 139.8 137.2-13.7-12.7-139.8z"></path><path class="j" d="m799.8 691v-0.2l-18.4-138.6 138.7-17.9v0.2l18.3 138.7zm-17.9-138.5l18.3 138 137.8-17.7-18.2-138z"></path><path class="k" d="m802.8 694.1l-0.1-0.2-22.4-139.2h0.2l136.6-23.4v0.2l22.4 139.1-0.2 0.1zm-21.9-139l22.3 138.5 135.9-23.3-22.3-138.6z"></path><path class="l" d="m805.3 695.1v-0.2l-27.9-137.1 137.1-27.5 0.1 0.2 27.8 137zm-27.4-136.9l27.8 136.4 136.3-27.4-27.8-136.4z"></path><path class="m" d="m808.5 697.9l-32-137.4 134.8-33 32 137.4zm-31.5-137.1l31.9 136.6 134-32.8-31.8-136.7z"></path><path class="n" d="m811.2 698.7l-37.4-134.9 134.9-37.2 37.3 135zm-36.8-134.7l37.1 134.2 134.1-37-37.1-134.1z"></path><path class="o" d="m814.5 701.3v-0.2l-41.4-134.6 0.2-0.1 132-42.4 0.1 0.2 41.4 134.7zm-41-134.6l41.2 134.1 131.5-42.2-41.2-134.1z"></path><path class="p" d="m817.2 702l-46.6-132 0.2-0.1 131.8-46.5 46.6 132-0.2 0.1zm-46-131.8l46.3 131.2 131.2-46.3-46.3-131.2z"></path></svg>