<svg version="1.2" xmlns="http://www.w3.org/2000/svg" viewBox="516.8 772.1 202.2 175.1"><defs><linearGradient id="P" gradientUnits="userSpaceOnUse"></linearGradient><linearGradient id="g1" x2="1" href="#P" gradientTransform="matrix(30.713,0,0,36.707,601.781,833.167)"><stop stop-color="#3ddeed"></stop><stop offset="1" stop-color="#cb00dd"></stop></linearGradient><linearGradient id="g2" x2="1" href="#P" gradientTransform="matrix(32.46,0,0,39.145,600.55,831.664)"><stop stop-color="#3ddeed"></stop><stop offset="1" stop-color="#cb00dd"></stop></linearGradient><linearGradient id="g3" x2="1" href="#P" gradientTransform="matrix(34.269,0,0,41.694,599.254,830.106)"><stop stop-color="#3ddeed"></stop><stop offset="1" stop-color="#cb00dd"></stop></linearGradient><linearGradient id="g4" x2="1" href="#P" gradientTransform="matrix(36.142,0,0,44.355,597.891,828.494)"><stop stop-color="#3ddeed"></stop><stop offset="1" stop-color="#cb00dd"></stop></linearGradient><linearGradient id="g5" x2="1" href="#P" gradientTransform="matrix(38.076,0,0,47.131,596.459,826.827)"><stop stop-color="#3ddeed"></stop><stop offset="1" stop-color="#cb00dd"></stop></linearGradient><linearGradient id="g6" x2="1" href="#P" gradientTransform="matrix(40.072,0,0,50.024,594.956,825.107)"><stop stop-color="#3ddeed"></stop><stop offset="1" stop-color="#cb00dd"></stop></linearGradient><linearGradient id="g7" x2="1" href="#P" gradientTransform="matrix(42.128,0,0,53.034,593.381,823.334)"><stop stop-color="#3ddeed"></stop><stop offset="1" stop-color="#cb00dd"></stop></linearGradient><linearGradient id="g8" x2="1" href="#P" gradientTransform="matrix(44.242,0,0,56.163,591.732,821.511)"><stop stop-color="#3ddeed"></stop><stop offset="1" stop-color="#cb00dd"></stop></linearGradient><linearGradient id="g9" x2="1" href="#P" gradientTransform="matrix(46.415,0,0,59.411,590.007,819.637)"><stop stop-color="#3ddeed"></stop><stop offset="1" stop-color="#cb00dd"></stop></linearGradient><linearGradient id="g10" x2="1" href="#P" gradientTransform="matrix(48.641,0,0,62.779,588.206,817.715)"><stop stop-color="#3ddeed"></stop><stop offset="1" stop-color="#cb00dd"></stop></linearGradient><linearGradient id="g11" x2="1" href="#P" gradientTransform="matrix(50.919,0,0,66.266,586.326,815.748)"><stop stop-color="#3ddeed"></stop><stop offset="1" stop-color="#cb00dd"></stop></linearGradient><linearGradient id="g12" x2="1" href="#P" gradientTransform="matrix(53.246,0,0,69.872,584.367,813.738)"><stop stop-color="#3ddeed"></stop><stop offset="1" stop-color="#cb00dd"></stop></linearGradient><linearGradient id="g13" x2="1" href="#P" gradientTransform="matrix(55.617,0,0,73.596,582.327,811.688)"><stop stop-color="#3ddeed"></stop><stop offset="1" stop-color="#cb00dd"></stop></linearGradient><linearGradient id="g14" x2="1" href="#P" gradientTransform="matrix(58.03,0,0,77.435,580.206,809.603)"><stop stop-color="#3ddeed"></stop><stop offset="1" stop-color="#cb00dd"></stop></linearGradient><linearGradient id="g15" x2="1" href="#P" gradientTransform="matrix(60.477,0,0,81.387,578.005,807.486)"><stop stop-color="#3ddeed"></stop><stop offset="1" stop-color="#cb00dd"></stop></linearGradient><linearGradient id="g16" x2="1" href="#P" gradientTransform="matrix(62.954,0,0,85.45,575.722,805.343)"><stop stop-color="#3ddeed"></stop><stop offset="1" stop-color="#cb00dd"></stop></linearGradient><linearGradient id="g17" x2="1" href="#P" gradientTransform="matrix(65.454,0,0,89.619,573.357,803.179)"><stop stop-color="#3ddeed"></stop><stop offset="1" stop-color="#cb00dd"></stop></linearGradient><linearGradient id="g18" x2="1" href="#P" gradientTransform="matrix(67.97,0,0,93.888,570.912,801)"><stop stop-color="#3ddeed"></stop><stop offset="1" stop-color="#cb00dd"></stop></linearGradient><linearGradient id="g19" x2="1" href="#P" gradientTransform="matrix(70.493,0,0,98.254,568.387,798.814)"><stop stop-color="#3ddeed"></stop><stop offset="1" stop-color="#cb00dd"></stop></linearGradient><linearGradient id="g20" x2="1" href="#P" gradientTransform="matrix(73.015,0,0,102.707,565.783,796.628)"><stop stop-color="#3ddeed"></stop><stop offset="1" stop-color="#cb00dd"></stop></linearGradient><linearGradient id="g21" x2="1" href="#P" gradientTransform="matrix(75.526,0,0,107.242,563.102,794.451)"><stop stop-color="#3ddeed"></stop><stop offset="1" stop-color="#cb00dd"></stop></linearGradient><linearGradient id="g22" x2="1" href="#P" gradientTransform="matrix(78.013,0,0,111.848,560.347,792.292)"><stop stop-color="#3ddeed"></stop><stop offset="1" stop-color="#cb00dd"></stop></linearGradient><linearGradient id="g23" x2="1" href="#P" gradientTransform="matrix(80.756,0,0,116.516,557.52,790.162)"><stop stop-color="#3ddeed"></stop><stop offset="1" stop-color="#cb00dd"></stop></linearGradient><linearGradient id="g24" x2="1" href="#P" gradientTransform="matrix(87.503,0,0,121.234,554.625,788.073)"><stop stop-color="#3ddeed"></stop><stop offset="1" stop-color="#cb00dd"></stop></linearGradient><linearGradient id="g25" x2="1" href="#P" gradientTransform="matrix(94.635,0,0,125.988,551.665,786.037)"><stop stop-color="#3ddeed"></stop><stop offset="1" stop-color="#cb00dd"></stop></linearGradient><linearGradient id="g26" x2="1" href="#P" gradientTransform="matrix(102.164,0,0,130.764,548.645,784.068)"><stop stop-color="#3ddeed"></stop><stop offset="1" stop-color="#cb00dd"></stop></linearGradient><linearGradient id="g27" x2="1" href="#P" gradientTransform="matrix(110.107,0,0,135.545,545.57,782.182)"><stop stop-color="#3ddeed"></stop><stop offset="1" stop-color="#cb00dd"></stop></linearGradient><linearGradient id="g28" x2="1" href="#P" gradientTransform="matrix(118.474,0,0,140.314,542.448,780.394)"><stop stop-color="#3ddeed"></stop><stop offset="1" stop-color="#cb00dd"></stop></linearGradient><linearGradient id="g29" x2="1" href="#P" gradientTransform="matrix(127.28,0,0,145.05,539.284,778.722)"><stop stop-color="#3ddeed"></stop><stop offset="1" stop-color="#cb00dd"></stop></linearGradient><linearGradient id="g30" x2="1" href="#P" gradientTransform="matrix(136.536,0,0,149.73,536.087,777.186)"><stop stop-color="#3ddeed"></stop><stop offset="1" stop-color="#cb00dd"></stop></linearGradient><linearGradient id="g31" x2="1" href="#P" gradientTransform="matrix(146.257,0,0,154.331,532.865,775.806)"><stop stop-color="#3ddeed"></stop><stop offset="1" stop-color="#cb00dd"></stop></linearGradient><linearGradient id="g32" x2="1" href="#P" gradientTransform="matrix(156.454,0,0,158.827,529.629,774.605)"><stop stop-color="#3ddeed"></stop><stop offset="1" stop-color="#cb00dd"></stop></linearGradient><linearGradient id="g33" x2="1" href="#P" gradientTransform="matrix(167.137,0,0,163.186,526.39,773.607)"><stop stop-color="#3ddeed"></stop><stop offset="1" stop-color="#cb00dd"></stop></linearGradient><linearGradient id="g34" x2="1" href="#P" gradientTransform="matrix(178.318,0,0,167.379,523.161,772.838)"><stop stop-color="#3ddeed"></stop><stop offset="1" stop-color="#cb00dd"></stop></linearGradient><linearGradient id="g35" x2="1" href="#P" gradientTransform="matrix(190.007,0,0,171.37,519.954,772.325)"><stop stop-color="#3ddeed"></stop><stop offset="1" stop-color="#cb00dd"></stop></linearGradient><linearGradient id="g36" x2="1" href="#P" gradientTransform="matrix(202.213,0,0,175.122,516.785,772.099)"><stop stop-color="#3ddeed"></stop><stop offset="1" stop-color="#cb00dd"></stop></linearGradient></defs><style>.a{fill:url(#g1)}.b{fill:url(#g2)}.c{fill:url(#g3)}.d{fill:url(#g4)}.e{fill:url(#g5)}.f{fill:url(#g6)}.g{fill:url(#g7)}.h{fill:url(#g8)}.i{fill:url(#g9)}.j{fill:url(#g10)}.k{fill:url(#g11)}.l{fill:url(#g12)}.m{fill:url(#g13)}.n{fill:url(#g14)}.o{fill:url(#g15)}.p{fill:url(#g16)}.q{fill:url(#g17)}.r{fill:url(#g18)}.s{fill:url(#g19)}.t{fill:url(#g20)}.u{fill:url(#g21)}.v{fill:url(#g22)}.w{fill:url(#g23)}.x{fill:url(#g24)}.y{fill:url(#g25)}.z{fill:url(#g26)}.A{fill:url(#g27)}.B{fill:url(#g28)}.C{fill:url(#g29)}.D{fill:url(#g30)}.E{fill:url(#g31)}.F{fill:url(#g32)}.G{fill:url(#g33)}.H{fill:url(#g34)}.I{fill:url(#g35)}.J{fill:url(#g36)}</style><path class="a" d="m632.5 869.9l-30.7-4 3.6-32.7zm-30.2-4.5l29.1 3.8-25.7-34.7z"></path><path class="b" d="m633 870.8l-32.5-5.3 5.1-33.8zm-31.9-5.7l30.8 5-26.1-37.2z"></path><path class="c" d="m633.5 871.8l-34.2-6.7 6.5-35zm-33.7-7.1l32.7 6.4-26.4-39.7z"></path><path class="d" d="m634 872.8l-36.1-8.1 8.3-36.2zm-35.6-8.6l34.5 7.8-26.6-42.3z"></path><path class="e" d="m634.5 874l-38-9.9 10.1-37.3zm-37.5-10.1l36.5 9.3-26.8-45z"></path><path class="f" d="m635 875.1l-40-11.6 12.1-38.4zm-39.4-11.9l38.4 11.1-26.8-48z"></path><path class="g" d="m635.5 876.4l-42.1-13.5 14.3-39.6zm-41.5-13.8l40.5 13-26.7-51z"></path><path class="h" d="m636 877.7l-44.3-15.6 16.7-40.6zm-43.6-15.9l42.6 15-26.5-54z"></path><path class="i" d="m636.4 879l-46.4-17.8 19.2-41.6zm-45.7-18l44.8 17.1-26.2-57.3z"></path><path class="j" d="m636.8 880.5l-48.6-20.2 22-42.6zm-48-20.4l47 19.5-25.7-60.7z"></path><path class="k" d="m637.2 882l-50.9-22.8 24.9-43.5zm-50.2-23l49.3 22.1-25.1-64.2z"></path><path class="l" d="m637.6 883.6l-53.2-25.5 28-44.4 0.2 0.5zm-52.5-25.7l51.6 24.7-24.4-67.7z"></path><path class="m" d="m637.9 885.3l-55.6-28.5 31.5-45.1zm-54.9-28.7l54 27.7-23.4-71.5z"></path><path class="n" d="m638.2 887l-58-31.6 0.2-0.3 34.9-45.5zm-57.3-31.8l56.5 30.8-22.3-75.3z"></path><path class="o" d="m638.5 888.9l-60.5-35.1 39-46.3zm-59.7-35.2l58.9 34.1-20.9-79.2z"></path><path class="p" d="m638.7 890.8l-63-38.7 43.2-46.8 0.1 0.5zm-62.2-38.8l61.4 37.8-19.3-83.4z"></path><path class="q" d="m638.8 892.8l-65.4-42.5 47.5-47.1zm-64.6-42.6l63.9 41.5-17.4-87.5z"></path><path class="r" d="m638.9 894.9l-68-46.6 52.3-47.3zm-67.1-46.7l66.4 45.6-15.3-91.8z"></path><path class="s" d="m638.9 897.1l-70.5-51 57.3-47.3zm-69.6-51l69 49.9-12.9-96.2z"></path><path class="t" d="m638.8 899.3l-73-55.6 62.7-47.1zm-72.2-55.6l71.6 54.5-10.2-100.6z"></path><path class="u" d="m638.6 901.7l-75.5-60.5 68.4-46.7zm-74.7-60.5l74.1 59.3-7-105.2z"></path><path class="v" d="m638.4 904.1l-78.1-65.7 74.4-46.1v0.4zm-77.1-65.6l76.6 64.5-3.6-109.8z"></path><path class="w" d="m638 906.7l-80.5-71.2 80.8-45.3zm-79.6-71.1l79.1 70 0.3-114.6z"></path><path class="x" d="m637.5 909.3l-82.9-77 87.5-44.2v0.4zm-82-76.9l81.6 75.8 4.5-119.3z"></path><path class="y" d="m636.9 912l-85.2-83.1 94.6-42.9zm-84.3-82.9l83.9 81.8 9.3-124z"></path><path class="z" d="m636.1 914.8l-87.5-89.6 102.2-41.1v0.4zm-86.6-89.4l86.2 88.3 14.5-128.9z"></path><path class="A" d="m635.2 917.7l-89.6-96.4 110.1-39.1zm-88.8-96.2l88.4 95.1 20.2-133.7z"></path><path class="B" d="m634.1 920.7l-91.7-103.6 118.5-36.7-0.1 0.4zm-90.8-103.4l90.5 102.3 26.5-138.5z"></path><path class="C" d="m632.9 923.8l-93.6-111.2 127.3-33.9-0.1 0.4zm-92.8-110.9l92.5 109.8 33.3-143.2z"></path><path class="D" d="m631.5 926.9l-0.4-0.4-95-118.7 136.5-30.6zm-94.5-118.8l94.3 117.7 40.7-148z"></path><path class="E" d="m629.8 930.1l-96.9-127.4 146.2-26.9-0.1 0.4zm-96.1-127.1l95.9 126 48.8-152.6z"></path><path class="F" d="m627.9 933.4l-98.3-136.1 156.5-22.7zm-97.4-135.7l97.2 134.6 57.6-157.1z"></path><path class="G" d="m625.8 936.8l-99.4-145.2 0.4-0.1 166.7-17.9-0.1 0.4zm-98.6-144.8l98.5 143.8 67-161.6z"></path><path class="H" d="m623.5 940.2l-100.3-154.8 178.3-12.6zm-99.4-154.3l99.3 153.3 77.3-165.8z"></path><path class="I" d="m620.8 943.7l-100.8-164.7 190-6.7zm-100-164.2l99.9 163.2 88.4-169.8z"></path><path class="J" d="m617.9 947.2l-101.1-175.1h202.2zm-100.2-174.6l100.2 173.6 100.2-173.6z"></path></svg>