<svg version="1.2" xmlns="http://www.w3.org/2000/svg" viewBox="277.05 769.2 197.6 181"><defs><linearGradient id="P" gradientUnits="userSpaceOnUse"></linearGradient><linearGradient id="g1" x2="1" href="#P" gradientTransform="matrix(47.675,0,0,42.983,349.342,840.725)"><stop stop-color="#3ddeed"></stop><stop offset="1" stop-color="#cb00dd"></stop></linearGradient><linearGradient id="g2" x2="1" href="#P" gradientTransform="matrix(50.099,0,0,46.973,348.481,839.971)"><stop stop-color="#3ddeed"></stop><stop offset="1" stop-color="#cb00dd"></stop></linearGradient><linearGradient id="g3" x2="1" href="#P" gradientTransform="matrix(52.326,0,0,51.064,347.819,839.314)"><stop stop-color="#3ddeed"></stop><stop offset="1" stop-color="#cb00dd"></stop></linearGradient><linearGradient id="g4" x2="1" href="#P" gradientTransform="matrix(54.313,0,0,55.266,347.377,838.774)"><stop stop-color="#3ddeed"></stop><stop offset="1" stop-color="#cb00dd"></stop></linearGradient><linearGradient id="g5" x2="1" href="#P" gradientTransform="matrix(56.015,0,0,59.524,347.187,838.372)"><stop stop-color="#3ddeed"></stop><stop offset="1" stop-color="#cb00dd"></stop></linearGradient><linearGradient id="g6" x2="1" href="#P" gradientTransform="matrix(57.883,0,0,66.057,346.806,835.865)"><stop stop-color="#3ddeed"></stop><stop offset="1" stop-color="#cb00dd"></stop></linearGradient><linearGradient id="g7" x2="1" href="#P" gradientTransform="matrix(62.528,0,0,73.507,343.563,832.576)"><stop stop-color="#3ddeed"></stop><stop offset="1" stop-color="#cb00dd"></stop></linearGradient><linearGradient id="g8" x2="1" href="#P" gradientTransform="matrix(67.299,0,0,81.328,340.114,829.044)"><stop stop-color="#3ddeed"></stop><stop offset="1" stop-color="#cb00dd"></stop></linearGradient><linearGradient id="g9" x2="1" href="#P" gradientTransform="matrix(72.239,0,0,89.466,336.446,825.275)"><stop stop-color="#3ddeed"></stop><stop offset="1" stop-color="#cb00dd"></stop></linearGradient><linearGradient id="g10" x2="1" href="#P" gradientTransform="matrix(77.243,0,0,97.868,332.573,821.276)"><stop stop-color="#3ddeed"></stop><stop offset="1" stop-color="#cb00dd"></stop></linearGradient><linearGradient id="g11" x2="1" href="#P" gradientTransform="matrix(82.394,0,0,106.47,328.485,817.062)"><stop stop-color="#3ddeed"></stop><stop offset="1" stop-color="#cb00dd"></stop></linearGradient><linearGradient id="g12" x2="1" href="#P" gradientTransform="matrix(87.6,0,0,115.167,324.175,812.679)"><stop stop-color="#3ddeed"></stop><stop offset="1" stop-color="#cb00dd"></stop></linearGradient><linearGradient id="g13" x2="1" href="#P" gradientTransform="matrix(92.902,0,0,123.925,319.641,808.094)"><stop stop-color="#3ddeed"></stop><stop offset="1" stop-color="#cb00dd"></stop></linearGradient><linearGradient id="g14" x2="1" href="#P" gradientTransform="matrix(98.313,0,0,132.62,314.885,803.359)"><stop stop-color="#3ddeed"></stop><stop offset="1" stop-color="#cb00dd"></stop></linearGradient><linearGradient id="g15" x2="1" href="#P" gradientTransform="matrix(103.768,0,0,141.139,309.913,798.504)"><stop stop-color="#3ddeed"></stop><stop offset="1" stop-color="#cb00dd"></stop></linearGradient><linearGradient id="g16" x2="1" href="#P" gradientTransform="matrix(110.527,0,0,149.359,304.737,793.568)"><stop stop-color="#3ddeed"></stop><stop offset="1" stop-color="#cb00dd"></stop></linearGradient><linearGradient id="g17" x2="1" href="#P" gradientTransform="matrix(125.248,0,0,157.068,299.362,788.625)"><stop stop-color="#3ddeed"></stop><stop offset="1" stop-color="#cb00dd"></stop></linearGradient><linearGradient id="g18" x2="1" href="#P" gradientTransform="matrix(141.316,0,0,164.27,293.864,783.643)"><stop stop-color="#3ddeed"></stop><stop offset="1" stop-color="#cb00dd"></stop></linearGradient><linearGradient id="g19" x2="1" href="#P" gradientTransform="matrix(158.709,0,0,170.732,288.283,778.708)"><stop stop-color="#3ddeed"></stop><stop offset="1" stop-color="#cb00dd"></stop></linearGradient><linearGradient id="g20" x2="1" href="#P" gradientTransform="matrix(177.566,0,0,176.295,282.612,773.866)"><stop stop-color="#3ddeed"></stop><stop offset="1" stop-color="#cb00dd"></stop></linearGradient><linearGradient id="g21" x2="1" href="#P" gradientTransform="matrix(197.608,0,0,180.833,277.053,769.159)"><stop stop-color="#3ddeed"></stop><stop offset="1" stop-color="#cb00dd"></stop></linearGradient></defs><style>.a{fill:url(#g1)}.b{fill:url(#g2)}.c{fill:url(#g3)}.d{fill:url(#g4)}.e{fill:url(#g5)}.f{fill:url(#g6)}.g{fill:url(#g7)}.h{fill:url(#g8)}.i{fill:url(#g9)}.j{fill:url(#g10)}.k{fill:url(#g11)}.l{fill:url(#g12)}.m{fill:url(#g13)}.n{fill:url(#g14)}.o{fill:url(#g15)}.p{fill:url(#g16)}.q{fill:url(#g17)}.r{fill:url(#g18)}.s{fill:url(#g19)}.t{fill:url(#g20)}.u{fill:url(#g21)}</style><path class="a" d="m353.5 883.7c-1.2 0-2.2-0.3-2.9-0.9-1.4-1.2-1.6-3.3-0.6-5.7l10.7-26.5c1.4-3.6 5.3-7.3 9.4-9 2.3-1 4.4-1.1 5.9-0.5l18.9 8c1.2 0.5 2 1.6 2.1 3 0.3 3.4-2.9 8.1-7.5 10.9l-29.5 18.5c-2.3 1.5-4.6 2.2-6.5 2.2zm20.5-42.3c-1.1 0-2.3 0.3-3.7 0.8-3.9 1.7-7.6 5.2-9 8.7l-10.7 26.5c-0.9 2.1-0.7 3.9 0.4 4.8 1.7 1.5 5.1 1 8.6-1.3l29.5-18.5c5-3.1 7.4-7.6 7.2-10.3q-0.1-1.7-1.7-2.4l-18.9-8q-0.7-0.3-1.7-0.3z"></path><path class="b" d="m352.9 886.9c-1.1 0-2.1-0.2-2.9-0.8-1.5-1.1-1.9-3.2-1.1-5.8l9.3-28.7c2.2-6.7 11-12.9 16-11.4l21.7 6.6c1.4 0.5 2.4 1.5 2.6 3.1 0.6 3.5-2.5 8.6-7.2 12l-31 22.1c-2.6 1.9-5.3 2.9-7.4 2.9zm19.6-46.2c-4.7 0-11.8 5.5-13.6 11.1l-9.3 28.7c-0.8 2.3-0.5 4.1 0.8 5.1 2 1.4 5.8 0.6 9.5-2.1l31-22.1c5.1-3.7 7.4-8.7 6.9-11.4q-0.3-2-2.1-2.5l-21.7-6.6q-0.7-0.2-1.5-0.2z"></path><path class="c" d="m352.4 890.4q-1.6 0-2.7-0.7c-1.7-1.1-2.3-3.2-1.6-5.9l7.5-31c1.7-7.1 10.9-14.5 16.6-13.4l24.5 5c1.8 0.3 2.9 1.4 3.3 3 0.9 3.7-2 9.2-6.9 13.2l-32.1 26.1c-2.9 2.4-6.1 3.7-8.6 3.7zm18.5-50.4c-5.3 0-13.1 6.7-14.6 13l-7.5 31c-0.6 2.4-0.2 4.2 1.2 5.1 2 1.2 6 0.8 10.6-3l32.1-26c5.2-4.3 7.3-9.7 6.6-12.5-0.3-1.4-1.3-2.3-2.7-2.5l-24.6-5q-0.5-0.1-1.1-0.1z"></path><path class="d" d="m352.3 894q-1.5 0-2.6-0.6c-1.9-1-2.6-3.1-2.2-5.9l5.3-33.2c1.2-7.6 10.6-16.2 17-15.5l27.7 2.9c2 0.3 3.3 1.3 3.9 3 1.2 3.8-1.4 9.8-6.4 14.4l-33 30.2c-3.3 3.1-6.9 4.7-9.7 4.7zm16.8-54.5c-6 0-14.5 8-15.6 15l-5.3 33.1c-0.4 2.5 0.2 4.4 1.8 5.2 2.2 1.3 6.7 0.5 11.6-4l33-30.2c5.3-4.9 7.1-10.7 6.1-13.7-0.4-1.4-1.6-2.3-3.3-2.5l-27.7-2.9q-0.3 0-0.6 0z"></path><path class="e" d="m352.5 897.9q-1.4 0-2.5-0.5c-2-0.9-3-3-2.8-5.9l2.7-35.3c0.6-8.1 10.1-18 17.3-17.8l30.9 0.5c2.2 0 3.8 1.1 4.6 2.9 1.6 3.9-0.8 10.4-5.7 15.5l-33.6 34.7c-3.6 3.8-7.7 5.9-10.9 5.9zm14.5-58.8c-6.7 0-15.9 9.5-16.4 17.2l-2.7 35.2c-0.2 2.6 0.7 4.5 2.4 5.3 3.1 1.4 8.3-0.8 12.6-5.2l33.6-34.8c5.4-5.5 6.9-11.6 5.6-14.7-0.7-1.6-2.1-2.5-4-2.5l-31-0.5q0 0-0.1 0z"></path><path class="f" d="m353 901.9q-1.2 0-2.2-0.3c-2.2-0.9-3.5-2.9-3.5-5.9l-0.5-37.3c-0.1-8.5 9.5-19.7 17.4-20.2l34.3-2.3v0.3-0.3c2.5-0.2 4.4 0.8 5.4 2.8 2 4 0 10.8-4.9 16.5l-33.8 39.5c-3.9 4.6-8.5 7.2-12.2 7.2zm46-65.4q-0.2 0-0.5 0.1l-34.3 2.2c-7.4 0.5-16.8 11.5-16.7 19.6l0.5 37.3c0 2.7 1.1 4.5 3 5.2 3.6 1.3 9.2-1.4 13.7-6.6l33.8-39.5c5.2-6.2 6.4-12.6 4.8-15.8-0.8-1.6-2.3-2.5-4.3-2.5z"></path><path class="g" d="m353.9 906.1q-1 0-1.9-0.3c-2.4-0.6-3.9-2.7-4.2-5.7l-4.2-39.1c-0.9-8.9 8.6-21.5 17.3-22.8l37.7-5.5c2.9-0.4 5.1 0.5 6.4 2.6 2.4 4.1 0.8 11.3-4 17.6l-33.6 44.5c-4 5.4-9.3 8.7-13.5 8.7zm44.7-73.1l0.1 0.4-37.7 5.5c-8.3 1.2-17.6 13.6-16.7 22.1l4.1 39c0.3 2.8 1.6 4.6 3.8 5.2 4.2 1.1 10.2-2.2 14.7-8.2l33.6-44.5c4.5-6.1 6.2-13 3.9-16.8-1.1-1.9-3.1-2.7-5.7-2.3z"></path><path class="h" d="m355.3 910.4q-0.7 0-1.4-0.2c-2.7-0.5-4.5-2.5-5.2-5.6l-8.3-40.5c-2-9.3 7.3-23.4 16.8-25.5l41.2-9.3c3.3-0.7 5.9 0.1 7.5 2.4 2.8 4.1 1.6 11.7-2.9 18.6l-32.9 49.7c-4.1 6.3-10 10.4-14.8 10.4zm43.2-80.8l0.1 0.4-41.3 9.2c-8.9 2-18.1 15.9-16.3 24.7l8.4 40.6c0.6 2.8 2.2 4.6 4.6 5.1 4.7 0.9 11.1-3.2 15.6-9.9l32.8-49.8c4.4-6.6 5.6-14 2.9-17.8-1.4-2.1-3.7-2.8-6.7-2.1z"></path><path class="i" d="m357.3 914.7q-0.5 0-0.9 0c-3-0.3-5.2-2.2-6.2-5.4l-13.2-41.8c-1.3-4.2-0.4-9.9 2.6-15.6 3.4-6.3 8.6-11.1 13.6-12.6l44.7-13.5 0.1 0.3-0.1-0.3c3.7-1.1 6.7-0.4 8.7 2.1 3.3 4.1 2.6 11.9-1.6 19.4l-31.6 55.2c-4.2 7.4-10.7 12.2-16.1 12.2zm43.7-88.7q-1.3 0-2.9 0.4l-44.7 13.5c-4.9 1.5-9.9 6.2-13.2 12.3-2.8 5.5-3.8 11.1-2.5 15.1l13.2 41.8c0.9 2.9 2.8 4.6 5.5 4.9 5.4 0.6 12.1-4.3 16.4-11.8l31.6-55.2c4-7.2 4.7-14.8 1.7-18.7-1.3-1.5-3-2.3-5.1-2.3z"></path><path class="j" d="m359.8 919.1q-0.1 0-0.2 0c-3.3 0-5.9-1.8-7.3-5.1l-18.6-42.5c-1.8-4.2-1.4-10 1.1-16 3-7.2 8.4-13 14-15.1l48.2-18.3c4.1-1.5 7.7-0.9 10 1.7 3.8 4.1 3.7 12.3-0.2 20.2l-29.5 60.9c-4.2 8.4-11.3 14.2-17.5 14.2zm37.4-96.7l0.1 0.4-48.2 18.2c-5.5 2.1-10.7 7.7-13.7 14.7-2.4 5.9-2.8 11.5-1.1 15.5l18.7 42.6c1.3 3 3.6 4.6 6.6 4.7 6 0.1 13-5.6 17-13.9l29.6-60.9c3.8-7.7 3.9-15.5 0.3-19.5-2.2-2.4-5.4-2.9-9.2-1.4z"></path><path class="k" d="m363 923.5c-3.4 0-6.1-1.6-7.9-4.6l-24.7-43c-2.4-4-2.5-10-0.5-16.3 2.6-8.1 8-14.8 14.2-17.7l51.6-23.5 0.1 0.3-0.1-0.3c4.5-2.1 8.6-1.7 11.5 1.1 4.3 4.1 4.9 12.4 1.4 20.9l-26.8 66.5c-3.8 9.3-11.2 16.1-18.1 16.6q-0.4 0-0.7 0zm38.1-105.7q-2.4-0.1-5.1 1.2l-51.6 23.6c-6 2.7-11.3 9.3-13.9 17.2-1.9 6.1-1.8 11.9 0.5 15.8l24.7 42.9c1.8 3.1 4.5 4.6 7.9 4.3 6.7-0.4 13.9-7.1 17.5-16.1l26.9-66.5c3.3-8.2 2.8-16.3-1.3-20.2-1.5-1.5-3.4-2.2-5.6-2.2z"></path><path class="l" d="m366.8 927.8c-3.2 0-6.1-1.4-8.1-4.2l-31.6-42.7c-2.9-4-3.7-10-2.2-16.7 2-8.7 7.5-16.7 14.1-20.2l54.8-29.4c4.9-2.7 9.7-2.5 13.2 0.3 4.9 4.1 6.1 12.6 3.2 21.6l-23.3 72.2c-3.2 10-10.7 17.8-18.2 19q-0.9 0.1-1.9 0.1zm27.2-112.9l0.2 0.3-54.9 29.4c-6.4 3.5-11.8 11.2-13.7 19.8-1.5 6.4-0.7 12.3 2.1 16.1l31.5 42.7c2.3 3.1 5.6 4.4 9.4 3.8 7.3-1.2 14.5-8.8 17.7-18.5l23.3-72.2c2.8-8.8 1.6-16.9-3.1-20.8-3.2-2.8-7.6-2.9-12.3-0.3z"></path><path class="m" d="m371.4 932c-3.1 0-6-1.2-8.3-3.7l-39.1-41.9c-3.5-3.8-5-10-4.1-17 1.3-9.5 6.6-18.4 13.7-22.8l57.8-35.9 0.2 0.3-0.2-0.3c5.4-3.3 10.8-3.5 15-0.5 5.4 4 7.5 12.6 5.2 22l-18.8 77.9c-2.5 10.5-9.9 19.4-17.9 21.5q-1.8 0.4-3.5 0.4zm20.4-120.7l-57.8 35.9c-6.9 4.3-12.2 13-13.4 22.3-0.9 6.8 0.5 12.8 3.9 16.4l39.1 42c2.9 3 6.8 4.1 11.1 3 7.8-2 15-10.7 17.5-21l18.8-77.8c2.2-9.2 0.2-17.5-5-21.3-3.9-2.9-9.1-2.7-14.2 0.5z"></path><path class="n" d="m376.8 936c-3.1 0-5.9-1.1-8.4-3.2l-47.3-40.4c-4.2-3.6-6.5-9.9-6.2-17.3 0.5-10.1 5.5-20 12.9-25.2l60.6-43 0.2 0.3-0.2-0.3c5.8-4.1 11.9-4.7 16.9-1.6 6.2 3.8 9.1 12.4 7.5 22.3l-13.3 83.4c-1.8 11.2-8.8 20.8-17.4 24q-2.7 1-5.3 1zm21.7-132c-3.2 0-6.5 1.2-9.7 3.5l-60.6 42.9c-7.2 5.2-12.2 14.9-12.6 24.8-0.3 7.1 1.9 13.2 6 16.7l47.3 40.4c3.6 3.1 8.2 3.8 13 2 8.4-3 15.2-12.5 16.9-23.5l13.3-83.3c1.5-9.6-1.2-17.9-7.2-21.6-2-1.2-4.1-1.9-6.4-1.9z"></path><path class="o" d="m383.1 939.6c-3 0-5.8-0.8-8.4-2.5l-56.2-38c-5.1-3.5-8.2-9.9-8.6-17.7-0.4-10.6 4.3-21.4 11.9-27.6l62.9-50.6c6.2-5 13.1-6.1 18.9-3 6.9 3.6 10.7 12.3 10 22.5l-6.6 88.6c-0.9 11.5-7.4 22.2-16.3 26.5-2.6 1.2-5.1 1.8-7.6 1.8zm1.8-136.1l0.2 0.3-62.9 50.6c-7.4 6-12 16.6-11.6 26.9 0.3 7.6 3.4 13.9 8.3 17.2l56.2 38c4.5 3 9.9 3.3 15.3 0.7 8.6-4.2 15-14.6 15.9-26l6.6-88.6c0.7-9.9-2.9-18.3-9.6-21.8-5.6-2.9-12.2-1.8-18.2 3z"></path><path class="p" d="m390.2 942.9c-2.8 0-5.5-0.6-8.1-2l-65.9-34.7c-6.1-3.2-10.1-9.7-11.2-18-1.4-11 2.7-22.6 10.5-29.7l64.7-58.8c6.5-6 14.3-7.7 21.1-4.7 7.7 3.3 12.6 11.9 12.7 22.4l1.3 93.5c0.1 12-5.7 23.3-14.8 28.9-3.4 2.1-6.9 3.1-10.3 3.1zm-9.8-143l0.2 0.3-64.6 58.8c-7.6 7-11.7 18.4-10.3 29.1 1 8 5 14.4 10.8 17.5l66 34.7c5.5 2.9 11.8 2.5 17.7-1.1 8.9-5.4 14.5-16.5 14.4-28.2l-1.3-93.6c-0.1-10.2-4.8-18.5-12.2-21.8-6.7-2.8-14.1-1.2-20.5 4.6z"></path><path class="q" d="m398.1 945.7c-2.5 0-5-0.5-7.4-1.4l-76.3-30.3c-7.2-2.9-12.4-9.6-14.3-18.4-2.4-11.4 1-23.5 8.9-31.6l65.9-67.6c6.7-6.9 15.5-9.4 23.4-6.7 8.7 3 14.5 11.3 15.7 22.2l10.4 97.9c1.3 12-3.7 24.2-12.7 31-4.2 3.2-8.9 4.9-13.6 4.9zm-23-149.1l0.3 0.3-65.9 67.6c-7.8 7.9-11.1 19.8-8.7 30.9 1.8 8.6 6.9 15.2 13.8 17.9l76.4 30.3c6.6 2.7 14 1.5 20.3-3.3 8.8-6.7 13.7-18.6 12.4-30.4l-10.4-98c-1.1-10.6-6.8-18.6-15.2-21.5-7.7-2.7-16.2-0.3-22.7 6.5z"></path><path class="r" d="m406.9 947.9q-3.2 0-6.4-0.9l-87.4-24.8c-8.5-2.4-14.9-9.2-17.8-18.6-3.4-11.5-0.7-24.3 7-33.2l66.4-77c6.9-8 16.5-11.4 25.7-9 9.6 2.5 16.7 10.6 19 21.7l21 101.7c2.5 12.1-1.3 24.7-10.1 32.9-5.1 4.7-11.2 7.2-17.4 7.2zm-37.9-154.3l0.2 0.2-66.4 77c-7.6 8.8-10.2 21.3-6.8 32.6 2.8 9.2 9.1 15.8 17.3 18.2l87.4 24.8c8 2.2 16.5 0 23.1-6.2 8.6-8 12.4-20.4 10-32.2l-21.1-101.8c-2.2-10.8-9.1-18.7-18.5-21.1-8.9-2.4-18.2 0.9-25 8.7z"></path><path class="s" d="m416.6 949.4q-2.5 0-5-0.4l-99.1-18c-9.9-1.8-17.9-8.6-21.8-18.7-4.5-11.6-2.6-24.8 4.8-34.7l66.1-86.8 0.2 0.3-0.2-0.3c6.9-9.1 17.4-13.5 27.9-11.7 10.6 1.9 19.1 9.7 22.7 20.9l33.1 104.8c3.8 11.9 1.1 25.1-7.1 34.4-5.9 6.6-13.5 10.2-21.6 10.2zm-31.8-170c-8.7 0-16.9 4.2-22.7 11.9l-66 86.8c-7.3 9.6-9.2 22.6-4.8 33.9 3.9 9.9 11.6 16.6 21.3 18.3l99.2 18c9.5 1.8 19-1.7 25.9-9.6 8-9.1 10.7-22 7-33.7l-33.2-104.8c-3.5-11-11.7-18.6-22.2-20.4q-2.2-0.4-4.5-0.4z"></path><path class="t" d="m426.9 950.2q-1.4 0-2.8-0.2l-111.5-9.7c-11.4-1-21.2-8-26.4-18.7-5.6-11.6-4.6-25 2.5-35.7l64.7-97.1 0.3 0.2-0.3-0.2c6.9-10.3 18.1-15.8 29.9-14.8 11.9 1 22 8.4 26.9 19.8l46.9 106.8c5.2 11.8 3.8 25.2-3.7 35.6-6.4 8.9-16.1 14-26.5 14zm-46.4-175.6c-10.5 0-20.3 5.3-26.5 14.6l-64.7 97.1c-7 10.5-7.9 23.6-2.5 35 5.1 10.5 14.7 17.3 25.9 18.3l111.5 9.8c11.1 0.9 21.8-4.1 28.6-13.6 7.4-10.2 8.7-23.3 3.7-34.9l-46.9-106.8c-4.9-11.2-14.7-18.4-26.3-19.4q-1.4-0.1-2.8-0.1z"></path><path class="u" d="m438.1 950h-124.4c-13.3 0-25.1-6.8-31.7-18.3-6.6-11.4-6.6-25.1 0-36.5l62.2-107.8c6.6-11.4 18.4-18.2 31.7-18.2q0 0 0 0c13.2 0 25 6.8 31.6 18.2l62.2 107.8c6.6 11.4 6.6 25.1 0 36.5-6.6 11.5-18.4 18.3-31.6 18.3zm-93.6-162.4l0.3 0.2-62.2 107.7c-6.5 11.2-6.5 24.6 0 35.9 6.5 11.2 18.1 17.9 31.1 17.9h124.4c12.9 0 24.5-6.7 31-17.9 6.5-11.3 6.5-24.7 0-35.9l-62.2-107.7c-6.5-11.3-18.1-18-31-18-13 0-24.6 6.7-31.1 18z"></path></svg>