<svg xmlns="http://www.w3.org/2000/svg" version="1.2" viewBox="60.9 82.6 172.6 149.5"><defs><linearGradient id="P" gradientUnits="userSpaceOnUse"/><linearGradient id="g1" x2="1" href="#P" gradientTransform="matrix(-181.034,181.034,-156.78,-156.78,298.545,145.518)"><stop stop-color="#324c00"/><stop offset=".53" stop-color="#113d4c"/><stop offset="1" stop-color="#4c0041"/></linearGradient><linearGradient id="g2" x2="1" href="#P" gradientTransform="matrix(-171.454,171.454,-148.484,-148.484,298.724,145.34)"><stop stop-color="#b5732e"/><stop offset=".53" stop-color="#5681b5"/><stop offset="1" stop-color="#b50082"/></linearGradient></defs><style>.a{mix-blend-mode:screen;fill:url(#g1)}.b{mix-blend-mode:color-dodge;fill:url(#g2)}</style><path class="a" d="m104.1 82.6l-43.2 74.8 43.2 74.7h86.3l42.8-74.2 0.3-0.5-43.1-74.8zm114 52.2l-35.1-50.1h6.2zm-18.1 47.2l-27.2 19.1 26.9-22.6zm-105.6-49.3l27.2-19.1-26.9 22.6zm104.8 43.6l-23.3 19.5 22.7-22.7zm-103.9-37.8l23.2-19.6-22.7 22.7zm80 32l-5.7 4.1 5.7-4.8zm-56.1-26.2l5.7-4-5.7 4.8zm55.7 23.1l-4.2 3.5 4.1-4.1zm-55.2-20.1l4.2-3.5-4.1 4.1zm54.5 17.3l-2.9 2.8 2.8-3.2zm-53.8-14.5l2.9-2.8-2.8 3.3zm52.9 11.7l-1.7 2.1 1.6-2.3zm-52-9.2l1.7-2-1.6 2.3zm50.9 6.7l-0.8 1.1 0.7-1.2zm-49.8-4.3l0.8-1.1-0.7 1.2zm48.6 2.2h-0.1 0.1zm-47.4 0v-0.1 0.1zm8.9 8.5v-17.1l14.8-8.5 14.8 8.5v17.1l-14.8 8.6zm3 11.9h-0.1zm23.7 0h-0.1zm0-41h0.1zm-23.7 0h0.1zm-2.4 41h-0.1l-0.6-1.2zm24.9 2.1l-0.1 0.1-1.3-0.1zm3.5-43.1h0.2l0.5 1.2zm-24.8-2v-0.1l1.4 0.1zm-6.1 42.8l-0.2-0.1-1-2.5zm25.9 4.4l-0.2 0.2-2.5-0.5zm7.4-44.8h0.3l0.9 2.5zm-25.9-4.3l0.2-0.2 2.6 0.4zm-10.1 44.4l-0.4-0.1-1-3.9zm26.8 6.8l-0.4 0.3-3.8-1.1zm11.7-46.3l0.4 0.1 1.1 3.9zm-26.8-6.8l0.3-0.3 3.9 1zm-14.4 45.7l-0.6-0.2-0.9-5.4zm27.4 9.4l-0.4 0.4-5.2-1.9zm16.4-47.6l0.6 0.2 0.9 5.4zm-27.4-9.4l0.4-0.4 5.2 1.9zm-19.2 46.6l-0.7-0.3-0.6-7zm28 12.3l-0.6 0.4-6.4-2.9zm21.4-48.5l0.7 0.3 0.6 7zm-28-12.3l0.6-0.5 6.4 3zm-25 15v-0.9l7.5-4.3zm0 23l0.8 9.2-0.8-0.5zm29.1 24.5l-0.8 0.5-7.5-4.4zm27.5-16.7v0.9l-7.5 4.3zm0-23.1l-0.8-9.1 0.8 0.5zm-29.1-24.5l0.8-0.5 7.5 4.3zm-27.5 13.6l0.1-1.1 9.4-4.4zm-2 22.9v10.9l-0.9-0.6zm28.3 29.6l-1 0.5-8.5-6zm30.3-15.2l-0.1 1.1-9.4 4.4zm2-22.9v-10.9l0.9 0.6zm-28.3-29.6l1-0.5 8.5 6zm-30 11.8l0.2-1.3 11.4-4.2zm-5.1 35.3l-1-0.8 2.1-12zm28.1 22.1l-1.2 0.4-9.3-7.8zm33.1-13.2l-0.2 1.2-11.5 4.2zm5.1-35.3l1 0.8-2.1 12zm-28-22.1l1.2-0.4 9.3 7.8zm-32.5 9.7l0.3-1.4 13.6-3.7zm-8.4 36.6l-1.1-1.1 3.6-13.5zm27.5 25.6l-1.5 0.4-9.9-10zm35.9-10.9l-0.4 1.4-13.5 3.7zm8.4-36.6l1.1 1-3.7 13.6zm-27.4-25.6l1.4-0.4 10 9.9zm-35 7.3l0.6-1.6 15.8-2.8zm-12.2 37.6l-1.1-1.3 5.5-15zm26.6 29.3l-1.7 0.3-10.3-12.3zm38.6-8.3l-0.6 1.6-15.8 2.8zm12.1-37.7l1.1 1.3-5.4 15.1zm-26.6-29.3l1.7-0.3 10.3 12.3zm-37.3 4.5l0.8-1.7 18.1-1.6zm-16.1 38.4l-1.1-1.6 7.7-16.4zm25.2 33.1l-1.9 0.1-10.4-14.8zm41.2-5.3l-0.8 1.7-18.1 1.6zm16.1-38.4l1.1 1.6-7.7 16.4zm-25.2-33.1l2-0.1 10.4 14.8zm-39.6 1.5l1.1-1.9h20.3zm-20.2 38.8l-1.1-1.9 10.2-17.6zm23.5 37h-2.2l-10.2-17.6zm43.8-1.9l-1.1 1.9h-20.3zm20.2-38.9l1.1 1.9-10.2 17.6zm-23.5-36.9h2.2l10.2 17.6zm-41.6-2l1.3-2 22.6 2zm-24.7 38.9l-1-2.2 13-18.6zm21.3 40.9l-2.4-0.2-9.5-20.6zm46 2l-1.4 1.9-22.5-1.9zm24.7-39l1 2.2-13 18.6zm-21.4-40.9l2.4 0.3 9.6 20.5zm-43.4-5.8l1.7-2.1 24.7 4.4zm-29.4 38.6l-0.9-2.5 16.1-19.3zm18.8 44.8l-2.6-0.5-8.6-23.6zm48.1 6.2l-1.7 2-24.7-4.3zm29.3-38.6l1 2.5-16.2 19.2zm-18.7-44.8l2.6 0.5 8.6 23.6zm-45.1-10l2.1-2.1 26.8 7.2zm-34.3 37.9l-0.8-2.9 19.6-19.6zm15.7 48.7l-2.9-0.8-7.1-26.7zm49.9 10.7l-2.1 2.1-26.7-7.2zm34.2-37.9l0.8 2.9-19.6 19.6zm-15.6-48.7l2.8 0.8 7.2 26.7zm-46.4-14.5l2.5-2.1 28.6 10.4zm-27.3 89.1l-3-1.1-5.3-29.9zm51.4 15.7l-2.5 2.1-28.5-10.4zm27.2-89.1l3.1 1.1 5.2 30zm-47.3-19.4l2.9-2 30.1 14zm-36.5 91l-3.2-1.5-2.9-33.1zm52.5 21.1l-2.9 2-30.1-14.1zm36.5-90.9l3.2 1.5 2.9 33.1zm-47.8-24.6l3.3-1.9 31.4 18.1zm-49.9 32.7v-3.9l31.4-18.1zm0 21.3l3.4 38.2-3.4-2zm56.6 65.1l-3.4 1.9-31.4-18.1zm49.9-32.7v3.9l-31.4 18.1zm0-21.3l-3.3-38.2 3.3 1.9zm-51.4-68.2l3.8-1.7 32.3 22.6zm-55.2 29.7l0.4-4.2 35.7-16.6zm-1.9 62.7l-3.4-2.4 3.4-39.3zm53.4 32.9l-3.8 1.8-32.3-22.6zm55.2-29.7l-0.3 4.1-35.7 16.7zm1.8-62.7l3.4 2.4-3.4 39.3zm-47.6-35.9l4.2-1.5 32.8 27.4zm-60.6 26.3l0.8-4.5 40.1-14.6zm-7.5 65.6l-3.5-3 7.4-42zm53 39.3l-4.3 1.6-32.7-27.5zm60.6-26.2l-0.8 4.4-40.1 14.7zm7.5-65.6l3.5 2.9-7.4 42.1zm-46.8-41.9l4.8-1.3 32.7 32.7zm-65.9 22.1l1.3-4.8 44.6-11.9zm-13.8 68.1l-3.5-3.5 12-44.6zm52 46l-4.7 1.3-32.7-32.7zm65.9-22.1l-1.3 4.8-44.6 11.9zm13.8-68.1l3.5 3.5-12 44.6zm-45.2-48.1l5.2-0.9 32.1 38.2zm-71.1 17.2l1.8-4.9 49.1-8.7zm-20.6 70.2l-3.4-4.1 17-46.9zm50.5 53l-5.2 0.9-32.1-38.2zm71.1-17.2l-1.8 5-49.2 8.6zm20.7-70.2l3.4 4.1-17.1 46.9zm-43.1-54.5l5.7-0.5 30.8 44zm-76.1 11.7l2.4-5.2 53.6-4.7zm-28 71.7l-3.3-4.7 22.8-48.7zm48.1 60.1l-5.7 0.5-30.8-44.1zm76.1-11.6l-2.4 5.2-53.6 4.7zm28-71.8l3.3 4.7-22.8 48.8zm-118.1-61.1h57.9l-61 5.3zm-13 22.6l-25.9 55.5-3-5.4zm-15.9 72.8l35.1 50.1h-6.2zm112.9 50.1h-57.9l61-5.3zm13-22.6l25.9-55.5 3.1 5.3z"/><path class="b" d="m104.1 82.6l-43.2 74.8 43.2 74.7h86.3l42.8-74.2 0.3-0.5-43.1-74.8zm114 52.2l-35.1-50.1h6.2zm-18.1 47.2l-27.2 19.1 26.9-22.6zm-105.6-49.3l27.2-19.1-26.9 22.6zm104.8 43.6l-23.3 19.5 22.7-22.7zm-103.9-37.8l23.2-19.6-22.7 22.7zm80 32l-5.7 4.1 5.7-4.8zm-56.1-26.2l5.7-4-5.7 4.8zm55.7 23.1l-4.2 3.5 4.1-4.1zm-55.2-20.1l4.2-3.5-4.1 4.1zm54.5 17.3l-2.9 2.8 2.8-3.2zm-53.8-14.5l2.9-2.8-2.8 3.3zm52.9 11.7l-1.7 2.1 1.6-2.3zm-52-9.2l1.7-2-1.6 2.3zm50.9 6.7l-0.8 1.1 0.7-1.2zm-49.8-4.3l0.8-1.1-0.7 1.2zm48.6 2.2h-0.1 0.1zm-47.4 0v-0.1 0.1zm8.9 8.5v-17.1l14.8-8.5 14.8 8.5v17.1l-14.8 8.6zm3 11.9h-0.1zm23.7 0h-0.1zm0-41h0.1zm-23.7 0h0.1zm-2.4 41h-0.1l-0.6-1.2zm24.9 2.1l-0.1 0.1-1.3-0.1zm3.5-43.1h0.2l0.5 1.2zm-24.8-2v-0.1l1.4 0.1zm-6.1 42.8l-0.2-0.1-1-2.5zm25.9 4.4l-0.2 0.2-2.5-0.5zm7.4-44.8h0.3l0.9 2.5zm-25.9-4.3l0.2-0.2 2.6 0.4zm-10.1 44.4l-0.4-0.1-1-3.9zm26.8 6.8l-0.4 0.3-3.8-1.1zm11.7-46.3l0.4 0.1 1.1 3.9zm-26.8-6.8l0.3-0.3 3.9 1zm-14.4 45.7l-0.6-0.2-0.9-5.4zm27.4 9.4l-0.4 0.4-5.2-1.9zm16.4-47.6l0.6 0.2 0.9 5.4zm-27.4-9.4l0.4-0.4 5.2 1.9zm-19.2 46.6l-0.7-0.3-0.6-7zm28 12.3l-0.6 0.4-6.4-2.9zm21.4-48.5l0.7 0.3 0.6 7zm-28-12.3l0.6-0.5 6.4 3zm-25 15v-0.9l7.5-4.3zm0 23l0.8 9.2-0.8-0.5zm29.1 24.5l-0.8 0.5-7.5-4.4zm27.5-16.7v0.9l-7.5 4.3zm0-23.1l-0.8-9.1 0.8 0.5zm-29.1-24.5l0.8-0.5 7.5 4.3zm-27.5 13.6l0.1-1.1 9.4-4.4zm-2 22.9v10.9l-0.9-0.6zm28.3 29.6l-1 0.5-8.5-6zm30.3-15.2l-0.1 1.1-9.4 4.4zm2-22.9v-10.9l0.9 0.6zm-28.3-29.6l1-0.5 8.5 6zm-30 11.8l0.2-1.3 11.4-4.2zm-5.1 35.3l-1-0.8 2.1-12zm28.1 22.1l-1.2 0.4-9.3-7.8zm33.1-13.2l-0.2 1.2-11.5 4.2zm5.1-35.3l1 0.8-2.1 12zm-28-22.1l1.2-0.4 9.3 7.8zm-32.5 9.7l0.3-1.4 13.6-3.7zm-8.4 36.6l-1.1-1.1 3.6-13.5zm27.5 25.6l-1.5 0.4-9.9-10zm35.9-10.9l-0.4 1.4-13.5 3.7zm8.4-36.6l1.1 1-3.7 13.6zm-27.4-25.6l1.4-0.4 10 9.9zm-35 7.3l0.6-1.6 15.8-2.8zm-12.2 37.6l-1.1-1.3 5.5-15zm26.6 29.3l-1.7 0.3-10.3-12.3zm38.6-8.3l-0.6 1.6-15.8 2.8zm12.1-37.7l1.1 1.3-5.4 15.1zm-26.6-29.3l1.7-0.3 10.3 12.3zm-37.3 4.5l0.8-1.7 18.1-1.6zm-16.1 38.4l-1.1-1.6 7.7-16.4zm25.2 33.1l-1.9 0.1-10.4-14.8zm41.2-5.3l-0.8 1.7-18.1 1.6zm16.1-38.4l1.1 1.6-7.7 16.4zm-25.2-33.1l2-0.1 10.4 14.8zm-39.6 1.5l1.1-1.9h20.3zm-20.2 38.8l-1.1-1.9 10.2-17.6zm23.5 37h-2.2l-10.2-17.6zm43.8-1.9l-1.1 1.9h-20.3zm20.2-38.9l1.1 1.9-10.2 17.6zm-23.5-36.9h2.2l10.2 17.6zm-41.6-2l1.3-2 22.6 2zm-24.7 38.9l-1-2.2 13-18.6zm21.3 40.9l-2.4-0.2-9.5-20.6zm46 2l-1.4 1.9-22.5-1.9zm24.7-39l1 2.2-13 18.6zm-21.4-40.9l2.4 0.3 9.6 20.5zm-43.4-5.8l1.7-2.1 24.7 4.4zm-29.4 38.6l-0.9-2.5 16.1-19.3zm18.8 44.8l-2.6-0.5-8.6-23.6zm48.1 6.2l-1.7 2-24.7-4.3zm29.3-38.6l1 2.5-16.2 19.2zm-18.7-44.8l2.6 0.5 8.6 23.6zm-45.1-10l2.1-2.1 26.8 7.2zm-34.3 37.9l-0.8-2.9 19.6-19.6zm15.7 48.7l-2.9-0.8-7.1-26.7zm49.9 10.7l-2.1 2.1-26.7-7.2zm34.2-37.9l0.8 2.9-19.6 19.6zm-15.6-48.7l2.8 0.8 7.2 26.7zm-46.4-14.5l2.5-2.1 28.6 10.4zm-27.3 89.1l-3-1.1-5.3-29.9zm51.4 15.7l-2.5 2.1-28.5-10.4zm27.2-89.1l3.1 1.1 5.2 30zm-47.3-19.4l2.9-2 30.1 14zm-36.5 91l-3.2-1.5-2.9-33.1zm52.5 21.1l-2.9 2-30.1-14.1zm36.5-90.9l3.2 1.5 2.9 33.1zm-47.8-24.6l3.3-1.9 31.4 18.1zm-49.9 32.7v-3.9l31.4-18.1zm0 21.3l3.4 38.2-3.4-2zm56.6 65.1l-3.4 1.9-31.4-18.1zm49.9-32.7v3.9l-31.4 18.1zm0-21.3l-3.3-38.2 3.3 1.9zm-51.4-68.2l3.8-1.7 32.3 22.6zm-55.2 29.7l0.4-4.2 35.7-16.6zm-1.9 62.7l-3.4-2.4 3.4-39.3zm53.4 32.9l-3.8 1.8-32.3-22.6zm55.2-29.7l-0.3 4.1-35.7 16.7zm1.8-62.7l3.4 2.4-3.4 39.3zm-47.6-35.9l4.2-1.5 32.8 27.4zm-60.6 26.3l0.8-4.5 40.1-14.6zm-7.5 65.6l-3.5-3 7.4-42zm53 39.3l-4.3 1.6-32.7-27.5zm60.6-26.2l-0.8 4.4-40.1 14.7zm7.5-65.6l3.5 2.9-7.4 42.1zm-46.8-41.9l4.8-1.3 32.7 32.7zm-65.9 22.1l1.3-4.8 44.6-11.9zm-13.8 68.1l-3.5-3.5 12-44.6zm52 46l-4.7 1.3-32.7-32.7zm65.9-22.1l-1.3 4.8-44.6 11.9zm13.8-68.1l3.5 3.5-12 44.6zm-45.2-48.1l5.2-0.9 32.1 38.2zm-71.1 17.2l1.8-4.9 49.1-8.7zm-20.6 70.2l-3.4-4.1 17-46.9zm50.5 53l-5.2 0.9-32.1-38.2zm71.1-17.2l-1.8 5-49.2 8.6zm20.7-70.2l3.4 4.1-17.1 46.9zm-43.1-54.5l5.7-0.5 30.8 44zm-76.1 11.7l2.4-5.2 53.6-4.7zm-28 71.7l-3.3-4.7 22.8-48.7zm48.1 60.1l-5.7 0.5-30.8-44.1zm76.1-11.6l-2.4 5.2-53.6 4.7zm28-71.8l3.3 4.7-22.8 48.8zm-118.1-61.1h57.9l-61 5.3zm-13 22.6l-25.9 55.5-3-5.4zm-15.9 72.8l35.1 50.1h-6.2zm112.9 50.1h-57.9l61-5.3zm13-22.6l25.9-55.5 3.1 5.3z"/></svg>