<svg version="1.2" xmlns="http://www.w3.org/2000/svg" viewBox="281 517.8 189.7 189.8"><defs><linearGradient id="P" gradientUnits="userSpaceOnUse"></linearGradient><linearGradient id="g1" x2="1" href="#P" gradientTransform="matrix(182.096,0,0,182.096,284.809,521.631)"><stop stop-color="#3ddeed"></stop><stop offset="1" stop-color="#cb00dd"></stop></linearGradient><linearGradient id="g2" x2="1" href="#P" gradientTransform="matrix(179.954,0,0,179.953,285.88,522.702)"><stop stop-color="#3ddeed"></stop><stop offset="1" stop-color="#cb00dd"></stop></linearGradient><linearGradient id="g3" x2="1" href="#P" gradientTransform="matrix(152.754,0,0,152.755,299.48,536.302)"><stop stop-color="#3ddeed"></stop><stop offset="1" stop-color="#cb00dd"></stop></linearGradient><linearGradient id="g4" x2="1" href="#P" gradientTransform="matrix(189.785,0,0,189.784,280.965,517.787)"><stop stop-color="#3ddeed"></stop><stop offset="1" stop-color="#cb00dd"></stop></linearGradient><linearGradient id="g5" x2="1" href="#P" gradientTransform="matrix(158.17,0,0,158.17,296.772,533.594)"><stop stop-color="#3ddeed"></stop><stop offset="1" stop-color="#cb00dd"></stop></linearGradient><linearGradient id="g6" x2="1" href="#P" gradientTransform="matrix(176.724,0,0,176.724,287.495,524.317)"><stop stop-color="#3ddeed"></stop><stop offset="1" stop-color="#cb00dd"></stop></linearGradient><linearGradient id="g7" x2="1" href="#P" gradientTransform="matrix(184.539,0,0,184.539,283.587,520.409)"><stop stop-color="#3ddeed"></stop><stop offset="1" stop-color="#cb00dd"></stop></linearGradient><linearGradient id="g8" x2="1" href="#P" gradientTransform="matrix(142.349,0,0,142.349,304.682,541.505)"><stop stop-color="#3ddeed"></stop><stop offset="1" stop-color="#cb00dd"></stop></linearGradient><linearGradient id="g9" x2="1" href="#P" gradientTransform="matrix(188.651,0,0,188.651,281.532,518.354)"><stop stop-color="#3ddeed"></stop><stop offset="1" stop-color="#cb00dd"></stop></linearGradient><linearGradient id="g10" x2="1" href="#P" gradientTransform="matrix(166.718,0,0,166.718,292.498,529.32)"><stop stop-color="#3ddeed"></stop><stop offset="1" stop-color="#cb00dd"></stop></linearGradient><linearGradient id="g11" x2="1" href="#P" gradientTransform="matrix(170.008,0,0,170.008,290.853,527.675)"><stop stop-color="#3ddeed"></stop><stop offset="1" stop-color="#cb00dd"></stop></linearGradient><linearGradient id="g12" x2="1" href="#P" gradientTransform="matrix(187.721,0,0,187.721,281.997,518.819)"><stop stop-color="#3ddeed"></stop><stop offset="1" stop-color="#cb00dd"></stop></linearGradient><linearGradient id="g13" x2="1" href="#P" gradientTransform="matrix(137.536,0,0,137.536,307.089,543.911)"><stop stop-color="#3ddeed"></stop><stop offset="1" stop-color="#cb00dd"></stop></linearGradient><linearGradient id="g14" x2="1" href="#P" gradientTransform="matrix(186.081,0,0,186.081,282.816,519.638)"><stop stop-color="#3ddeed"></stop><stop offset="1" stop-color="#cb00dd"></stop></linearGradient><linearGradient id="g15" x2="1" href="#P" gradientTransform="matrix(173.998,0,0,173.998,288.858,525.68)"><stop stop-color="#3ddeed"></stop><stop offset="1" stop-color="#cb00dd"></stop></linearGradient><linearGradient id="g16" x2="1" href="#P" gradientTransform="matrix(161.998,0,0,161.998,294.858,531.68)"><stop stop-color="#3ddeed"></stop><stop offset="1" stop-color="#cb00dd"></stop></linearGradient><linearGradient id="g17" x2="1" href="#P" gradientTransform="matrix(189.473,0,0,189.474,281.12,517.942)"><stop stop-color="#3ddeed"></stop><stop offset="1" stop-color="#cb00dd"></stop></linearGradient><linearGradient id="g18" x2="1" href="#P" gradientTransform="matrix(148.418,0,0,148.417,301.648,538.47)"><stop stop-color="#3ddeed"></stop><stop offset="1" stop-color="#cb00dd"></stop></linearGradient><linearGradient id="g19" x2="1" href="#P" gradientTransform="matrix(182.096,0,0,182.096,284.809,521.631)"><stop stop-color="#3ddeed"></stop><stop offset="1" stop-color="#cb00dd"></stop></linearGradient><linearGradient id="g20" x2="1" href="#P" gradientTransform="matrix(179.954,0,0,179.953,285.88,522.702)"><stop stop-color="#3ddeed"></stop><stop offset="1" stop-color="#cb00dd"></stop></linearGradient><linearGradient id="g21" x2="1" href="#P" gradientTransform="matrix(152.754,0,0,152.755,299.48,536.302)"><stop stop-color="#3ddeed"></stop><stop offset="1" stop-color="#cb00dd"></stop></linearGradient></defs><style>.a{fill:url(#g1)}.b{fill:url(#g2)}.c{fill:url(#g3)}.d{fill:url(#g4)}.e{fill:url(#g5)}.f{fill:url(#g6)}.g{fill:url(#g7)}.h{fill:url(#g8)}.i{fill:url(#g9)}.j{fill:url(#g10)}.k{fill:url(#g11)}.l{fill:url(#g12)}.m{fill:url(#g13)}.n{fill:url(#g14)}.o{fill:url(#g15)}.p{fill:url(#g16)}.q{fill:url(#g17)}.r{fill:url(#g18)}.s{fill:url(#g19)}.t{fill:url(#g20)}.u{fill:url(#g21)}</style><path class="a" d="m349 703.7l-0.1-0.2-64.1-117.7 117.9-64.2 0.1 0.3 64.1 117.6zm-63.5-117.7l63.7 117 117-63.7-63.7-117z"></path><path class="b" d="m406.1 702.7l-120.2-59.8 0.1-0.2 59.6-120 120.2 59.7-0.1 0.3zm-119.5-60l119.3 59.3 59.3-119.3-119.3-59.3z"></path><path class="c" d="m319.5 689.1v-0.3l-20-132.5 132.7-20 0.1 0.2 19.9 132.5zm-19.4-132.3l19.9 131.8 131.7-19.9-19.9-131.7z"></path><path class="d" d="m373.5 707.6l-0.2-0.2-92.3-97.1 97.2-92.5 0.2 0.2 92.3 97zm-91.8-97.2l91.9 96.5 96.5-91.8-91.8-96.5z"></path><path class="e" d="m428.4 691.8l-131.6-26.6 26.6-131.6 131.5 26.6zm-130.9-27l130.6 26.4 26.3-130.6-130.6-26.4z"></path><path class="f" d="m341.2 701l-0.1-0.2-53.6-122.8 123-53.7 0.1 0.2 53.6 122.9zm-53-122.8l53.3 122.1 122.1-53.3-53.3-122.1z"></path><path class="g" d="m398.1 704.9l-0.2-0.1-114.3-69.8 70-114.6 0.2 0.1 114.3 69.9zm-113.8-70.2l113.7 69.5 69.4-113.7-113.7-69.5z"></path><path class="h" d="m313.1 683.9l-8.4-134 134-8.4 8.3 134zm-7.8-133.5l8.3 133 133-8.4-8.3-132.9z"></path><path class="i" d="m365.2 707l-0.1-0.2-83.6-104.7 0.2-0.2 104.8-83.5 0.1 0.1 83.6 104.8-0.2 0.2zm-83-104.9l83.1 104.2 104.1-83.1-83-104.2z"></path><path class="j" d="m421.3 696h-0.3l-128.5-37.9 0.1-0.3 37.9-128.5 0.2 0.1 128.5 37.9-0.1 0.2zm-128.1-38.3l127.8 37.7 37.7-127.8-127.8-37.7z"></path><path class="k" d="m333.6 697.7l-0.1-0.3-42.6-127h0.2l127-42.7 0.1 0.2 42.7 127-0.3 0.1zm-42.1-126.9l42.4 126.3 126.3-42.5-42.4-126.3z"></path><path class="l" d="m390 706.5l-108-79.7 79.7-108 108 79.7zm-107.3-79.8l107.2 79.1 79.1-107.2-107.2-79.1z"></path><path class="m" d="m441.3 681.4l-134.2-3.3v-0.2l3.3-134 134.2 3.3v0.3zm-133.7-3.8l133.2 3.3 3.3-133.2-133.2-3.3z"></path><path class="n" d="m357.1 705.7l-74.3-111.8 111.9-74.3 74.2 111.9zm-73.5-111.7l73.6 111 111-73.7-73.6-111z"></path><path class="o" d="m413.8 699.7l-0.2-0.1-124.7-49 49-124.9 0.2 0.1 124.8 48.9zm-124.4-49.3l124.1 48.7 48.6-124.1-124-48.6z"></path><path class="p" d="m326.4 693.7l-0.1-0.3-31.4-130.2 130.4-31.5 0.1 0.2 31.5 130.3zm-30.9-130.2l31.2 129.6 129.5-31.3-31.2-129.5z"></path><path class="q" d="m381.8 707.4l-0.2-0.1-100.5-88.7 0.2-0.2 88.6-100.5 0.2 0.2 100.5 88.7-0.2 0.1zm-99.9-88.8l99.9 88.1 88.1-99.9-99.9-88.1z"></path><path class="r" d="m435 686.9l-133.4-15 0.1-0.3 15-133.1 133.4 15-0.1 0.2zm-132.8-15.4l132.4 14.9 14.9-132.4-132.4-14.9z"></path><path class="s" d="m349 703.7l-0.1-0.2-64.1-117.7 117.9-64.2 0.1 0.3 64.1 117.6zm-63.5-117.7l63.7 117 117-63.7-63.7-117z"></path><path class="t" d="m406.1 702.7l-120.2-59.8 0.1-0.2 59.6-120 120.2 59.7-0.1 0.3zm-119.5-60l119.3 59.3 59.3-119.3-119.3-59.3z"></path><path class="u" d="m319.5 689.1v-0.3l-20-132.5 132.7-20 0.1 0.2 19.9 132.5zm-19.4-132.3l19.9 131.8 131.7-19.9-19.9-131.7z"></path></svg>