<svg version="1.2" xmlns="http://www.w3.org/2000/svg" viewBox="52 282.4 163.7 189.1"><defs><linearGradient id="P" gradientUnits="userSpaceOnUse"></linearGradient><linearGradient id="g1" x2="1" href="#P" gradientTransform="matrix(139.65,0,0,120.94,63.998,316.512)"><stop stop-color="#3ddeed"></stop><stop offset="1" stop-color="#cb00dd"></stop></linearGradient><linearGradient id="g2" x2="1" href="#P" gradientTransform="matrix(143.745,0,0,128.253,61.95,312.856)"><stop stop-color="#3ddeed"></stop><stop offset="1" stop-color="#cb00dd"></stop></linearGradient><linearGradient id="g3" x2="1" href="#P" gradientTransform="matrix(147.554,0,0,135.54,60.045,309.213)"><stop stop-color="#3ddeed"></stop><stop offset="1" stop-color="#cb00dd"></stop></linearGradient><linearGradient id="g4" x2="1" href="#P" gradientTransform="matrix(151.046,0,0,142.772,58.3,305.597)"><stop stop-color="#3ddeed"></stop><stop offset="1" stop-color="#cb00dd"></stop></linearGradient><linearGradient id="g5" x2="1" href="#P" gradientTransform="matrix(154.187,0,0,149.917,56.729,302.024)"><stop stop-color="#3ddeed"></stop><stop offset="1" stop-color="#cb00dd"></stop></linearGradient><linearGradient id="g6" x2="1" href="#P" gradientTransform="matrix(156.944,0,0,156.944,55.351,298.511)"><stop stop-color="#3ddeed"></stop><stop offset="1" stop-color="#cb00dd"></stop></linearGradient><linearGradient id="g7" x2="1" href="#P" gradientTransform="matrix(159.282,0,0,163.819,54.182,295.073)"><stop stop-color="#3ddeed"></stop><stop offset="1" stop-color="#cb00dd"></stop></linearGradient><linearGradient id="g8" x2="1" href="#P" gradientTransform="matrix(161.166,0,0,170.506,53.24,291.729)"><stop stop-color="#3ddeed"></stop><stop offset="1" stop-color="#cb00dd"></stop></linearGradient><linearGradient id="g9" x2="1" href="#P" gradientTransform="matrix(162.56,0,0,176.969,52.543,288.498)"><stop stop-color="#3ddeed"></stop><stop offset="1" stop-color="#cb00dd"></stop></linearGradient><linearGradient id="g10" x2="1" href="#P" gradientTransform="matrix(163.429,0,0,183.169,52.108,285.398)"><stop stop-color="#3ddeed"></stop><stop offset="1" stop-color="#cb00dd"></stop></linearGradient><linearGradient id="g11" x2="1" href="#P" gradientTransform="matrix(163.736,0,0,189.067,51.954,282.449)"><stop stop-color="#3ddeed"></stop><stop offset="1" stop-color="#cb00dd"></stop></linearGradient></defs><style>.a{fill:url(#g1)}.b{fill:url(#g2)}.c{fill:url(#g3)}.d{fill:url(#g4)}.e{fill:url(#g5)}.f{fill:url(#g6)}.g{fill:url(#g7)}.h{fill:url(#g8)}.i{fill:url(#g9)}.j{fill:url(#g10)}.k{fill:url(#g11)}</style><path class="a" d="m168.7 437.5h-69.8l-34.9-60.5 34.9-60.5h69.8l34.9 60.5zm-69.3-0.8h68.9l34.5-59.7-34.5-59.7h-68.9l-34.5 59.7z"></path><path class="b" d="m166.5 441.1l-71.9-3.8-32.6-64.1 39.1-60.3 71.9 3.7 32.7 64.1zm-71.4-4.4l71 3.7 38.7-59.7-32.3-63.3-71-3.7-38.7 59.6z"></path><path class="c" d="m164 444.8l-73.8-7.8-30.2-67.8 43.6-60 73.8 7.8 30.2 67.7zm-73.3-8.4l72.9 7.6 43.1-59.3-29.8-66.9-72.9-7.7-43.1 59.3z"></path><path class="d" d="m161.2 448.4l-75.5-12-27.4-71.4 48.1-59.4 75.5 12 27.4 71.3zm-74.9-12.6l74.6 11.8 47.6-58.7-27.1-70.6-74.6-11.8-47.6 58.7z"></path><path class="e" d="m158.2 451.9l-77.1-16.3-24.4-75 52.8-58.6 77.1 16.4 24.3 75zm-76.5-17.1l76.2 16.2 52.2-57.9-24.1-74.1-76.2-16.2-52.2 57.9z"></path><path class="f" d="m154.8 455.5l-78.4-21.1-21-78.4 57.4-57.5 78.5 21 21 78.5zm-77.9-21.6l77.7 20.8 56.8-56.9-20.8-77.6-77.6-20.8-56.9 56.8z"></path><path class="g" d="m151.2 458.9l-79.6-25.9-17.4-81.9 62.2-56 79.7 25.8 17.4 82zm-79-26.5l78.8 25.6 61.6-55.4-17.3-81.1-78.8-25.6-61.6 55.4z"></path><path class="h" d="m147.3 462.2h-0.2l-80.4-30.9-13.5-85.3 67.1-54.3 0.2 0.1 80.4 30.9 13.5 85.2zm-79.9-31.5l79.8 30.7 66.4-53.8-13.4-84.4-79.8-30.6-66.4 53.7z"></path><path class="i" d="m143.1 465.5l-81.3-36.2-9.3-88.5 72-52.3 81.3 36.2 9.3 88.5zm-80.6-36.7l80.5 35.8 71.3-51.8-9.2-87.6-80.5-35.8-71.3 51.7z"></path><path class="j" d="m138.6 468.6l-81.7-41.7v-0.2l-4.8-91.4 76.9-49.9 81.7 41.6v0.2l4.8 91.4zm-81-42.1l81 41.3 76.2-49.5-4.8-90.7-80.9-41.3-76.2 49.5z"></path><path class="k" d="m133.8 471.5l-81.8-47.3v-94.5l81.8-47.3 81.9 47.3v94.5zm-81.1-47.7l81.1 46.9 81.1-46.9v-93.6l-81.1-46.9-81.1 46.9z"></path></svg>