<svg version="1.2" xmlns="http://www.w3.org/2000/svg" viewBox="759.3 772.5 201.3 174.3"><defs><linearGradient id="P" gradientUnits="userSpaceOnUse"></linearGradient><linearGradient id="g1" x2="1" href="#P" gradientTransform="matrix(15.175,0,0,81.278,852.338,819.28)"><stop stop-color="#3ddeed"></stop><stop offset="1" stop-color="#cb00dd"></stop></linearGradient><linearGradient id="g2" x2="1" href="#P" gradientTransform="matrix(16.776,0,0,83.781,851.538,818.029)"><stop stop-color="#3ddeed"></stop><stop offset="1" stop-color="#cb00dd"></stop></linearGradient><linearGradient id="g3" x2="1" href="#P" gradientTransform="matrix(18.554,0,0,89.981,850.648,813.122)"><stop stop-color="#3ddeed"></stop><stop offset="1" stop-color="#cb00dd"></stop></linearGradient><linearGradient id="g4" x2="1" href="#P" gradientTransform="matrix(20.53,0,0,92.378,849.661,812.057)"><stop stop-color="#3ddeed"></stop><stop offset="1" stop-color="#cb00dd"></stop></linearGradient><linearGradient id="g5" x2="1" href="#P" gradientTransform="matrix(22.725,0,0,94.876,848.563,810.932)"><stop stop-color="#3ddeed"></stop><stop offset="1" stop-color="#cb00dd"></stop></linearGradient><linearGradient id="g6" x2="1" href="#P" gradientTransform="matrix(25.164,0,0,97.477,847.344,809.746)"><stop stop-color="#3ddeed"></stop><stop offset="1" stop-color="#cb00dd"></stop></linearGradient><linearGradient id="g7" x2="1" href="#P" gradientTransform="matrix(27.874,0,0,100.182,845.989,808.501)"><stop stop-color="#3ddeed"></stop><stop offset="1" stop-color="#cb00dd"></stop></linearGradient><linearGradient id="g8" x2="1" href="#P" gradientTransform="matrix(30.885,0,0,102.992,844.483,807.195)"><stop stop-color="#3ddeed"></stop><stop offset="1" stop-color="#cb00dd"></stop></linearGradient><linearGradient id="g9" x2="1" href="#P" gradientTransform="matrix(34.23,0,0,105.909,842.811,805.829)"><stop stop-color="#3ddeed"></stop><stop offset="1" stop-color="#cb00dd"></stop></linearGradient><linearGradient id="g10" x2="1" href="#P" gradientTransform="matrix(37.947,0,0,108.935,840.952,804.402)"><stop stop-color="#3ddeed"></stop><stop offset="1" stop-color="#cb00dd"></stop></linearGradient><linearGradient id="g11" x2="1" href="#P" gradientTransform="matrix(42.075,0,0,112.072,838.888,802.914)"><stop stop-color="#3ddeed"></stop><stop offset="1" stop-color="#cb00dd"></stop></linearGradient><linearGradient id="g12" x2="1" href="#P" gradientTransform="matrix(46.663,0,0,115.323,836.594,801.363)"><stop stop-color="#3ddeed"></stop><stop offset="1" stop-color="#cb00dd"></stop></linearGradient><linearGradient id="g13" x2="1" href="#P" gradientTransform="matrix(51.76,0,0,118.688,834.046,799.75)"><stop stop-color="#3ddeed"></stop><stop offset="1" stop-color="#cb00dd"></stop></linearGradient><linearGradient id="g14" x2="1" href="#P" gradientTransform="matrix(57.424,0,0,122.172,831.214,798.072)"><stop stop-color="#3ddeed"></stop><stop offset="1" stop-color="#cb00dd"></stop></linearGradient><linearGradient id="g15" x2="1" href="#P" gradientTransform="matrix(63.716,0,0,125.776,828.068,796.33)"><stop stop-color="#3ddeed"></stop><stop offset="1" stop-color="#cb00dd"></stop></linearGradient><linearGradient id="g16" x2="1" href="#P" gradientTransform="matrix(70.707,0,0,129.504,824.572,794.522)"><stop stop-color="#3ddeed"></stop><stop offset="1" stop-color="#cb00dd"></stop></linearGradient><linearGradient id="g17" x2="1" href="#P" gradientTransform="matrix(78.474,0,0,133.358,820.689,792.647)"><stop stop-color="#3ddeed"></stop><stop offset="1" stop-color="#cb00dd"></stop></linearGradient><linearGradient id="g18" x2="1" href="#P" gradientTransform="matrix(87.104,0,0,137.342,816.374,790.703)"><stop stop-color="#3ddeed"></stop><stop offset="1" stop-color="#cb00dd"></stop></linearGradient><linearGradient id="g19" x2="1" href="#P" gradientTransform="matrix(96.693,0,0,141.459,811.579,788.69)"><stop stop-color="#3ddeed"></stop><stop offset="1" stop-color="#cb00dd"></stop></linearGradient><linearGradient id="g20" x2="1" href="#P" gradientTransform="matrix(107.347,0,0,145.712,806.252,786.605)"><stop stop-color="#3ddeed"></stop><stop offset="1" stop-color="#cb00dd"></stop></linearGradient><linearGradient id="g21" x2="1" href="#P" gradientTransform="matrix(119.183,0,0,150.104,800.334,784.448)"><stop stop-color="#3ddeed"></stop><stop offset="1" stop-color="#cb00dd"></stop></linearGradient><linearGradient id="g22" x2="1" href="#P" gradientTransform="matrix(132.336,0,0,154.641,793.758,782.217)"><stop stop-color="#3ddeed"></stop><stop offset="1" stop-color="#cb00dd"></stop></linearGradient><linearGradient id="g23" x2="1" href="#P" gradientTransform="matrix(146.948,0,0,159.325,786.452,779.909)"><stop stop-color="#3ddeed"></stop><stop offset="1" stop-color="#cb00dd"></stop></linearGradient><linearGradient id="g24" x2="1" href="#P" gradientTransform="matrix(163.184,0,0,164.16,778.334,777.523)"><stop stop-color="#3ddeed"></stop><stop offset="1" stop-color="#cb00dd"></stop></linearGradient><linearGradient id="g25" x2="1" href="#P" gradientTransform="matrix(181.223,0,0,169.151,769.314,775.057)"><stop stop-color="#3ddeed"></stop><stop offset="1" stop-color="#cb00dd"></stop></linearGradient><linearGradient id="g26" x2="1" href="#P" gradientTransform="matrix(201.267,0,0,174.302,759.292,772.509)"><stop stop-color="#3ddeed"></stop><stop offset="1" stop-color="#cb00dd"></stop></linearGradient></defs><style>.a{fill:url(#g1)}.b{fill:url(#g2)}.c{fill:url(#g3)}.d{fill:url(#g4)}.e{fill:url(#g5)}.f{fill:url(#g6)}.g{fill:url(#g7)}.h{fill:url(#g8)}.i{fill:url(#g9)}.j{fill:url(#g10)}.k{fill:url(#g11)}.l{fill:url(#g12)}.m{fill:url(#g13)}.n{fill:url(#g14)}.o{fill:url(#g15)}.p{fill:url(#g16)}.q{fill:url(#g17)}.r{fill:url(#g18)}.s{fill:url(#g19)}.t{fill:url(#g20)}.u{fill:url(#g21)}.v{fill:url(#g22)}.w{fill:url(#g23)}.x{fill:url(#g24)}.y{fill:url(#g25)}.z{fill:url(#g26)}</style><path class="a" d="m867.5 900.6h-15.2l7.3-81.3h0.7zm-14.4-0.8h13.6l-6.8-76.2z"></path><path class="b" d="m868.3 901.8h-16.8l8.1-83.8h0.7zm-16-0.7h15.2l-7.6-79.1z"></path><path class="c" d="m869.2 903.1h-18.6l9.3-90zm-17.7-0.7h16.9l-8.5-81.9z"></path><path class="d" d="m870.2 904.4h-20.5l10.2-92.3zm-19.7-0.8h18.9l-9.4-84.8z"></path><path class="e" d="m871.3 905.8h-22.7l11.3-94.9zm-21.9-0.7h21.1l-10.5-87.8z"></path><path class="f" d="m872.5 907.2h-25.2l12.6-97.5zm-24.3-0.7h23.5l-11.8-90.9z"></path><path class="g" d="m873.9 908.7h-27.9l13.9-100.2zm-27-0.7h26.2l-13.1-94z"></path><path class="h" d="m875.4 910.2h-30.9l15.4-103zm-30-0.8h29.2l-14.6-97.1z"></path><path class="i" d="m877 911.7h-34.2l17.1-105.9zm-33.3-0.7h32.4l-16.2-100.5z"></path><path class="j" d="m878.9 913.3h-37.9l18.9-108.9zm-37-0.7h36.1l-18-103.9z"></path><path class="k" d="m881 915h-42.1l21-112.1zm-41.1-0.7h40.2l-20.1-107.3z"></path><path class="l" d="m883.3 916.7h-46.7l23.3-115.3zm-45.7-0.8h44.8l-22.4-110.8z"></path><path class="m" d="m885.8 918.4h-51.8l25.9-118.7zm-50.8-0.7h49.9l-25-114.4z"></path><path class="n" d="m888.6 920.2h-57.4l28.7-122.1zm-56.5-0.8h55.6l-27.8-118.1z"></path><path class="o" d="m891.8 922.1h-63.7l31.8-125.8zm-62.7-0.7h61.8l-30.9-122z"></path><path class="p" d="m895.3 924h-70.7l35.3-129.5zm-69.7-0.7h68.7l-34.3-125.9z"></path><path class="q" d="m899.2 926h-78.5l39.2-133.4zm-77.4-0.7h76.4l-38.2-130z"></path><path class="r" d="m903.5 928h-87.1l43.5-137.3zm-86.1-0.7h85.1l-42.5-134.2z"></path><path class="s" d="m908.3 930.1h-96.7l48.3-141.4zm-95.6-0.8h94.6l-47.3-138.3z"></path><path class="t" d="m913.6 932.3h-107.3l53.6-145.7zm-106.2-0.7h105.2l-52.6-142.8z"></path><path class="u" d="m919.5 934.6h-119.2l0.2-0.6 59.4-149.6zm-118.1-0.7h117l-58.5-147.3z"></path><path class="v" d="m926.1 936.9h-132.3l66.1-154.7zm-131.2-0.7h130.1l-65-152z"></path><path class="w" d="m933.4 939.2h-146.9l73.4-159.3zm-145.8-0.7h144.7l-72.3-156.8z"></path><path class="x" d="m941.5 941.7h-163.2l81.6-164.2zm-161.9-0.7h160.7l-80.4-161.8z"></path><path class="y" d="m950.5 944.2h-181.2l90.6-169.1zm-179.9-0.8h178.7l-89.4-166.8z"></path><path class="z" d="m960.6 946.8h-201.3l100.6-174.3zm-199.9-0.7h198.6l-99.3-172.1z"></path></svg>