<svg version="1.2" xmlns="http://www.w3.org/2000/svg" viewBox="521.8 516.5 192.2 192.3"><defs><linearGradient id="P" gradientUnits="userSpaceOnUse"></linearGradient><linearGradient id="g1" x2="1" href="#P" gradientTransform="matrix(157.522,0,0,157.522,539.13,533.918)"><stop stop-color="#3ddeed"></stop><stop offset="1" stop-color="#cb00dd"></stop></linearGradient><linearGradient id="g2" x2="1" href="#P" gradientTransform="matrix(163.079,0,0,163.079,536.352,531.14)"><stop stop-color="#3ddeed"></stop><stop offset="1" stop-color="#cb00dd"></stop></linearGradient><linearGradient id="g3" x2="1" href="#P" gradientTransform="matrix(189.931,0,0,189.931,522.926,517.713)"><stop stop-color="#3ddeed"></stop><stop offset="1" stop-color="#cb00dd"></stop></linearGradient><linearGradient id="g4" x2="1" href="#P" gradientTransform="matrix(186.587,0,0,186.587,524.598,519.386)"><stop stop-color="#3ddeed"></stop><stop offset="1" stop-color="#cb00dd"></stop></linearGradient><linearGradient id="g5" x2="1" href="#P" gradientTransform="matrix(153.577,0,0,153.577,541.103,535.891)"><stop stop-color="#3ddeed"></stop><stop offset="1" stop-color="#cb00dd"></stop></linearGradient><linearGradient id="g6" x2="1" href="#P" gradientTransform="matrix(166.536,0,0,166.536,534.624,529.411)"><stop stop-color="#3ddeed"></stop><stop offset="1" stop-color="#cb00dd"></stop></linearGradient><linearGradient id="g7" x2="1" href="#P" gradientTransform="matrix(190.865,0,0,190.865,522.459,517.246)"><stop stop-color="#3ddeed"></stop><stop offset="1" stop-color="#cb00dd"></stop></linearGradient><linearGradient id="g8" x2="1" href="#P" gradientTransform="matrix(184.85,0,0,184.849,525.466,520.254)"><stop stop-color="#3ddeed"></stop><stop offset="1" stop-color="#cb00dd"></stop></linearGradient><linearGradient id="g9" x2="1" href="#P" gradientTransform="matrix(149.444,0,0,149.444,543.169,537.957)"><stop stop-color="#3ddeed"></stop><stop offset="1" stop-color="#cb00dd"></stop></linearGradient><linearGradient id="g10" x2="1" href="#P" gradientTransform="matrix(169.789,0,0,169.79,532.997,527.784)"><stop stop-color="#3ddeed"></stop><stop offset="1" stop-color="#cb00dd"></stop></linearGradient><linearGradient id="g11" x2="1" href="#P" gradientTransform="matrix(191.567,0,0,191.567,522.108,516.896)"><stop stop-color="#3ddeed"></stop><stop offset="1" stop-color="#cb00dd"></stop></linearGradient><linearGradient id="g12" x2="1" href="#P" gradientTransform="matrix(182.887,0,0,182.887,526.448,521.236)"><stop stop-color="#3ddeed"></stop><stop offset="1" stop-color="#cb00dd"></stop></linearGradient><linearGradient id="g13" x2="1" href="#P" gradientTransform="matrix(145.13,0,0,145.13,545.326,540.114)"><stop stop-color="#3ddeed"></stop><stop offset="1" stop-color="#cb00dd"></stop></linearGradient><linearGradient id="g14" x2="1" href="#P" gradientTransform="matrix(172.837,0,0,172.837,531.473,526.261)"><stop stop-color="#3ddeed"></stop><stop offset="1" stop-color="#cb00dd"></stop></linearGradient><linearGradient id="g15" x2="1" href="#P" gradientTransform="matrix(192.035,0,0,192.035,521.874,516.661)"><stop stop-color="#3ddeed"></stop><stop offset="1" stop-color="#cb00dd"></stop></linearGradient><linearGradient id="g16" x2="1" href="#P" gradientTransform="matrix(180.702,0,0,180.702,527.541,522.328)"><stop stop-color="#3ddeed"></stop><stop offset="1" stop-color="#cb00dd"></stop></linearGradient><linearGradient id="g17" x2="1" href="#P" gradientTransform="matrix(140.639,0,0,140.639,547.572,542.36)"><stop stop-color="#3ddeed"></stop><stop offset="1" stop-color="#cb00dd"></stop></linearGradient><linearGradient id="g18" x2="1" href="#P" gradientTransform="matrix(175.674,0,0,175.674,530.054,524.842)"><stop stop-color="#3ddeed"></stop><stop offset="1" stop-color="#cb00dd"></stop></linearGradient><linearGradient id="g19" x2="1" href="#P" gradientTransform="matrix(192.269,0,0,192.27,521.757,516.544)"><stop stop-color="#3ddeed"></stop><stop offset="1" stop-color="#cb00dd"></stop></linearGradient><linearGradient id="g20" x2="1" href="#P" gradientTransform="matrix(178.296,0,0,178.296,528.743,523.531)"><stop stop-color="#3ddeed"></stop><stop offset="1" stop-color="#cb00dd"></stop></linearGradient><linearGradient id="g21" x2="1" href="#P" gradientTransform="matrix(135.976,0,0,135.976,549.903,544.691)"><stop stop-color="#3ddeed"></stop><stop offset="1" stop-color="#cb00dd"></stop></linearGradient></defs><style>.a{fill:url(#g1)}.b{fill:url(#g2)}.c{fill:url(#g3)}.d{fill:url(#g4)}.e{fill:url(#g5)}.f{fill:url(#g6)}.g{fill:url(#g7)}.h{fill:url(#g8)}.i{fill:url(#g9)}.j{fill:url(#g10)}.k{fill:url(#g11)}.l{fill:url(#g12)}.m{fill:url(#g13)}.n{fill:url(#g14)}.o{fill:url(#g15)}.p{fill:url(#g16)}.q{fill:url(#g17)}.r{fill:url(#g18)}.s{fill:url(#g19)}.t{fill:url(#g20)}.u{fill:url(#g21)}</style><path class="a" d="m673 691.4h-0.1l-133.8-23.6 0.1-0.1 23.5-133.8h0.2l133.8 23.6-0.1 0.2zm-133.5-23.9l133.2 23.5 23.5-133.2-133.2-23.5z"></path><path class="b" d="m566.9 694.2v-0.1l-30.5-132.4 132.4-30.6 0.1 0.2 30.5 132.3zm-30.1-132.2l30.4 131.8 131.8-30.4-30.4-131.8z"></path><path class="c" d="m602.9 707.6l-80-110 110-79.9 80 110zm-79.5-109.9l79.5 109.4 109.5-79.5-79.5-109.4z"></path><path class="d" d="m641.2 706l-0.2-0.1-116.4-70 0.1-0.1 69.9-116.4 0.2 0.1 116.4 69.9-0.1 0.2zm-116.1-70.2l116 69.7 69.7-116-116-69.7z"></path><path class="e" d="m675.8 689.5l-0.2-0.1-134.5-18.9 18.9-134.6h0.2l134.5 18.9zm-134.3-19.2l134 18.8 18.8-133.9-134-18.9z"></path><path class="f" d="m569.8 695.9v-0.1l-35.2-131.2 131.4-35.2v0.2l35.2 131.2zm-34.8-131.1l35 130.6 130.7-35-35-130.7z"></path><path class="g" d="m606.2 708.1l-0.1-0.1-83.6-107 0.1-0.1 107-83.7 0.1 0.2 83.6 107-0.1 0.1zm-83.2-107.1l83.2 106.6 106.7-83.3-83.3-106.6z"></path><path class="h" d="m644.4 705.1l-0.2-0.1-118.7-65.8v-0.2l65.9-118.7h0.1l118.8 65.9-0.1 0.1zm-118.4-66l118.3 65.6 65.6-118.4-118.3-65.6z"></path><path class="i" d="m678.4 687.4h-0.2l-135-14.2v-0.2l14.2-135h0.2l135 14.2v0.1zm-134.9-14.5l134.6 14.2 14.1-134.6-134.5-14.1z"></path><path class="j" d="m572.8 697.6l-0.1-0.2-39.7-129.9h0.2l129.8-39.7 0.1 0.1 39.7 129.9-0.2 0.1zm-39.3-129.8l39.5 129.3 129.4-39.5-39.5-129.4z"></path><path class="k" d="m609.5 708.5l-0.1-0.2-87.3-104 0.1-0.1 104.1-87.3 0.1 0.1 87.3 104.1-0.2 0.1zm-86.9-104.2l87 103.7 103.6-87-86.9-103.6z"></path><path class="l" d="m647.6 704.1l-121.2-61.7 61.8-121.2 121.1 61.8zm-120.7-61.9l120.6 61.4 61.4-120.5-120.5-61.5z"></path><path class="m" d="m681 685.2l-135.7-9.4v-0.2l9.5-135.5 135.7 9.5-0.1 0.2zm-135.2-9.8l134.9 9.4 9.5-135-135-9.4z"></path><path class="n" d="m575.7 699.1v-0.2l-44.2-128.4 128.5-44.2 0.1 0.1 44.2 128.4zm-43.8-128.3l44 127.9 127.9-44.1-44-127.9z"></path><path class="o" d="m612.9 708.7l-0.2-0.1-90.8-101 101-90.9 0.1 0.1 90.9 100.9zm-90.5-101l90.5 100.5 100.6-90.5-90.6-100.5z"></path><path class="p" d="m650.8 703h-0.2l-123.1-57.4 57.5-123.3 0.2 0.1 123 57.4zm-122.7-57.6l122.6 57.1 57.2-122.6-122.7-57.2z"></path><path class="q" d="m683.5 683h-0.2l-135.7-4.7v-0.2l4.7-135.7h0.2l135.7 4.7v0.2zm-135.5-5.1l135.2 4.7 4.7-135.2-135.2-4.7z"></path><path class="r" d="m578.8 700.5l-0.1-0.1-48.6-126.8 0.1-0.1 126.8-48.7 0.1 0.2 48.6 126.8h-0.1zm-48.3-126.7l48.5 126.3 126.3-48.5-48.5-126.3z"></path><path class="s" d="m616.2 708.8l-0.1-0.1-94.3-97.7 0.1-0.1 97.7-94.4 0.1 0.2 94.3 97.7-0.1 0.1zm-94-97.8l94 97.3 97.3-94-93.9-97.3z"></path><path class="t" d="m653.9 701.8l-125.2-53.1 53.2-125.2 125.1 53.2v0.1zm-124.7-53.3l124.5 52.9 52.9-124.6-124.6-52.8z"></path><path class="u" d="m685.9 680.7h-136v-136h136zm-135.7-0.3h135.3v-135.3h-135.3z"></path></svg>