<svg version="1.2" xmlns="http://www.w3.org/2000/svg" viewBox="114 170.1 71 71"><defs><linearGradient id="P" gradientUnits="userSpaceOnUse"></linearGradient><linearGradient id="g1" x2="1" href="#P" gradientTransform="matrix(-70.201,70.201,-70.2,-70.2,218.435,207.635)"><stop stop-color="#324c00"></stop><stop offset=".53" stop-color="#113d4c"></stop><stop offset="1" stop-color="#4c0041"></stop></linearGradient><linearGradient id="g2" x2="1" href="#P" gradientTransform="matrix(-72.301,72.301,-72.301,-72.301,220.898,205.173)"><stop stop-color="#b5732e"></stop><stop offset=".53" stop-color="#5681b5"></stop><stop offset="1" stop-color="#b50082"></stop></linearGradient></defs><style>.a{mix-blend-mode:screen;fill:url(#g1)}.b{mix-blend-mode:color-dodge;fill:url(#g2)}</style><path class="a" d="m114 170.1v71h71v-71zm70 57.2l-9.9-56.2h9.9zm-8.7-18.9l2.9 4.9-27.9 16.1zm-51.8-5.6l-2.8-4.9 27.9-16.1zm32.8 6l-4.2 1.5 3.9-2.2zm-13.8-6.5l4.2-1.5-3.9 2.3zm1 2l-0.3-0.5 2.5-1.4zm6.4-4.1l4.8 5.8-5.8 4.8-4.8-5.7zm-1.7 11.1l-0.4 0.3-1.4-2.5zm7.1-4.7l0.2 0.5-2.5 1.4zm-4.6-7.1l0.4-0.3 1.4 2.5zm-3.7 12.5l-0.7 0.3-1.5-4.2zm5-13.2l0.7-0.3 1.5 4.2zm-5.3 32.5l-4.9 2.8-16.1-27.9zm5.6-51.7l4.9-2.9 16.1 27.9zm-10.4 19.8v-1.5h8.4zm0 5.3l1.5 8.5h-1.5zm15.3 6.9v1.5h-8.5zm0-5.4l-1.4-8.4h1.4zm-37-9.2l-2.4-6.4 36.6-13.3zm21.1 37.8l-6.5 2.3-13.3-36.6zm37.9-21l2.3 6.4-36.6 13.3zm-21.1-37.8l6.5-2.3 13.3 36.6zm-15.6 18l0.8-2.4 13.1 4.8zm-4.2 18.7l-2.3-0.8 4.8-13.1zm18.7 4.2l-0.8 2.3-13.2-4.8zm4.2-18.7l2.3 0.8-4.7 13.2zm-17.7-7.5l1.6-2.7 15.1 8.8zm-8.5 20.9l-2.7-1.6 8.8-15.1zm20.9 8.5l-1.6 2.7-15.1-8.8zm8.5-20.9l2.7 1.6-8.8 15.1zm-19-12.1l2.5-2.9 16.5 13.9zm-14 22.6l-2.9-2.5 13.9-16.5zm22.6 14l-2.4 2.9-16.6-13.9zm14-22.6l2.9 2.4-13.9 16.6zm-19.7-17.8l3.6-3 17 20.3zm-20.6 23.5l-3-3.6 20.2-17zm23.5 20.7l-3.6 3-17-20.3zm20.7-23.5l3 3.6-20.3 17zm-18-5.8l1.1-0.2 1.1 6.2zm-11.5 2l6.1-1.1-5.9 2.2zm3.3 12.4l-1.1 0.2-1.1-6.2zm11.5-2l-6.1 1.1 5.9-2.2zm1.2-12.9l1.9 0.4-1.9 10.8zm-16.3-0.9l0.4-1.9 10.8 1.9zm-0.9 16.2l-1.9-0.3 1.9-10.8zm16.2 0.9l-0.3 1.9-10.8-1.9zm7.9-41.1l8.2-1.4 8.1 46.2zm-48.1 16.8l-1.4-8.1 46.2-8.1zm16.8 48l-8.1 1.5-8.2-46.2zm48.1-16.9l1.5 8.2-46.2 8.1zm-10.8-50.1l-56.2 9.9v-9.9zm-56.2 12.8l9.9 56.2h-9.9zm12.8 56.3l56.2-10v10z"></path><path class="b" d="m114 170.1v71h71v-71zm70 57.2l-9.9-56.2h9.9zm-8.7-18.9l2.9 4.9-27.9 16.1zm-51.8-5.6l-2.8-4.9 27.9-16.1zm32.8 6l-4.2 1.5 3.9-2.2zm-13.8-6.5l4.2-1.5-3.9 2.3zm1 2l-0.3-0.5 2.5-1.4zm6.4-4.1l4.8 5.8-5.8 4.8-4.8-5.7zm-1.7 11.1l-0.4 0.3-1.4-2.5zm7.1-4.7l0.2 0.5-2.5 1.4zm-4.6-7.1l0.4-0.3 1.4 2.5zm-3.7 12.5l-0.7 0.3-1.5-4.2zm5-13.2l0.7-0.3 1.5 4.2zm-5.3 32.5l-4.9 2.8-16.1-27.9zm5.6-51.7l4.9-2.9 16.1 27.9zm-10.4 19.8v-1.5h8.4zm0 5.3l1.5 8.5h-1.5zm15.3 6.9v1.5h-8.5zm0-5.4l-1.4-8.4h1.4zm-37-9.2l-2.4-6.4 36.6-13.3zm21.1 37.8l-6.5 2.3-13.3-36.6zm37.9-21l2.3 6.4-36.6 13.3zm-21.1-37.8l6.5-2.3 13.3 36.6zm-15.6 18l0.8-2.4 13.1 4.8zm-4.2 18.7l-2.3-0.8 4.8-13.1zm18.7 4.2l-0.8 2.3-13.2-4.8zm4.2-18.7l2.3 0.8-4.7 13.2zm-17.7-7.5l1.6-2.7 15.1 8.8zm-8.5 20.9l-2.7-1.6 8.8-15.1zm20.9 8.5l-1.6 2.7-15.1-8.8zm8.5-20.9l2.7 1.6-8.8 15.1zm-19-12.1l2.5-2.9 16.5 13.9zm-14 22.6l-2.9-2.5 13.9-16.5zm22.6 14l-2.4 2.9-16.6-13.9zm14-22.6l2.9 2.4-13.9 16.6zm-19.7-17.8l3.6-3 17 20.3zm-20.6 23.5l-3-3.6 20.2-17zm23.5 20.7l-3.6 3-17-20.3zm20.7-23.5l3 3.6-20.3 17zm-18-5.8l1.1-0.2 1.1 6.2zm-11.5 2l6.1-1.1-5.9 2.2zm3.3 12.4l-1.1 0.2-1.1-6.2zm11.5-2l-6.1 1.1 5.9-2.2zm1.2-12.9l1.9 0.4-1.9 10.8zm-16.3-0.9l0.4-1.9 10.8 1.9zm-0.9 16.2l-1.9-0.3 1.9-10.8zm16.2 0.9l-0.3 1.9-10.8-1.9zm7.9-41.1l8.2-1.4 8.1 46.2zm-48.1 16.8l-1.4-8.1 46.2-8.1zm16.8 48l-8.1 1.5-8.2-46.2zm48.1-16.9l1.5 8.2-46.2 8.1zm-10.8-50.1l-56.2 9.9v-9.9zm-56.2 12.8l9.9 56.2h-9.9zm12.8 56.3l56.2-10v10z"></path></svg>