<svg version="1.2" xmlns="http://www.w3.org/2000/svg" viewBox="27.9 40.4 71 70.9"><defs><linearGradient id="P" gradientUnits="userSpaceOnUse"></linearGradient><linearGradient id="g1" x2="1" href="#P" gradientTransform="matrix(-73.839,73.839,-73.839,-73.839,135.274,74.957)"><stop stop-color="#324c00"></stop><stop offset=".53" stop-color="#113d4c"></stop><stop offset="1" stop-color="#4c0041"></stop></linearGradient><linearGradient id="g2" x2="1" href="#P" gradientTransform="matrix(-79.936,79.936,-79.936,-79.936,137.908,72.324)"><stop stop-color="#b5732e"></stop><stop offset=".53" stop-color="#5681b5"></stop><stop offset="1" stop-color="#b50082"></stop></linearGradient></defs><style>.a{mix-blend-mode:screen;fill:url(#g1)}.b{mix-blend-mode:color-dodge;fill:url(#g2)}</style><path class="a" d="m88.5 50.8c-6.7-6.7-15.6-10.4-25.1-10.4-9.5 0-18.4 3.7-25.1 10.4-6.7 6.7-10.4 15.6-10.4 25.1 0 9.4 3.7 18.3 10.4 25.1 6.7 6.7 15.6 10.3 25.1 10.3 9.5 0 18.4-3.6 25.1-10.3 6.7-6.8 10.4-15.7 10.4-25.1 0-9.5-3.7-18.4-10.4-25.1zm-27.1 8.2c-4.1-2.6-7.9-4-11-4-2.1 0-3.8 0.7-5 2q-0.3 0.4-0.6 0.9c0.8-2.9 2.9-4.4 6-4.4 3.6 0 8.3 2 13.1 5.8 4.9 4 9.4 9.2 12.7 14.5-4-5.7-9.5-11.1-15.2-14.8zm4 33.7c4.1 2.6 7.9 4 11 4 2.1 0 3.8-0.7 5-2q0.3-0.4 0.6-0.9c-0.8 2.9-2.9 4.5-6 4.5-3.7 0-8.3-2.1-13.1-5.9-4.9-4-9.4-9.2-12.7-14.5 4 5.7 9.4 11.1 15.2 14.8zm-6.5-32.8c-3.1-1.5-6-2.4-8.4-2.4-2.2 0-4 0.8-5 2.2q-0.4 0.5-0.6 1.1 0.2-2 1.3-3.2 1.4-1.6 4.2-1.6c2.9 0 6.5 1.3 10.5 3.8 4.3 2.8 8.4 6.5 11.9 10.7-4.1-4.4-9-8.2-13.9-10.6zm8.9 31.9c3.2 1.6 6.1 2.4 8.5 2.4 2.2 0 3.9-0.8 5-2.2q0.4-0.5 0.6-1.1-0.2 2-1.3 3.2-1.4 1.6-4.2 1.6c-2.9 0-6.5-1.3-10.5-3.8-4.3-2.8-8.5-6.5-11.9-10.7 4.1 4.4 9 8.2 13.8 10.6zm-21.7-17.3c2.9 6.9 7.4 13.4 12.6 18.5 5.6 5.5 11.6 8.7 16.3 8.7 2.3 0 4.1-0.7 5.6-2-1.7 2.2-4.1 3.4-7 3.4-5.6 0-12.4-4.3-18.3-11.4-5.8-7-9.8-15.6-11.3-23.3q0.8 3 2.1 6.1zm2.6 2.6c3.5 6.2 8.4 11.9 13.6 16 5 4 9.8 6.1 13.7 6.1 2.4 0 4.4-0.9 5.6-2.5-1.3 2.7-3.5 4-6.6 4-4.5 0-10.2-3-15.6-8.3-5.5-5.4-9.9-12.1-12.6-18.7q0.8 1.7 1.9 3.4zm29.4-2.5c-3.5-6.2-8.4-11.9-13.6-16-5-3.9-9.8-6.1-13.7-6.1-2.4 0-4.4 0.9-5.6 2.5 1.2-2.6 3.5-4 6.6-4 4.4 0 10.2 3 15.6 8.4 5.5 5.3 9.9 12.1 12.6 18.6q-0.9-1.7-1.9-3.4zm2.5 2.6c-2.8-6.9-7.3-13.4-12.5-18.5-5.7-5.5-11.6-8.7-16.3-8.7-2.3 0-4.2 0.7-5.6 2 1.7-2.2 4.1-3.4 7-3.4 5.6 0 12.4 4.3 18.3 11.4 5.8 7 9.8 15.6 11.2 23.3q-0.7-3-2.1-6.1zm-38.2-14.5c0.1 2.7 0.5 5.7 1.4 8.8 1.9 7.4 5.7 14.8 10.7 20.8 3.1 3.7 6.4 6.7 9.8 8.7 3.2 2 6.4 3 9.3 3q2.9 0 5.2-1.4c-2 1.7-4.4 2.6-7.1 2.6-7 0-15-5.7-21-14.9-5.8-8.8-8.7-19.2-8.3-27.6zm41.9 26.4c0-2.8-0.5-5.7-1.3-8.9-1.9-7.4-5.7-14.7-10.8-20.8-3-3.7-6.4-6.7-9.7-8.7-3.2-2-6.5-3-9.3-3q-2.9 0-5.2 1.4c2-1.7 4.4-2.6 7.1-2.6 7 0 15 5.7 21 14.9 5.8 8.8 8.7 19.2 8.2 27.7zm-42.7-21.1c0.8 7.8 3.7 15.9 8.3 22.9 3.1 4.7 6.7 8.6 10.6 11.2 3.8 2.7 7.6 4 11.2 4q2.4 0 4.5-0.8-3.1 1.7-6.8 1.7c-8.8 0-18.1-7.4-23.8-18.9-5.3-10.6-6.2-22.5-3.3-31.1-0.8 3.2-1.1 6.9-0.7 11zm43.6 15.7c-0.8-7.7-3.7-15.9-8.3-22.8-3.1-4.8-6.7-8.7-10.6-11.3-3.8-2.6-7.7-4-11.2-4q-2.4 0-4.5 0.8 3.1-1.7 6.8-1.7c8.7 0 18.1 7.4 23.8 18.9 5.3 10.7 6.2 22.5 3.3 31.1 0.8-3.2 1.1-6.9 0.7-11zm-45.3-19.6c-0.8 7.9 1 16.6 4.8 24.4 5.9 11.8 15.6 19.5 24.7 19.5q1.6 0 3-0.3-2.6 0.8-5.4 0.8c-11.1 0-22.1-9.7-26.8-23.5-4.2-12.3-2.5-25 3.4-33.1-2 3.3-3.3 7.4-3.7 12.2zm47 23.5c0.8-7.9-1-16.6-4.9-24.4-5.8-11.8-15.5-19.4-24.6-19.4q-1.6 0-3 0.2 2.6-0.7 5.4-0.7c11.1 0 22.1 9.6 26.8 23.4 4.1 12.3 2.5 25-3.4 33.1 2-3.3 3.3-7.4 3.7-12.2zm-48.3-27.7c-2.5 7.8-2.2 16.9 0.7 25.4 2.4 7.1 6.3 13.2 11.4 17.5 5 4.3 10.8 6.6 16.3 6.6q0.3 0 0.6 0-1.4 0.2-2.8 0.2c-14.4 0-27.4-12.3-30.2-28.7-1.6-8.9-0.1-17.8 4.3-25 2-3.5 4.6-6.3 7.5-8.5-3.5 3-6.2 7.3-7.8 12.5zm49.6 32c2.4-7.9 2.2-16.9-0.7-25.5-2.4-7.1-6.4-13.1-11.4-17.5-5-4.3-10.8-6.6-16.3-6.6q-0.3 0-0.7 0 1.5-0.1 2.9-0.1c14.3 0 27.3 12.3 30.2 28.6 1.6 8.9 0.1 17.8-4.3 25-2 3.5-4.6 6.3-7.5 8.5 3.5-3 6.1-7.3 7.8-12.4zm-59.3-16c0-14.3 8.7-26.6 21.1-31.9-4.8 2.4-8.9 6.3-12 11.4-4.4 7.4-6 16.6-4.4 25.7 1.5 8.2 5.4 15.7 11.2 21.1 4.9 4.6 10.9 7.4 17 8.1-18.3-0.8-32.9-15.9-32.9-34.4zm47.9 31.8c4.8-2.4 8.9-6.3 11.9-11.4 4.5-7.4 6.1-16.6 4.5-25.7-1.5-8.2-5.5-15.7-11.2-21.1-4.9-4.6-10.9-7.4-17-8.1 18.3 0.8 32.9 16 32.9 34.5 0 14.2-8.7 26.5-21.1 31.8zm-19.5-40.6q-1.9 0-3.4 0.5c-2.2 0.6-3.6 1.9-3.9 3.5q-0.1 0.7-0.1 1.4c-0.4-1.2-0.5-2.3-0.2-3.2 0.5-1.4 2.1-2.3 4.5-2.5q0.5 0 1.1 0c1.4 0 2.8 0.1 4.3 0.5q-1.2-0.2-2.3-0.2zm14.1 18.8q0.7 0 1.3 0c2.8-0.3 4.6-1.4 5.3-3.2q0.3-0.7 0.2-1.6c0.5 1.3 0.5 2.5 0 3.4-0.7 1.4-2.4 2.1-5 2.1q-0.4 0-1 0c-2-0.2-4.2-0.7-6.4-1.5 1.9 0.5 3.9 0.8 5.6 0.8zm-16.1-20.1q-0.6 0-1.2 0.1c-2.8 0.2-4.7 1.3-5.3 3.1q-0.3 0.7-0.3 1.6c-0.4-1.3-0.4-2.4 0.1-3.3 0.6-1.4 2.4-2.2 4.9-2.2q0.5 0 1.1 0c2 0.2 4.2 0.7 6.4 1.5-1.9-0.5-3.9-0.8-5.7-0.8zm16.9 21.7q0.5 0.1 1 0.1c3 0 5-1 5.9-2.7q0.3-0.8 0.4-1.6c0.3 1.3 0.2 2.4-0.3 3.3-0.7 1.3-2.3 2-4.5 2q-1.5 0-3.3-0.4c-2.5-0.5-5.2-1.6-7.9-3 3 1.3 6 2.2 8.7 2.3zm-17.6-23.3q-0.5-0.1-1.1-0.1c-2.9 0-5 1-5.8 2.7q-0.4 0.8-0.4 1.7c-0.3-1.4-0.2-2.5 0.2-3.4 0.8-1.3 2.3-2 4.6-2q1.5 0 3.3 0.4c2.5 0.5 5.2 1.6 7.9 3-3-1.3-6-2.1-8.7-2.3zm25.9 27.3c-0.8 1.1-2.3 1.7-4.2 1.7-2.2 0-5-0.8-8-2.3-3.7-1.7-7.4-4.4-10.7-7.4 3.9 3.1 8.1 5.7 12.2 7.1q3.3 1.2 5.9 1.2c2.4 0 4.2-0.8 5.1-2.3q0.4-0.6 0.6-1.3 0 2-0.9 3.3zm-34.2-31.3c0.8-1.1 2.3-1.7 4.2-1.7 2.2 0 5 0.8 8 2.3 3.7 1.8 7.3 4.4 10.6 7.4-3.8-3.1-8.1-5.7-12.1-7.1q-3.3-1.2-5.9-1.2c-2.4 0-4.2 0.8-5.1 2.3q-0.4 0.6-0.6 1.3 0-2 0.9-3.3zm33.7 28.8c-0.8 1.2-2.3 1.8-4.3 1.8q-2.4 0-5.6-1.1c-3-1.1-6.2-2.8-9.2-4.9 3.4 2.1 7 3.6 10.3 4.4q1.9 0.4 3.5 0.4c2.6 0 4.5-0.9 5.4-2.5q0.3-0.7 0.5-1.5c0.1 1.4 0 2.5-0.6 3.4zm-33.2-26.3c0.7-1.2 2.2-1.8 4.3-1.8q2.4 0 5.6 1.1c3 1.1 6.2 2.8 9.2 5-3.4-2.1-7-3.7-10.3-4.4q-1.9-0.5-3.5-0.5c-2.6 0-4.5 0.9-5.4 2.5q-0.4 0.7-0.5 1.5c-0.2-1.4 0-2.5 0.6-3.4zm22.6 13.5q0-0.3 0-0.7 0-0.3-0.1-0.6 0.1 0.6 0.1 1.3zm-12-0.6q0 0.3 0 0.6 0 0.3 0.1 0.6-0.1-0.6-0.1-1.2zm2.3-3.4c0.9-1 2.1-1.5 3.4-1.6q0.1 0 0.2 0c2.7 0 5 2.2 5.1 5 0.1 1.5-0.4 2.8-1.3 3.9-0.9 1-2.1 1.6-3.4 1.6-2.8 0.2-5.2-2.1-5.3-5-0.1-1.4 0.4-2.8 1.3-3.9zm10.6 4.4q0.2-1.2-0.2-2.4c0.5 1.1 0.6 2.2 0.2 3.3q-0.3 0.7-0.7 1.3 0.5-1 0.7-2.2zm-13.8-1.5q-0.2 1.2 0.2 2.4c-0.5-1.1-0.6-2.2-0.2-3.3q0.3-0.7 0.7-1.3-0.5 1-0.7 2.2zm14.7 2.8c0.4-1.1 0.4-2.3 0.1-3.3q0.2 0.3 0.3 0.7c0.4 1.2 0.2 2.4-0.5 3.4q-0.6 0.9-1.6 1.5c0.8-0.7 1.3-1.4 1.7-2.3zm-15.6-4c-0.4 1-0.4 2.2-0.1 3.3q-0.2-0.4-0.3-0.8c-0.4-1.2-0.2-2.4 0.5-3.4q0.6-0.9 1.5-1.5c-0.7 0.7-1.2 1.5-1.6 2.4zm16.3 5.4c0.8-1.3 1-2.6 0.7-4q0.4 0.8 0.5 1.6c0.2 1.2-0.3 2.3-1.3 3.2-0.6 0.6-1.4 1-2.4 1.3 1-0.5 1.9-1.3 2.5-2.1zm-17-6.9c-0.8 1.3-1.1 2.6-0.7 4q-0.4-0.8-0.5-1.6c-0.2-1.2 0.3-2.3 1.3-3.2 0.6-0.5 1.4-1 2.4-1.3-1.1 0.5-1.9 1.3-2.5 2.1zm17.6 8.4c1.2-1.1 1.7-2.5 1.6-4.1q-0.1-0.2-0.1-0.4 0.6 1.2 0.5 2.2c0 1.3-0.8 2.4-2.1 3.1-1 0.5-2.1 0.8-3.4 1 1.4-0.4 2.6-1 3.5-1.8zm-18.2-9.9c-1.2 1.1-1.8 2.5-1.6 4.1q0.1 0.2 0.1 0.4-0.6-1.2-0.5-2.2c0-1.3 0.8-2.3 2.1-3.1 1-0.5 2.1-0.8 3.4-0.9-1.4 0.3-2.6 0.9-3.5 1.7zm18.5 11.5c1.7-0.9 2.6-2.2 2.7-3.8q0-0.5-0.1-0.9c0.5 0.9 0.6 1.9 0.5 2.7-0.3 1.3-1.4 2.3-3.3 2.8q-1.4 0.4-3.1 0.4-0.6 0-1.2 0c1.7-0.1 3.3-0.5 4.5-1.2zm-18.8-13.1c-1.7 0.9-2.6 2.2-2.7 3.8q0 0.5 0.1 0.9c-0.5-0.9-0.6-1.8-0.5-2.7 0.3-1.3 1.4-2.3 3.2-2.8q1.4-0.4 3.2-0.4 0.6 0 1.2 0c-1.8 0.1-3.3 0.5-4.5 1.2zm15.5 15.3q1.9 0 3.4-0.5c2.2-0.6 3.5-1.8 3.9-3.5q0.1-0.7 0.1-1.4c0.4 1.2 0.5 2.3 0.2 3.2-0.5 1.4-2.1 2.3-4.5 2.5q-0.5 0.1-1.2 0.1c-1.3 0-2.7-0.2-4.2-0.6q1.1 0.2 2.3 0.2z"></path><path class="b" d="m88.5 50.8c-6.7-6.7-15.6-10.4-25.1-10.4-9.5 0-18.4 3.7-25.1 10.4-6.7 6.7-10.4 15.6-10.4 25.1 0 9.4 3.7 18.3 10.4 25.1 6.7 6.7 15.6 10.3 25.1 10.3 9.5 0 18.4-3.6 25.1-10.3 6.7-6.8 10.4-15.7 10.4-25.1 0-9.5-3.7-18.4-10.4-25.1zm-27.1 8.2c-4.1-2.6-7.9-4-11-4-2.1 0-3.8 0.7-5 2q-0.3 0.4-0.6 0.9c0.8-2.9 2.9-4.4 6-4.4 3.6 0 8.3 2 13.1 5.8 4.9 4 9.4 9.2 12.7 14.5-4-5.7-9.5-11.1-15.2-14.8zm4 33.7c4.1 2.6 7.9 4 11 4 2.1 0 3.8-0.7 5-2q0.3-0.4 0.6-0.9c-0.8 2.9-2.9 4.5-6 4.5-3.7 0-8.3-2.1-13.1-5.9-4.9-4-9.4-9.2-12.7-14.5 4 5.7 9.4 11.1 15.2 14.8zm-6.5-32.8c-3.1-1.5-6-2.4-8.4-2.4-2.2 0-4 0.8-5 2.2q-0.4 0.5-0.6 1.1 0.2-2 1.3-3.2 1.4-1.6 4.2-1.6c2.9 0 6.5 1.3 10.5 3.8 4.3 2.8 8.4 6.5 11.9 10.7-4.1-4.4-9-8.2-13.9-10.6zm8.9 31.9c3.2 1.6 6.1 2.4 8.5 2.4 2.2 0 3.9-0.8 5-2.2q0.4-0.5 0.6-1.1-0.2 2-1.3 3.2-1.4 1.6-4.2 1.6c-2.9 0-6.5-1.3-10.5-3.8-4.3-2.8-8.5-6.5-11.9-10.7 4.1 4.4 9 8.2 13.8 10.6zm-21.7-17.3c2.9 6.9 7.4 13.4 12.6 18.5 5.6 5.5 11.6 8.7 16.3 8.7 2.3 0 4.1-0.7 5.6-2-1.7 2.2-4.1 3.4-7 3.4-5.6 0-12.4-4.3-18.3-11.4-5.8-7-9.8-15.6-11.3-23.3q0.8 3 2.1 6.1zm2.6 2.6c3.5 6.2 8.4 11.9 13.6 16 5 4 9.8 6.1 13.7 6.1 2.4 0 4.4-0.9 5.6-2.5-1.3 2.7-3.5 4-6.6 4-4.5 0-10.2-3-15.6-8.3-5.5-5.4-9.9-12.1-12.6-18.7q0.8 1.7 1.9 3.4zm29.4-2.5c-3.5-6.2-8.4-11.9-13.6-16-5-3.9-9.8-6.1-13.7-6.1-2.4 0-4.4 0.9-5.6 2.5 1.2-2.6 3.5-4 6.6-4 4.4 0 10.2 3 15.6 8.4 5.5 5.3 9.9 12.1 12.6 18.6q-0.9-1.7-1.9-3.4zm2.5 2.6c-2.8-6.9-7.3-13.4-12.5-18.5-5.7-5.5-11.6-8.7-16.3-8.7-2.3 0-4.2 0.7-5.6 2 1.7-2.2 4.1-3.4 7-3.4 5.6 0 12.4 4.3 18.3 11.4 5.8 7 9.8 15.6 11.2 23.3q-0.7-3-2.1-6.1zm-38.2-14.5c0.1 2.7 0.5 5.7 1.4 8.8 1.9 7.4 5.7 14.8 10.7 20.8 3.1 3.7 6.4 6.7 9.8 8.7 3.2 2 6.4 3 9.3 3q2.9 0 5.2-1.4c-2 1.7-4.4 2.6-7.1 2.6-7 0-15-5.7-21-14.9-5.8-8.8-8.7-19.2-8.3-27.6zm41.9 26.4c0-2.8-0.5-5.7-1.3-8.9-1.9-7.4-5.7-14.7-10.8-20.8-3-3.7-6.4-6.7-9.7-8.7-3.2-2-6.5-3-9.3-3q-2.9 0-5.2 1.4c2-1.7 4.4-2.6 7.1-2.6 7 0 15 5.7 21 14.9 5.8 8.8 8.7 19.2 8.2 27.7zm-42.7-21.1c0.8 7.8 3.7 15.9 8.3 22.9 3.1 4.7 6.7 8.6 10.6 11.2 3.8 2.7 7.6 4 11.2 4q2.4 0 4.5-0.8-3.1 1.7-6.8 1.7c-8.8 0-18.1-7.4-23.8-18.9-5.3-10.6-6.2-22.5-3.3-31.1-0.8 3.2-1.1 6.9-0.7 11zm43.6 15.7c-0.8-7.7-3.7-15.9-8.3-22.8-3.1-4.8-6.7-8.7-10.6-11.3-3.8-2.6-7.7-4-11.2-4q-2.4 0-4.5 0.8 3.1-1.7 6.8-1.7c8.7 0 18.1 7.4 23.8 18.9 5.3 10.7 6.2 22.5 3.3 31.1 0.8-3.2 1.1-6.9 0.7-11zm-45.3-19.6c-0.8 7.9 1 16.6 4.8 24.4 5.9 11.8 15.6 19.5 24.7 19.5q1.6 0 3-0.3-2.6 0.8-5.4 0.8c-11.1 0-22.1-9.7-26.8-23.5-4.2-12.3-2.5-25 3.4-33.1-2 3.3-3.3 7.4-3.7 12.2zm47 23.5c0.8-7.9-1-16.6-4.9-24.4-5.8-11.8-15.5-19.4-24.6-19.4q-1.6 0-3 0.2 2.6-0.7 5.4-0.7c11.1 0 22.1 9.6 26.8 23.4 4.1 12.3 2.5 25-3.4 33.1 2-3.3 3.3-7.4 3.7-12.2zm-48.3-27.7c-2.5 7.8-2.2 16.9 0.7 25.4 2.4 7.1 6.3 13.2 11.4 17.5 5 4.3 10.8 6.6 16.3 6.6q0.3 0 0.6 0-1.4 0.2-2.8 0.2c-14.4 0-27.4-12.3-30.2-28.7-1.6-8.9-0.1-17.8 4.3-25 2-3.5 4.6-6.3 7.5-8.5-3.5 3-6.2 7.3-7.8 12.5zm49.6 32c2.4-7.9 2.2-16.9-0.7-25.5-2.4-7.1-6.4-13.1-11.4-17.5-5-4.3-10.8-6.6-16.3-6.6q-0.3 0-0.7 0 1.5-0.1 2.9-0.1c14.3 0 27.3 12.3 30.2 28.6 1.6 8.9 0.1 17.8-4.3 25-2 3.5-4.6 6.3-7.5 8.5 3.5-3 6.1-7.3 7.8-12.4zm-59.3-16c0-14.3 8.7-26.6 21.1-31.9-4.8 2.4-8.9 6.3-12 11.4-4.4 7.4-6 16.6-4.4 25.7 1.5 8.2 5.4 15.7 11.2 21.1 4.9 4.6 10.9 7.4 17 8.1-18.3-0.8-32.9-15.9-32.9-34.4zm47.9 31.8c4.8-2.4 8.9-6.3 11.9-11.4 4.5-7.4 6.1-16.6 4.5-25.7-1.5-8.2-5.5-15.7-11.2-21.1-4.9-4.6-10.9-7.4-17-8.1 18.3 0.8 32.9 16 32.9 34.5 0 14.2-8.7 26.5-21.1 31.8zm-19.5-40.6q-1.9 0-3.4 0.5c-2.2 0.6-3.6 1.9-3.9 3.5q-0.1 0.7-0.1 1.4c-0.4-1.2-0.5-2.3-0.2-3.2 0.5-1.4 2.1-2.3 4.5-2.5q0.5 0 1.1 0c1.4 0 2.8 0.1 4.3 0.5q-1.2-0.2-2.3-0.2zm14.1 18.8q0.7 0 1.3 0c2.8-0.3 4.6-1.4 5.3-3.2q0.3-0.7 0.2-1.6c0.5 1.3 0.5 2.5 0 3.4-0.7 1.4-2.4 2.1-5 2.1q-0.4 0-1 0c-2-0.2-4.2-0.7-6.4-1.5 1.9 0.5 3.9 0.8 5.6 0.8zm-16.1-20.1q-0.6 0-1.2 0.1c-2.8 0.2-4.7 1.3-5.3 3.1q-0.3 0.7-0.3 1.6c-0.4-1.3-0.4-2.4 0.1-3.3 0.6-1.4 2.4-2.2 4.9-2.2q0.5 0 1.1 0c2 0.2 4.2 0.7 6.4 1.5-1.9-0.5-3.9-0.8-5.7-0.8zm16.9 21.7q0.5 0.1 1 0.1c3 0 5-1 5.9-2.7q0.3-0.8 0.4-1.6c0.3 1.3 0.2 2.4-0.3 3.3-0.7 1.3-2.3 2-4.5 2q-1.5 0-3.3-0.4c-2.5-0.5-5.2-1.6-7.9-3 3 1.3 6 2.2 8.7 2.3zm-17.6-23.3q-0.5-0.1-1.1-0.1c-2.9 0-5 1-5.8 2.7q-0.4 0.8-0.4 1.7c-0.3-1.4-0.2-2.5 0.2-3.4 0.8-1.3 2.3-2 4.6-2q1.5 0 3.3 0.4c2.5 0.5 5.2 1.6 7.9 3-3-1.3-6-2.1-8.7-2.3zm25.9 27.3c-0.8 1.1-2.3 1.7-4.2 1.7-2.2 0-5-0.8-8-2.3-3.7-1.7-7.4-4.4-10.7-7.4 3.9 3.1 8.1 5.7 12.2 7.1q3.3 1.2 5.9 1.2c2.4 0 4.2-0.8 5.1-2.3q0.4-0.6 0.6-1.3 0 2-0.9 3.3zm-34.2-31.3c0.8-1.1 2.3-1.7 4.2-1.7 2.2 0 5 0.8 8 2.3 3.7 1.8 7.3 4.4 10.6 7.4-3.8-3.1-8.1-5.7-12.1-7.1q-3.3-1.2-5.9-1.2c-2.4 0-4.2 0.8-5.1 2.3q-0.4 0.6-0.6 1.3 0-2 0.9-3.3zm33.7 28.8c-0.8 1.2-2.3 1.8-4.3 1.8q-2.4 0-5.6-1.1c-3-1.1-6.2-2.8-9.2-4.9 3.4 2.1 7 3.6 10.3 4.4q1.9 0.4 3.5 0.4c2.6 0 4.5-0.9 5.4-2.5q0.3-0.7 0.5-1.5c0.1 1.4 0 2.5-0.6 3.4zm-33.2-26.3c0.7-1.2 2.2-1.8 4.3-1.8q2.4 0 5.6 1.1c3 1.1 6.2 2.8 9.2 5-3.4-2.1-7-3.7-10.3-4.4q-1.9-0.5-3.5-0.5c-2.6 0-4.5 0.9-5.4 2.5q-0.4 0.7-0.5 1.5c-0.2-1.4 0-2.5 0.6-3.4zm22.6 13.5q0-0.3 0-0.7 0-0.3-0.1-0.6 0.1 0.6 0.1 1.3zm-12-0.6q0 0.3 0 0.6 0 0.3 0.1 0.6-0.1-0.6-0.1-1.2zm2.3-3.4c0.9-1 2.1-1.5 3.4-1.6q0.1 0 0.2 0c2.7 0 5 2.2 5.1 5 0.1 1.5-0.4 2.8-1.3 3.9-0.9 1-2.1 1.6-3.4 1.6-2.8 0.2-5.2-2.1-5.3-5-0.1-1.4 0.4-2.8 1.3-3.9zm10.6 4.4q0.2-1.2-0.2-2.4c0.5 1.1 0.6 2.2 0.2 3.3q-0.3 0.7-0.7 1.3 0.5-1 0.7-2.2zm-13.8-1.5q-0.2 1.2 0.2 2.4c-0.5-1.1-0.6-2.2-0.2-3.3q0.3-0.7 0.7-1.3-0.5 1-0.7 2.2zm14.7 2.8c0.4-1.1 0.4-2.3 0.1-3.3q0.2 0.3 0.3 0.7c0.4 1.2 0.2 2.4-0.5 3.4q-0.6 0.9-1.6 1.5c0.8-0.7 1.3-1.4 1.7-2.3zm-15.6-4c-0.4 1-0.4 2.2-0.1 3.3q-0.2-0.4-0.3-0.8c-0.4-1.2-0.2-2.4 0.5-3.4q0.6-0.9 1.5-1.5c-0.7 0.7-1.2 1.5-1.6 2.4zm16.3 5.4c0.8-1.3 1-2.6 0.7-4q0.4 0.8 0.5 1.6c0.2 1.2-0.3 2.3-1.3 3.2-0.6 0.6-1.4 1-2.4 1.3 1-0.5 1.9-1.3 2.5-2.1zm-17-6.9c-0.8 1.3-1.1 2.6-0.7 4q-0.4-0.8-0.5-1.6c-0.2-1.2 0.3-2.3 1.3-3.2 0.6-0.5 1.4-1 2.4-1.3-1.1 0.5-1.9 1.3-2.5 2.1zm17.6 8.4c1.2-1.1 1.7-2.5 1.6-4.1q-0.1-0.2-0.1-0.4 0.6 1.2 0.5 2.2c0 1.3-0.8 2.4-2.1 3.1-1 0.5-2.1 0.8-3.4 1 1.4-0.4 2.6-1 3.5-1.8zm-18.2-9.9c-1.2 1.1-1.8 2.5-1.6 4.1q0.1 0.2 0.1 0.4-0.6-1.2-0.5-2.2c0-1.3 0.8-2.3 2.1-3.1 1-0.5 2.1-0.8 3.4-0.9-1.4 0.3-2.6 0.9-3.5 1.7zm18.5 11.5c1.7-0.9 2.6-2.2 2.7-3.8q0-0.5-0.1-0.9c0.5 0.9 0.6 1.9 0.5 2.7-0.3 1.3-1.4 2.3-3.3 2.8q-1.4 0.4-3.1 0.4-0.6 0-1.2 0c1.7-0.1 3.3-0.5 4.5-1.2zm-18.8-13.1c-1.7 0.9-2.6 2.2-2.7 3.8q0 0.5 0.1 0.9c-0.5-0.9-0.6-1.8-0.5-2.7 0.3-1.3 1.4-2.3 3.2-2.8q1.4-0.4 3.2-0.4 0.6 0 1.2 0c-1.8 0.1-3.3 0.5-4.5 1.2zm15.5 15.3q1.9 0 3.4-0.5c2.2-0.6 3.5-1.8 3.9-3.5q0.1-0.7 0.1-1.4c0.4 1.2 0.5 2.3 0.2 3.2-0.5 1.4-2.1 2.3-4.5 2.5q-0.5 0.1-1.2 0.1c-1.3 0-2.7-0.2-4.2-0.6q1.1 0.2 2.3 0.2z"></path></svg>