<svg version="1.2" xmlns="http://www.w3.org/2000/svg" viewBox="285.8 38.6 180.1 180.2"><defs><linearGradient id="P" gradientUnits="userSpaceOnUse"></linearGradient><linearGradient id="g1" x2="1" href="#P" gradientTransform="matrix(96.806,0,0,101.048,327.454,78.193)"><stop stop-color="#3ddeed"></stop><stop offset="1" stop-color="#cb00dd"></stop></linearGradient><linearGradient id="g2" x2="1" href="#P" gradientTransform="matrix(103.416,0,0,102.425,324.149,77.505)"><stop stop-color="#3ddeed"></stop><stop offset="1" stop-color="#cb00dd"></stop></linearGradient><linearGradient id="g3" x2="1" href="#P" gradientTransform="matrix(110.088,0,0,103.474,320.813,76.98)"><stop stop-color="#3ddeed"></stop><stop offset="1" stop-color="#cb00dd"></stop></linearGradient><linearGradient id="g4" x2="1" href="#P" gradientTransform="matrix(116.742,0,0,104.278,317.486,76.578)"><stop stop-color="#3ddeed"></stop><stop offset="1" stop-color="#cb00dd"></stop></linearGradient><linearGradient id="g5" x2="1" href="#P" gradientTransform="matrix(123.347,0,0,104.713,314.183,76.361)"><stop stop-color="#3ddeed"></stop><stop offset="1" stop-color="#cb00dd"></stop></linearGradient><linearGradient id="g6" x2="1" href="#P" gradientTransform="matrix(129.718,0,0,104.92,310.998,76.257)"><stop stop-color="#3ddeed"></stop><stop offset="1" stop-color="#cb00dd"></stop></linearGradient><linearGradient id="g7" x2="1" href="#P" gradientTransform="matrix(136.02,0,0,104.974,307.847,76.23)"><stop stop-color="#3ddeed"></stop><stop offset="1" stop-color="#cb00dd"></stop></linearGradient><linearGradient id="g8" x2="1" href="#P" gradientTransform="matrix(142.081,0,0,104.977,304.817,76.229)"><stop stop-color="#3ddeed"></stop><stop offset="1" stop-color="#cb00dd"></stop></linearGradient><linearGradient id="g9" x2="1" href="#P" gradientTransform="matrix(147.855,0,0,105.047,301.929,76.197)"><stop stop-color="#3ddeed"></stop><stop offset="1" stop-color="#cb00dd"></stop></linearGradient><linearGradient id="g10" x2="1" href="#P" gradientTransform="matrix(153.265,0,0,105.361,299.224,76.037)"><stop stop-color="#3ddeed"></stop><stop offset="1" stop-color="#cb00dd"></stop></linearGradient><linearGradient id="g11" x2="1" href="#P" gradientTransform="matrix(158.267,0,0,106.091,296.723,75.674)"><stop stop-color="#3ddeed"></stop><stop offset="1" stop-color="#cb00dd"></stop></linearGradient><linearGradient id="g12" x2="1" href="#P" gradientTransform="matrix(162.812,0,0,107.48,294.451,74.981)"><stop stop-color="#3ddeed"></stop><stop offset="1" stop-color="#cb00dd"></stop></linearGradient><linearGradient id="g13" x2="1" href="#P" gradientTransform="matrix(166.893,0,0,109.779,292.411,73.829)"><stop stop-color="#3ddeed"></stop><stop offset="1" stop-color="#cb00dd"></stop></linearGradient><linearGradient id="g14" x2="1" href="#P" gradientTransform="matrix(170.425,0,0,113.227,290.644,72.103)"><stop stop-color="#3ddeed"></stop><stop offset="1" stop-color="#cb00dd"></stop></linearGradient><linearGradient id="g15" x2="1" href="#P" gradientTransform="matrix(173.399,0,0,118.034,289.157,69.702)"><stop stop-color="#3ddeed"></stop><stop offset="1" stop-color="#cb00dd"></stop></linearGradient><linearGradient id="g16" x2="1" href="#P" gradientTransform="matrix(175.805,0,0,124.361,287.954,66.542)"><stop stop-color="#3ddeed"></stop><stop offset="1" stop-color="#cb00dd"></stop></linearGradient><linearGradient id="g17" x2="1" href="#P" gradientTransform="matrix(177.651,0,0,132.314,287.031,62.563)"><stop stop-color="#3ddeed"></stop><stop offset="1" stop-color="#cb00dd"></stop></linearGradient><linearGradient id="g18" x2="1" href="#P" gradientTransform="matrix(178.943,0,0,141.901,286.386,57.772)"><stop stop-color="#3ddeed"></stop><stop offset="1" stop-color="#cb00dd"></stop></linearGradient><linearGradient id="g19" x2="1" href="#P" gradientTransform="matrix(179.639,0,0,153.119,286.037,52.159)"><stop stop-color="#3ddeed"></stop><stop offset="1" stop-color="#cb00dd"></stop></linearGradient><linearGradient id="g20" x2="1" href="#P" gradientTransform="matrix(180.042,0,0,165.893,285.838,45.769)"><stop stop-color="#3ddeed"></stop><stop offset="1" stop-color="#cb00dd"></stop></linearGradient><linearGradient id="g21" x2="1" href="#P" gradientTransform="matrix(180.137,0,0,180.137,285.789,38.648)"><stop stop-color="#3ddeed"></stop><stop offset="1" stop-color="#cb00dd"></stop></linearGradient></defs><style>.a{fill:url(#g1)}.b{fill:url(#g2)}.c{fill:url(#g3)}.d{fill:url(#g4)}.e{fill:url(#g5)}.f{fill:url(#g6)}.g{fill:url(#g7)}.h{fill:url(#g8)}.i{fill:url(#g9)}.j{fill:url(#g10)}.k{fill:url(#g11)}.l{fill:url(#g12)}.m{fill:url(#g13)}.n{fill:url(#g14)}.o{fill:url(#g15)}.p{fill:url(#g16)}.q{fill:url(#g17)}.r{fill:url(#g18)}.s{fill:url(#g19)}.t{fill:url(#g20)}.u{fill:url(#g21)}</style><path class="a" d="m338.4 179.2c-3.4 0-6.2-0.9-8.1-2.9-4.6-4.7-3.6-14.9 2.8-28 12.5-25.5 41.7-55.2 65.2-66.1 10.8-4.9 18.9-5.3 23.1-1.1 4.6 4.7 3.6 15-2.8 28-12.4 25.6-41.7 55.2-65.2 66.1-5.8 2.7-10.9 4-15 4zm60-96.7l0.1 0.2c-23.4 10.9-52.5 40.4-64.9 65.8-6.3 12.9-7.4 22.9-2.9 27.5 4 4 12 3.6 22.5-1.3 23.4-10.8 52.5-40.3 65-65.8 6.2-12.9 7.3-22.9 2.8-27.4-4-4.1-11.9-3.6-22.5 1.2z"></path><path class="b" d="m335.9 179.9c-4 0-7.1-1.1-9.1-3.4-4.8-5.4-3-16.6 4.7-30.6 14.7-26.5 46.4-55.8 70.8-65.4 10.7-4.2 18.7-4 22.6 0.5 4.8 5.4 3 16.5-4.7 30.5-14.7 26.5-46.4 55.8-70.8 65.4-5.1 2-9.7 3-13.5 3zm79.9-101.9c-3.7 0-8.2 1-13.3 3-24.3 9.6-55.9 38.8-70.5 65.1-7.7 13.9-9.4 24.8-4.8 30 3.7 4.3 11.6 4.4 22 0.3 24.3-9.5 55.9-38.7 70.5-65.1 7.7-13.8 9.4-24.8 4.9-30-2-2.2-5-3.3-8.8-3.3z"></path><path class="c" d="m333.7 180.5c-4.8 0-8.4-1.4-10.5-4.2-4.8-6.1-2.3-18.2 7-33.2 16.9-27.2 51.1-56 76.2-64 10.6-3.4 18.4-2.7 22.1 2 4.8 6.2 2.3 18.3-7 33.2-16.9 27.3-51.1 56-76.2 64-4.4 1.5-8.3 2.2-11.6 2.2zm84.3-103c-3.2 0-7.1 0.7-11.5 2.1-25 8-59 36.6-75.8 63.8-9.2 14.7-11.8 26.6-7.1 32.6 3.5 4.5 11.2 5.2 21.6 1.8 25-8 59-36.6 75.9-63.8 9.1-14.7 11.7-26.6 7-32.5-2-2.7-5.5-4-10.1-4z"></path><path class="d" d="m331.6 180.9c-5.6 0-9.7-1.7-12-5.1-4.8-7-1.3-20 9.5-35.8 19.2-27.9 55.8-55.8 81.5-62.1 10.6-2.6 18-1.3 21.5 3.7 4.8 7 1.4 20-9.5 35.8-19.2 27.9-55.8 55.8-81.5 62.1q-5.3 1.4-9.5 1.4zm88.6-103.8q-4.2 0-9.5 1.3c-25.6 6.3-62 34.1-81.2 61.9-10.7 15.6-14.1 28.4-9.5 35.2 3.4 4.9 10.6 6.1 21 3.5 25.6-6.3 62-34 81.2-61.9 10.7-15.6 14.2-28.4 9.5-35.2-2.2-3.2-6.2-4.8-11.5-4.8z"></path><path class="e" d="m329.9 181.1c-6.7 0-11.4-2.1-13.9-6.1-4.7-7.9-0.3-21.9 12.3-38.4 21.6-28.5 60.4-55.2 86.6-59.6v0.3-0.3c10.3-1.8 17.5 0.1 20.8 5.5 4.7 7.8 0.3 21.8-12.3 38.4-21.6 28.4-60.4 55.1-86.6 59.5q-3.7 0.7-6.9 0.7zm91.9-104.2q-3.1 0-6.8 0.6c-26.1 4.4-64.8 31-86.3 59.4-12.2 16.1-16.8 30.2-12.2 37.8 3.1 5.1 10.1 6.9 20.3 5.2 26-4.4 64.7-31 86.2-59.3 12.2-16.2 16.8-30.3 12.2-37.8-2.3-3.9-6.9-5.9-13.4-5.9z"></path><path class="f" d="m328.7 181.2c-8 0-13.6-2.6-16.2-7.5-4.5-8.7 1.2-24.1 15.3-41 24-28.7 65-54 91.4-56.3 10.1-0.9 17 1.7 20 7.3 4.5 8.8-1.2 24.1-15.3 41-23.9 28.7-65 54-91.4 56.3q-2 0.2-3.8 0.2zm90.6-104.5v0.3c-26.4 2.3-67.2 27.4-91.1 56.1-14 16.7-19.7 31.8-15.2 40.4 2.9 5.4 9.6 7.8 19.4 7 26.4-2.3 67.2-27.5 91.1-56.1 14-16.8 19.7-31.9 15.2-40.4-2.8-5.5-9.6-7.9-19.4-7z"></path><path class="g" d="m328.1 181.2q0 0 0 0c-9.8 0-16.4-3.2-19-9.1-4.3-9.9 2.6-26.2 18.5-43.6 26.4-28.8 69.5-52.3 96-52.3q0 0 0 0c9.8 0 16.4 3.2 19 9.2 4.3 9.8-2.6 26.1-18.5 43.5-26.4 28.8-69.4 52.3-96 52.3zm95.5-104.4c-26.4 0-69.3 23.3-95.6 52.1-15.8 17.2-22.7 33.3-18.4 42.9 2.5 5.8 8.9 8.9 18.5 8.9q0 0 0 0c26.4 0 69.3-23.4 95.6-52.1 15.8-17.3 22.7-33.4 18.4-43-2.5-5.8-8.9-8.8-18.5-8.8q0 0 0 0z"></path><path class="h" d="m328.1 181.2q-2.3 0-4.4-0.2c-9.4-0.9-15.6-4.7-17.9-11.1-4-11 4.3-28.2 22-45.9 28.8-28.8 73.8-50.1 100.2-47.6 9.4 0.9 15.6 4.8 17.9 11.1 4 11.1-4.2 28.3-22 46-27.2 27.2-68.9 47.7-95.8 47.7zm95.5-104.4c-26.7 0-68.3 20.4-95.4 47.5-17.6 17.6-25.8 34.6-21.9 45.4 2.2 6.2 8.2 9.9 17.4 10.8 26.4 2.5 71.1-18.8 99.8-47.4 17.6-17.6 25.8-34.5 21.9-45.4-2.2-6.1-8.2-9.9-17.4-10.7q-2.2-0.2-4.4-0.2z"></path><path class="i" d="m328.9 181.2q-5.1 0-9.6-0.8c-9-1.8-14.8-6.4-16.7-13.2-3.4-12.3 6.2-30.3 25.8-48.2 31.2-28.3 77.8-47.2 104-41.9 9 1.8 14.8 6.3 16.7 13.1 3.4 12.4-6.2 30.4-25.8 48.2-27.7 25.2-67.5 42.8-94.4 42.8zm93.9-104.5c-26.8 0-66.5 17.6-94 42.7-19.5 17.7-29.1 35.5-25.7 47.7 1.8 6.6 7.5 11 16.3 12.8q4.4 0.8 9.5 0.8c26.8 0 66.5-17.6 94.1-42.7 19.4-17.7 29-35.5 25.6-47.6-1.8-6.6-7.5-11-16.3-12.8q-4.4-0.9-9.5-0.9z"></path><path class="j" d="m330.5 181.4c-5.7 0-10.9-0.7-15.5-2.1-8.6-2.8-14-8.1-15.4-15.4-2.7-13.7 8.5-32.5 29.8-50.1 33.6-27.8 81.7-43.8 107.3-35.6 8.7 2.7 14 8 15.4 15.3 2.7 13.8-8.5 32.5-29.8 50.2-27.6 22.8-65.1 37.7-91.8 37.7zm90.6-104.8c-26.5 0-63.8 14.8-91.3 37.6-21.2 17.5-32.3 36.1-29.7 49.6 1.4 7.1 6.6 12.3 15.1 15 25.4 8.1 73.3-7.9 106.8-35.5 21.1-17.6 32.2-36.1 29.6-49.7-1.4-7.1-6.6-12.2-15.1-14.9-4.5-1.5-9.7-2.1-15.4-2.1z"></path><path class="k" d="m333.2 181.8c-8.6 0-16.2-1.4-22.3-4.1-8.3-3.8-13.2-9.9-14-17.8-1.7-15.2 11-34.5 34-51.7 35.8-27 85.2-39.7 110-28.4 8.3 3.7 13.1 9.9 13.9 17.7 1.7 15.2-11 34.5-34 51.8-27 20.2-61.6 32.5-87.6 32.5zm85.3-105.6c-25.9 0-60.4 12.2-87.3 32.4-22.8 17.1-35.4 36.3-33.8 51.2 0.8 7.7 5.6 13.7 13.7 17.4 24.6 11.2 73.7-1.5 109.4-28.3 22.8-17.2 35.5-36.3 33.8-51.3-0.8-7.7-5.5-13.7-13.7-17.4-6-2.7-13.6-4-22.1-4z"></path><path class="l" d="m336.8 182.5c-11.9 0-22.3-2.3-30-7-7.9-4.8-12.2-11.9-12.3-20.4-0.4-16.6 13.9-36.4 38.3-52.9 38.1-25.7 88.4-34.8 112.1-20.3 7.9 4.8 12.2 11.9 12.4 20.5 0.3 16.6-14 36.3-38.4 52.8-25.8 17.4-57.2 27.3-82.1 27.3zm78.1-107c-24.8 0-56.1 9.8-81.8 27.2-24.2 16.4-38.5 35.9-38.1 52.3 0.2 8.4 4.4 15.3 12.1 20.1 23.6 14.4 73.6 5.3 111.5-20.3 24.2-16.4 38.5-36 38.1-52.4-0.2-8.4-4.3-15.3-12.1-20.1-7.6-4.6-17.9-6.8-29.7-6.8z"></path><path class="m" d="m341.4 183.6c-15.7 0-29.4-3.5-38.4-10.7-7.5-6.1-11.1-14.2-10.5-23.6 1.2-17.9 17.2-37.8 42.8-53.3 40.2-24.3 91-29.4 113.4-11.4 7.5 6 11.2 14.2 10.5 23.5-1.2 17.9-17.2 37.9-42.8 53.4-24 14.4-51.7 22.1-75 22.1zm68.9-109.3c-23.1 0-50.8 7.7-74.7 22.1-25.5 15.4-41.4 35.2-42.6 52.9-0.6 9.2 3 17.2 10.3 23.1 22.2 17.9 72.8 12.8 112.8-11.4 25.5-15.4 41.4-35.2 42.6-52.9 0.6-9.2-2.9-17.2-10.3-23.1-9-7.2-22.5-10.7-38.1-10.7z"></path><path class="n" d="m346.8 185.3c-20 0-37.3-5.2-47.4-15.7-7.1-7.4-10-16.8-8.3-27.1 3-19.1 20.7-38.9 47.2-53.1 42.1-22.4 93.3-23.2 114-1.5 7.1 7.4 10 16.7 8.3 27-3 19.1-20.7 38.9-47.2 53.1-21.6 11.5-45.6 17.3-66.6 17.3zm58.2-112.7c-21 0-44.9 5.8-66.4 17.3-26.4 14.1-44 33.8-47 52.7-1.6 10.1 1.2 19.3 8.2 26.6 20.6 21.5 71.4 20.7 113.4-1.7 26.3-14.1 43.9-33.7 46.9-52.7 1.6-10.1-1.2-19.3-8.2-26.6-10-10.4-27.1-15.6-46.9-15.6z"></path><path class="o" d="m352.6 187.7c-24.5 0-45.7-7.5-56.5-22-6.6-9-8.5-19.7-5.6-31.1 5.1-20 24.3-39.4 51.4-51.9 43.9-20.4 94.9-16.3 113.7 9 6.6 9 8.6 19.7 5.7 31.1-5.2 20-24.4 39.4-51.4 52-18.9 8.7-39 12.9-57.3 12.9zm46.6-117.5c-18.3 0-38.3 4.2-57.1 12.9-27 12.5-46.1 31.8-51.1 51.6-2.9 11.3-1 21.9 5.6 30.7 18.6 25.2 69.3 29.2 113 8.9 27-12.5 46.1-31.8 51.1-51.6 2.9-11.2 1-21.8-5.6-30.7-10.6-14.3-31.7-21.8-55.9-21.8z"></path><path class="p" d="m358.4 190.9c-29 0-54.4-10.6-65.2-29.7-6-10.8-6.9-23.1-2.4-35.7 7.3-20.5 27.9-39.1 55.2-49.9 45.6-17.8 96-8.6 112.5 20.6 6.1 10.8 6.9 23.1 2.4 35.7-7.3 20.5-27.9 39.2-55.2 49.9-15.7 6.2-32 9.1-47.3 9.1zm35-123.8c-15.3 0-31.5 2.9-47.2 9-27.1 10.7-47.7 29.2-54.9 49.6-4.4 12.4-3.6 24.6 2.4 35.2 16.3 29.1 66.5 38.2 111.8 20.4 27.2-10.7 47.7-29.2 54.9-49.6 4.5-12.4 3.6-24.6-2.4-35.2-10.7-19-35.8-29.4-64.6-29.4z"></path><path class="q" d="m363.7 194.9c-33.4 0-62.8-14.5-73-38.9-5.4-12.8-4.8-26.9 1.5-40.7 9.6-20.7 31.4-38.2 58.5-46.9 47-15 96.4-0.2 110.3 33 5.4 12.9 4.9 27-1.5 40.7-9.5 20.7-31.4 38.2-58.5 46.9-12.5 4-25.2 5.9-37.3 5.9zm24.3-131.8c-12.1 0-24.7 1.9-37.1 5.9-27 8.6-48.7 26-58.2 46.5-6.3 13.7-6.8 27.6-1.5 40.3 10.1 24.2 39.3 38.6 72.5 38.6 12.1 0 24.7-1.9 37.1-5.9 27-8.7 48.7-26.1 58.2-46.6 6.3-13.6 6.8-27.6 1.5-40.3-10.1-24.2-39.2-38.5-72.5-38.5z"></path><path class="r" d="m368.3 199.7c-37.7 0-70.8-19.3-79.7-49.5-4.4-15.3-2.2-31.3 6.4-46.2 11.8-20.6 34.1-36.2 61.1-42.9 48.1-11.8 96.1 8.8 107 46.1 4.4 15.3 2.2 31.3-6.4 46.3-11.8 20.6-34.1 36.2-61.1 42.8-9.1 2.3-18.3 3.4-27.3 3.4zm15.1-141.4c-8.9 0-18 1.1-27.2 3.3-26.8 6.6-49 22.2-60.8 42.6-8.5 14.9-10.7 30.7-6.2 45.9 8.7 29.9 41.6 49 79.1 49 8.9 0 18.1-1 27.2-3.3 26.8-6.6 49-22.1 60.8-42.6 8.5-14.8 10.7-30.7 6.3-45.8-8.8-30-41.7-49.1-79.2-49.1z"></path><path class="s" d="m372 205.3c-41.9 0-78.2-25.2-84.9-61.6-3.3-17.7 1-36.2 12.1-52 13.8-19.8 36.7-33.6 62.8-38 49-8.3 95 18.6 102.6 60 3.3 17.8-1 36.3-12.1 52.1-13.8 19.7-36.7 33.6-62.8 38-6 1-11.9 1.5-17.7 1.5zm7.7-152.6c-5.7 0-11.6 0.5-17.6 1.5-26 4.4-48.7 18.1-62.5 37.8-11 15.7-15.2 34-12 51.6 6.7 36.1 42.7 61.1 84.4 61.2 5.8 0 11.6-0.5 17.6-1.5 26-4.4 48.8-18.2 62.5-37.8 11-15.7 15.2-34.1 12-51.7-6.7-36.1-42.7-61.1-84.4-61.1z"></path><path class="t" d="m374.5 211.7c-45.8 0-84.6-32.3-88.4-75.1-4-45.6 33.1-86.1 82.5-90.5 24-2 47.3 4.6 65.6 18.7 18.3 14.1 29.5 34 31.4 56.1 1.9 22-5.6 43.6-21.2 60.7-15.6 17-37.4 27.6-61.3 29.7q-4.4 0.4-8.6 0.4zm2.8-165.4q-4.3 0-8.6 0.4c-49.2 4.3-86 44.6-82 89.8 3.7 42.6 42.2 74.6 87.8 74.6q4.2 0 8.5-0.3c23.9-2.1 45.5-12.6 61-29.6 15.5-17 23-38.4 21.1-60.3-2-21.9-13-41.7-31.2-55.7-16-12.3-35.8-18.9-56.6-18.9z"></path><path class="u" d="m375.9 218.8c-49.7 0-90.1-40.4-90.1-90.1 0-49.6 40.4-90.1 90.1-90.1 49.6 0 90 40.5 90 90.1 0 49.7-40.4 90.1-90 90.1zm0-179.6c-49.4 0-89.6 40.1-89.6 89.5 0 49.4 40.2 89.6 89.6 89.6 49.3 0 89.5-40.2 89.5-89.6 0-49.4-40.2-89.5-89.5-89.5z"></path></svg>