<svg version="1.2" xmlns="http://www.w3.org/2000/svg" viewBox="776.4 279.05 167 192.45"><defs><linearGradient id="P" gradientUnits="userSpaceOnUse"></linearGradient><linearGradient id="g1" x2="1" href="#P" gradientTransform="matrix(26.638,0,0,25.4,846.607,362.578)"><stop stop-color="#3ddeed"></stop><stop offset="1" stop-color="#cb00dd"></stop></linearGradient><linearGradient id="g2" x2="1" href="#P" gradientTransform="matrix(28.628,0,0,26.046,845.612,362.255)"><stop stop-color="#3ddeed"></stop><stop offset="1" stop-color="#cb00dd"></stop></linearGradient><linearGradient id="g3" x2="1" href="#P" gradientTransform="matrix(30.537,0,0,26.467,844.657,362.044)"><stop stop-color="#3ddeed"></stop><stop offset="1" stop-color="#cb00dd"></stop></linearGradient><linearGradient id="g4" x2="1" href="#P" gradientTransform="matrix(32.333,0,0,29.411,843.759,360.572)"><stop stop-color="#3ddeed"></stop><stop offset="1" stop-color="#cb00dd"></stop></linearGradient><linearGradient id="g5" x2="1" href="#P" gradientTransform="matrix(33.978,0,0,32.393,842.937,359.081)"><stop stop-color="#3ddeed"></stop><stop offset="1" stop-color="#cb00dd"></stop></linearGradient><linearGradient id="g6" x2="1" href="#P" gradientTransform="matrix(35.432,0,0,35.378,842.21,357.589)"><stop stop-color="#3ddeed"></stop><stop offset="1" stop-color="#cb00dd"></stop></linearGradient><linearGradient id="g7" x2="1" href="#P" gradientTransform="matrix(36.652,0,0,38.332,841.6,356.112)"><stop stop-color="#3ddeed"></stop><stop offset="1" stop-color="#cb00dd"></stop></linearGradient><linearGradient id="g8" x2="1" href="#P" gradientTransform="matrix(37.593,0,0,41.215,841.129,354.67)"><stop stop-color="#3ddeed"></stop><stop offset="1" stop-color="#cb00dd"></stop></linearGradient><linearGradient id="g9" x2="1" href="#P" gradientTransform="matrix(38.207,0,0,43.983,840.822,353.287)"><stop stop-color="#3ddeed"></stop><stop offset="1" stop-color="#cb00dd"></stop></linearGradient><linearGradient id="g10" x2="1" href="#P" gradientTransform="matrix(42.439,0,0,46.585,838.706,351.985)"><stop stop-color="#3ddeed"></stop><stop offset="1" stop-color="#cb00dd"></stop></linearGradient><linearGradient id="g11" x2="1" href="#P" gradientTransform="matrix(46.756,0,0,48.97,836.548,350.793)"><stop stop-color="#3ddeed"></stop><stop offset="1" stop-color="#cb00dd"></stop></linearGradient><linearGradient id="g12" x2="1" href="#P" gradientTransform="matrix(51.078,0,0,51.078,834.387,349.739)"><stop stop-color="#3ddeed"></stop><stop offset="1" stop-color="#cb00dd"></stop></linearGradient><linearGradient id="g13" x2="1" href="#P" gradientTransform="matrix(55.355,0,0,52.849,832.248,348.853)"><stop stop-color="#3ddeed"></stop><stop offset="1" stop-color="#cb00dd"></stop></linearGradient><linearGradient id="g14" x2="1" href="#P" gradientTransform="matrix(59.527,0,0,54.216,830.162,348.17)"><stop stop-color="#3ddeed"></stop><stop offset="1" stop-color="#cb00dd"></stop></linearGradient><linearGradient id="g15" x2="1" href="#P" gradientTransform="matrix(63.53,0,0,55.159,828.161,347.699)"><stop stop-color="#3ddeed"></stop><stop offset="1" stop-color="#cb00dd"></stop></linearGradient><linearGradient id="g16" x2="1" href="#P" gradientTransform="matrix(67.294,0,0,61.352,826.279,344.602)"><stop stop-color="#3ddeed"></stop><stop offset="1" stop-color="#cb00dd"></stop></linearGradient><linearGradient id="g17" x2="1" href="#P" gradientTransform="matrix(70.74,0,0,67.621,824.556,341.467)"><stop stop-color="#3ddeed"></stop><stop offset="1" stop-color="#cb00dd"></stop></linearGradient><linearGradient id="g18" x2="1" href="#P" gradientTransform="matrix(73.785,0,0,73.899,823.033,338.328)"><stop stop-color="#3ddeed"></stop><stop offset="1" stop-color="#cb00dd"></stop></linearGradient><linearGradient id="g19" x2="1" href="#P" gradientTransform="matrix(76.34,0,0,80.11,821.756,335.223)"><stop stop-color="#3ddeed"></stop><stop offset="1" stop-color="#cb00dd"></stop></linearGradient><linearGradient id="g20" x2="1" href="#P" gradientTransform="matrix(78.309,0,0,86.171,820.772,332.193)"><stop stop-color="#3ddeed"></stop><stop offset="1" stop-color="#cb00dd"></stop></linearGradient><linearGradient id="g21" x2="1" href="#P" gradientTransform="matrix(79.589,0,0,91.987,820.131,329.284)"><stop stop-color="#3ddeed"></stop><stop offset="1" stop-color="#cb00dd"></stop></linearGradient><linearGradient id="g22" x2="1" href="#P" gradientTransform="matrix(88.559,0,0,97.457,815.646,326.55)"><stop stop-color="#3ddeed"></stop><stop offset="1" stop-color="#cb00dd"></stop></linearGradient><linearGradient id="g23" x2="1" href="#P" gradientTransform="matrix(97.638,0,0,102.466,811.107,324.045)"><stop stop-color="#3ddeed"></stop><stop offset="1" stop-color="#cb00dd"></stop></linearGradient><linearGradient id="g24" x2="1" href="#P" gradientTransform="matrix(106.731,0,0,106.895,806.56,321.831)"><stop stop-color="#3ddeed"></stop><stop offset="1" stop-color="#cb00dd"></stop></linearGradient><linearGradient id="g25" x2="1" href="#P" gradientTransform="matrix(115.729,0,0,110.612,802.061,319.972)"><stop stop-color="#3ddeed"></stop><stop offset="1" stop-color="#cb00dd"></stop></linearGradient><linearGradient id="g26" x2="1" href="#P" gradientTransform="matrix(124.51,0,0,113.479,797.671,318.539)"><stop stop-color="#3ddeed"></stop><stop offset="1" stop-color="#cb00dd"></stop></linearGradient><linearGradient id="g27" x2="1" href="#P" gradientTransform="matrix(132.938,0,0,115.348,793.457,317.604)"><stop stop-color="#3ddeed"></stop><stop offset="1" stop-color="#cb00dd"></stop></linearGradient><linearGradient id="g28" x2="1" href="#P" gradientTransform="matrix(140.865,0,0,128.237,789.493,311.159)"><stop stop-color="#3ddeed"></stop><stop offset="1" stop-color="#cb00dd"></stop></linearGradient><linearGradient id="g29" x2="1" href="#P" gradientTransform="matrix(148.128,0,0,141.385,785.862,304.585)"><stop stop-color="#3ddeed"></stop><stop offset="1" stop-color="#cb00dd"></stop></linearGradient><linearGradient id="g30" x2="1" href="#P" gradientTransform="matrix(154.551,0,0,154.551,782.65,298.003)"><stop stop-color="#3ddeed"></stop><stop offset="1" stop-color="#cb00dd"></stop></linearGradient><linearGradient id="g31" x2="1" href="#P" gradientTransform="matrix(159.945,0,0,167.575,779.953,291.49)"><stop stop-color="#3ddeed"></stop><stop offset="1" stop-color="#cb00dd"></stop></linearGradient><linearGradient id="g32" x2="1" href="#P" gradientTransform="matrix(164.109,0,0,180.283,777.871,285.137)"><stop stop-color="#3ddeed"></stop><stop offset="1" stop-color="#cb00dd"></stop></linearGradient><linearGradient id="g33" x2="1" href="#P" gradientTransform="matrix(166.978,0,0,192.476,776.437,279.04)"><stop stop-color="#3ddeed"></stop><stop offset="1" stop-color="#cb00dd"></stop></linearGradient></defs><style>.a{fill:url(#g1)}.b{fill:url(#g2)}.c{fill:url(#g3)}.d{fill:url(#g4)}.e{fill:url(#g5)}.f{fill:url(#g6)}.g{fill:url(#g7)}.h{fill:url(#g8)}.i{fill:url(#g9)}.j{fill:url(#g10)}.k{fill:url(#g11)}.l{fill:url(#g12)}.m{fill:url(#g13)}.n{fill:url(#g14)}.o{fill:url(#g15)}.p{fill:url(#g16)}.q{fill:url(#g17)}.r{fill:url(#g18)}.s{fill:url(#g19)}.t{fill:url(#g20)}.u{fill:url(#g21)}.v{fill:url(#g22)}.w{fill:url(#g23)}.x{fill:url(#g24)}.y{fill:url(#g25)}.z{fill:url(#g26)}.A{fill:url(#g27)}.B{fill:url(#g28)}.C{fill:url(#g29)}.D{fill:url(#g30)}.E{fill:url(#g31)}.F{fill:url(#g32)}.G{fill:url(#g33)}</style><path class="a" d="m855.4 388q-0.1 0-0.2-0.1l-8.5-10.2q-0.1-0.1-0.1-0.2l4.6-12.5q0-0.1 0.2-0.1l13-2.3q0.2 0 0.3 0.1l8.5 10.1q0.1 0.1 0 0.3l-4.5 12.4q-0.1 0.1-0.2 0.2l-13.1 2.3q0 0 0 0zm-8.3-10.5l8.4 10 12.8-2.3 4.4-12.2-8.3-9.9-12.8 2.3z"></path><path class="b" d="m854 388.3q-0.2 0-0.2-0.1l-8.1-11.5q-0.1-0.2-0.1-0.3l6-12.8q0.1-0.1 0.2-0.1l14.1-1.2q0.1-0.1 0.2 0.1l8.1 11.5q0.1 0.1 0 0.3l-6 12.7q0 0.2-0.2 0.2l-14 1.2q0 0 0 0zm-7.9-11.8l8 11.3 13.8-1.2 5.8-12.5-7.9-11.3-13.8 1.2z"></path><path class="c" d="m867.4 388.5h-15q-0.1 0-0.2-0.1l-7.5-13q-0.1-0.1 0-0.2l7.5-13q0.1-0.2 0.2-0.2h15q0.2 0 0.3 0.2l7.5 13q0 0.1 0 0.2l-7.5 13q-0.1 0.1-0.3 0.1zm-14.8-0.5h14.7l7.4-12.7-7.4-12.8h-14.7l-7.4 12.8z"></path><path class="d" d="m866.7 390q0 0 0 0l-16-1.4q-0.1 0-0.2-0.2l-6.7-14.4q-0.1-0.1 0-0.3l9.2-13q0.1-0.1 0.2-0.1l15.9 1.4q0.2 0 0.2 0.1l6.8 14.5q0 0.1-0.1 0.2l-9.1 13.1q-0.1 0.1-0.2 0.1zm-15.8-1.9l15.7 1.4 9-12.9-6.7-14.1-15.6-1.4-9 12.8z"></path><path class="e" d="m865.7 391.5q0 0 0 0l-16.7-3q-0.2 0-0.2-0.1l-5.8-16q-0.1-0.1 0-0.2l10.9-13q0.1-0.1 0.3-0.1l16.7 2.9q0.1 0.1 0.2 0.2l5.8 15.9q0 0.2 0 0.3l-11 13q0 0.1-0.2 0.1zm-16.5-3.4l16.4 2.9 10.8-12.8-5.7-15.7-16.5-2.9-10.7 12.8z"></path><path class="f" d="m864.6 393q0 0-0.1 0l-17.4-4.7q-0.2-0.1-0.2-0.2l-4.7-17.4q0-0.2 0.1-0.3l12.8-12.7q0.1-0.1 0.2-0.1l17.5 4.7q0.1 0 0.1 0.2l4.7 17.4q0.1 0.1 0 0.2l-12.8 12.8q-0.1 0.1-0.2 0.1zm-17.2-5.2l17.1 4.6 12.6-12.5-4.6-17.2-17.2-4.6-12.6 12.6z"></path><path class="g" d="m863.3 394.4q-0.1 0-0.1 0l-18.1-6.6q-0.1 0-0.1-0.1l-3.4-19q0-0.1 0.1-0.2l14.7-12.3q0.1-0.1 0.3-0.1l18 6.6q0.2 0.1 0.2 0.2l3.3 18.9q0.1 0.2 0 0.2l-14.8 12.4q0 0-0.1 0zm-17.9-7l17.8 6.5 14.5-12.1-3.3-18.7-17.8-6.5-14.5 12.2z"></path><path class="h" d="m861.7 395.9q0 0-0.1 0l-18.5-8.7q-0.2-0.1-0.2-0.2l-1.8-20.3q0-0.2 0.1-0.3l16.8-11.7q0.1-0.1 0.2 0l18.6 8.6q0.1 0.1 0.1 0.2l1.8 20.4q0 0.1-0.1 0.2l-16.7 11.7q-0.1 0.1-0.2 0.1zm-18.3-9.1l18.3 8.5 16.5-11.5-1.8-20.1-18.2-8.5-16.6 11.6z"></path><path class="i" d="m859.9 397.3q0 0-0.1-0.1l-18.8-10.8q-0.2-0.1-0.2-0.3v-21.7q0-0.1 0.1-0.2l18.9-10.9q0.1 0 0.2 0l18.9 10.9q0.1 0.1 0.1 0.2v21.8q0 0.1-0.1 0.2l-18.8 10.8q-0.1 0.1-0.2 0.1zm-18.6-11.3l18.6 10.7 18.6-10.7v-21.4l-18.6-10.8-18.6 10.7z"></path><path class="j" d="m857.9 398.6q0 0-0.1-0.1l-19-13.3q-0.1 0-0.1-0.2l2-23q0-0.2 0.1-0.2l21-9.8q0.1 0 0.3 0l18.9 13.3q0.2 0.1 0.1 0.2l-2 23.1q0 0.1-0.1 0.2l-21 9.7q0 0.1-0.1 0.1zm-18.7-13.7l18.8 13.1 20.7-9.6 1.9-22.8-18.7-13.1-20.7 9.7z"></path><path class="k" d="m855.7 399.8q-0.1 0-0.2-0.1l-18.9-15.8q-0.1-0.1 0-0.3l4.2-24.2q0-0.1 0.2-0.2l23.1-8.4q0.1 0 0.2 0.1l18.9 15.8q0.1 0.1 0.1 0.2l-4.3 24.3q0 0.1-0.1 0.2l-23.1 8.3q-0.1 0.1-0.1 0.1zm-18.6-16.2l18.6 15.6 22.9-8.3 4.2-23.9-18.7-15.7-22.8 8.3z"></path><path class="l" d="m853.2 400.8q-0.1 0-0.2-0.1l-18.5-18.5q-0.1-0.1-0.1-0.2l6.8-25.3q0-0.2 0.1-0.2l25.3-6.8q0.2 0 0.3 0.1l18.5 18.5q0.1 0.1 0.1 0.3l-6.8 25.3q0 0.1-0.2 0.2l-25.3 6.7q0 0 0 0zm-18.3-18.8l18.3 18.3 25.1-6.7 6.6-25-18.3-18.3-25 6.6z"></path><path class="m" d="m850.4 401.7q-0.1 0-0.2-0.1l-17.9-21.3q-0.1-0.2 0-0.3l9.5-26.2q0-0.1 0.2-0.1l27.4-4.8q0.1-0.1 0.2 0l17.9 21.4q0.1 0.1 0.1 0.2l-9.5 26.2q-0.1 0.2-0.2 0.2l-27.4 4.8q-0.1 0-0.1 0zm-17.6-21.7l17.7 21.2 27.2-4.8 9.4-25.9-17.8-21.1-27.1 4.7z"></path><path class="n" d="m847.4 402.4q-0.1 0-0.2-0.1l-17-24.3q-0.1-0.1 0-0.3l12.5-26.8q0-0.2 0.2-0.2l29.5-2.5q0.1 0 0.2 0.1l17 24.3q0.1 0.1 0.1 0.2l-12.5 26.9q-0.1 0.1-0.2 0.1l-29.6 2.6q0 0 0 0zm-16.7-24.6l16.8 24.1 29.3-2.6 12.4-26.6-16.9-24-29.2 2.5z"></path><path class="o" d="m875.7 402.9l-31.5-0.1q-0.2 0-0.2-0.1l-15.8-27.3q-0.1-0.1 0-0.3l15.7-27.3q0.1-0.1 0.2-0.1h31.6q0.1 0 0.2 0.1l15.8 27.4q0 0.1 0 0.2l-15.8 27.3q-0.1 0.2-0.2 0.2zm-31.4-0.6l31.3 0.1 15.6-27.1-15.7-27.1h-31.2l-15.6 27.1z"></path><path class="p" d="m874.1 406q0 0 0 0l-33.4-3q-0.1 0-0.2-0.1l-14.2-30.5q-0.1-0.1 0-0.2l19.2-27.5q0.1-0.1 0.3-0.1l33.4 3q0.1 0 0.2 0.1l14.1 30.4q0.1 0.2 0 0.3l-19.2 27.4q-0.1 0.2-0.2 0.2zm-33.2-3.5l33.1 2.9 19-27.2-14-30.2-33.1-2.9-19.1 27.3z"></path><path class="q" d="m872.1 409.1q0 0 0 0l-35.1-6.2q-0.2-0.1-0.2-0.2l-12.2-33.6q-0.1-0.1 0-0.2l22.9-27.3q0.1-0.1 0.3-0.1l35.1 6.2q0.1 0 0.2 0.2l12.2 33.5q0 0.1-0.1 0.3l-22.9 27.3q0 0.1-0.2 0.1zm-34.9-6.7l34.8 6.2 22.8-27.2-12.2-33.2-34.8-6.2-22.7 27.1z"></path><path class="r" d="m869.8 412.2q-0.1 0-0.1 0l-36.6-9.8q-0.2-0.1-0.2-0.2l-9.9-36.7q0-0.1 0.1-0.2l26.8-26.9q0.1-0.1 0.3-0.1l36.6 9.9q0.1 0 0.2 0.2l9.8 36.7q0 0.1-0.1 0.2l-26.8 26.9q0 0-0.1 0zm-36.5-10.3l36.4 9.8 26.6-26.6-9.8-36.5-36.3-9.7-26.6 26.6z"></path><path class="s" d="m866.9 415.3q0 0 0 0l-38-13.8q-0.1-0.1-0.1-0.2l-7-39.8q-0.1-0.2 0-0.2l30.9-26q0.2-0.1 0.3-0.1l37.9 13.9q0.1 0 0.2 0.2l7 39.8q0 0.1-0.1 0.2l-30.9 26q-0.1 0-0.2 0zm-37.7-14.2l37.7 13.7 30.7-25.8-7-39.5-37.6-13.7-30.7 25.7z"></path><path class="t" d="m863.7 418.4q-0.1 0-0.1-0.1l-38.9-18.1q-0.2-0.1-0.2-0.2l-3.7-42.9q0-0.1 0.1-0.2l35.1-24.7q0.2 0 0.3 0l38.9 18.2q0.1 0.1 0.1 0.2l3.8 42.8q0 0.2-0.1 0.3l-35.2 24.6q0 0.1-0.1 0.1zm-38.7-18.6l38.6 18 35-24.5-3.8-42.5-38.6-18.1-34.9 24.5z"></path><path class="u" d="m859.9 421.3q0 0-0.1-0.1l-39.5-22.8q-0.2-0.1-0.2-0.3v-45.7q0-0.1 0.2-0.2l39.5-22.9q0.1 0 0.3 0l39.5 22.9q0.1 0.1 0.1 0.2v45.7q0 0.2-0.1 0.3l-39.5 22.8q-0.1 0.1-0.2 0.1zm-39.3-23.3l39.3 22.7 39.3-22.7v-45.4l-39.3-22.8-39.3 22.8z"></path><path class="v" d="m855.7 424q-0.1 0-0.2 0l-39.7-27.9q-0.2-0.1-0.2-0.3l4.3-48.4q0-0.2 0.1-0.3l44.1-20.5q0.1-0.1 0.2 0l39.8 27.9q0.1 0.1 0.1 0.2l-4.2 48.5q-0.1 0.1-0.2 0.2l-44 20.6q-0.1 0-0.1 0zm-39.5-28.3l39.5 27.8 43.8-20.5 4.2-48.2-39.6-27.7-43.7 20.4z"></path><path class="w" d="m850.9 426.5q-0.1 0-0.1 0l-39.6-33.3q-0.1-0.1-0.1-0.2l9-51q0-0.2 0.2-0.2l48.5-17.7q0.2-0.1 0.3 0l39.6 33.3q0.1 0.1 0 0.2l-8.9 51q-0.1 0.1-0.2 0.2l-48.6 17.7q0 0-0.1 0zm-39.3-33.6l39.4 33.1 48.3-17.6 8.9-50.7-39.3-33.1-48.3 17.6z"></path><path class="x" d="m845.7 428.7q-0.1 0-0.2 0l-38.9-39q-0.1-0.1 0-0.2l14.2-53.2q0.1-0.1 0.2-0.2l53.1-14.3q0.2 0 0.3 0.1l38.8 38.9q0.1 0.1 0.1 0.3l-14.3 53.2q0 0.1-0.1 0.1l-53.2 14.3q0 0 0 0zm-38.6-39.2l38.6 38.7 52.9-14.2 14.2-52.9-38.7-38.7-52.8 14.2z"></path><path class="y" d="m839.9 430.6q-0.1 0-0.2-0.1l-37.6-44.9q-0.1-0.1 0-0.2l20-55.1q0.1-0.1 0.2-0.1l57.6-10.2q0.2 0 0.3 0.1l37.5 44.8q0.1 0.1 0.1 0.3l-20.1 55q0 0.1-0.2 0.2l-57.6 10.2q0 0 0 0zm-37.3-45.2l37.4 44.7 57.3-10.2 20-54.8-37.4-44.6-57.4 10.1z"></path><path class="z" d="m833.6 432q-0.1 0-0.2-0.1l-35.7-51q-0.1-0.1 0-0.3l26.3-56.4q0.1-0.2 0.2-0.2l62-5.5q0.2 0 0.3 0.1l35.6 51.1q0.1 0.1 0.1 0.2l-26.4 56.5q0 0.1-0.2 0.1l-62 5.5q0 0 0 0zm-35.4-51.3l35.5 50.8 61.7-5.4 26.2-56.3-35.5-50.7-61.7 5.4z"></path><path class="A" d="m826.8 433q-0.2-0.1-0.2-0.2l-33.1-57.3q-0.1-0.2 0-0.3l33.1-57.4q0.1-0.1 0.3-0.1l66.2-0.1q0.1 0 0.2 0.1l33.1 57.4q0 0.1 0 0.3l-33.2 57.4q-0.1 0.1-0.2 0.1l-66.2 0.1zm-32.8-57.7l32.9 57.2 65.9-0.1 33.1-57.2-33-57.1-65.9 0.1z"></path><path class="B" d="m889.6 439.4q0 0 0 0l-70.2-6.1q-0.1 0-0.2-0.1l-29.7-63.9q0-0.1 0-0.3l40.5-57.7q0.1-0.1 0.2-0.1l70.2 6q0.1 0.1 0.2 0.2l29.7 63.9q0.1 0.1 0 0.2l-40.4 57.8q-0.1 0.1-0.3 0.1zm-70-6.6l69.9 6.1 40.3-57.6-29.6-63.6-69.9-6-40.3 57.5z"></path><path class="C" d="m885.5 446q0 0 0 0l-73.9-13q-0.1 0-0.1-0.2l-25.6-70.4q-0.1-0.1 0-0.2l48.3-57.5q0.1-0.1 0.2-0.1l73.8 12.9q0.1 0.1 0.2 0.2l25.6 70.4q0 0.2-0.1 0.3l-48.2 57.5q-0.1 0.1-0.2 0.1zm-73.6-13.5l73.5 12.9 48.1-57.2-25.5-70.2-73.6-12.9-48 57.3z"></path><path class="D" d="m880.5 452.6q0 0-0.1-0.1l-77-20.5q-0.1-0.1-0.2-0.2l-20.5-77q-0.1-0.2 0-0.3l56.5-56.4q0.1-0.1 0.2-0.1l77 20.6q0.2 0 0.2 0.2l20.6 77q0 0.1-0.1 0.2l-56.4 56.5q-0.1 0.1-0.2 0.1zm-76.8-21.1l76.7 20.5 56.3-56.2-20.5-76.8-76.8-20.5-56.2 56.3z"></path><path class="E" d="m874.6 459.1q-0.1 0-0.1 0l-79.7-29q-0.2 0-0.2-0.2l-14.6-83.5q-0.1-0.2 0-0.3l65.1-54.6q0.1 0 0.2 0l79.8 29q0.1 0 0.1 0.1l14.7 83.6q0 0.1-0.1 0.2l-65.1 54.6q0 0.1-0.1 0.1zm-79.5-29.4l79.4 28.8 64.9-54.4-14.6-83.2-79.5-28.9-64.8 54.4z"></path><path class="F" d="m867.7 465.4q0 0-0.1 0l-81.8-38.1q-0.1 0-0.1-0.2l-7.8-89.9q0-0.1 0.1-0.2l74-51.8q0.1-0.1 0.2 0l81.8 38q0.2 0.1 0.2 0.2l7.8 89.9q0 0.2-0.1 0.3l-74 51.8q-0.1 0-0.2 0zm-81.5-38.5l81.5 38 73.8-51.7-7.8-89.6-81.5-37.9-73.8 51.6z"></path><path class="G" d="m859.9 471.5q-0.1 0-0.2 0l-83.1-47.9q-0.2-0.1-0.2-0.3l0.1-96q0-0.1 0.1-0.2l83.3-48q0.1-0.1 0.2 0l83.2 47.9q0.1 0.1 0.1 0.2l-0.1 96q0 0.1-0.1 0.2l-83.2 48.1q-0.1 0-0.1 0zm-83-48.3l83 47.8 82.9-47.9 0.1-95.7-82.9-47.8-83 47.9z"></path></svg>