<svg version="1.2" xmlns="http://www.w3.org/2000/svg" viewBox="39.4 518.3 188.8 188.8"><defs><linearGradient id="P" gradientUnits="userSpaceOnUse"></linearGradient><linearGradient id="g1" x2="1" href="#P" gradientTransform="matrix(182.332,0,0,182.332,42.657,521.513)"><stop stop-color="#3ddeed"></stop><stop offset="1" stop-color="#cb00dd"></stop></linearGradient><linearGradient id="g2" x2="1" href="#P" gradientTransform="matrix(184.639,0,0,184.639,41.503,520.36)"><stop stop-color="#3ddeed"></stop><stop offset="1" stop-color="#cb00dd"></stop></linearGradient><linearGradient id="g3" x2="1" href="#P" gradientTransform="matrix(186.439,0,0,186.44,40.603,519.459)"><stop stop-color="#3ddeed"></stop><stop offset="1" stop-color="#cb00dd"></stop></linearGradient><linearGradient id="g4" x2="1" href="#P" gradientTransform="matrix(187.729,0,0,187.729,39.958,518.814)"><stop stop-color="#3ddeed"></stop><stop offset="1" stop-color="#cb00dd"></stop></linearGradient><linearGradient id="g5" x2="1" href="#P" gradientTransform="matrix(188.505,0,0,188.505,39.57,518.427)"><stop stop-color="#3ddeed"></stop><stop offset="1" stop-color="#cb00dd"></stop></linearGradient><linearGradient id="g6" x2="1" href="#P" gradientTransform="matrix(188.764,0,0,188.763,39.441,518.297)"><stop stop-color="#3ddeed"></stop><stop offset="1" stop-color="#cb00dd"></stop></linearGradient><linearGradient id="g7" x2="1" href="#P" gradientTransform="matrix(188.505,0,0,188.505,39.57,518.427)"><stop stop-color="#3ddeed"></stop><stop offset="1" stop-color="#cb00dd"></stop></linearGradient><linearGradient id="g8" x2="1" href="#P" gradientTransform="matrix(187.729,0,0,187.729,39.958,518.814)"><stop stop-color="#3ddeed"></stop><stop offset="1" stop-color="#cb00dd"></stop></linearGradient><linearGradient id="g9" x2="1" href="#P" gradientTransform="matrix(186.439,0,0,186.44,40.603,519.459)"><stop stop-color="#3ddeed"></stop><stop offset="1" stop-color="#cb00dd"></stop></linearGradient><linearGradient id="g10" x2="1" href="#P" gradientTransform="matrix(184.639,0,0,184.639,41.503,520.36)"><stop stop-color="#3ddeed"></stop><stop offset="1" stop-color="#cb00dd"></stop></linearGradient><linearGradient id="g11" x2="1" href="#P" gradientTransform="matrix(182.332,0,0,182.332,42.657,521.513)"><stop stop-color="#3ddeed"></stop><stop offset="1" stop-color="#cb00dd"></stop></linearGradient><linearGradient id="g12" x2="1" href="#P" gradientTransform="matrix(179.525,0,0,179.525,44.06,522.917)"><stop stop-color="#3ddeed"></stop><stop offset="1" stop-color="#cb00dd"></stop></linearGradient><linearGradient id="g13" x2="1" href="#P" gradientTransform="matrix(176.226,0,0,176.226,45.71,524.566)"><stop stop-color="#3ddeed"></stop><stop offset="1" stop-color="#cb00dd"></stop></linearGradient><linearGradient id="g14" x2="1" href="#P" gradientTransform="matrix(172.444,0,0,172.444,47.601,526.457)"><stop stop-color="#3ddeed"></stop><stop offset="1" stop-color="#cb00dd"></stop></linearGradient><linearGradient id="g15" x2="1" href="#P" gradientTransform="matrix(168.189,0,0,168.19,49.728,528.584)"><stop stop-color="#3ddeed"></stop><stop offset="1" stop-color="#cb00dd"></stop></linearGradient><linearGradient id="g16" x2="1" href="#P" gradientTransform="matrix(163.474,0,0,163.474,52.086,530.942)"><stop stop-color="#3ddeed"></stop><stop offset="1" stop-color="#cb00dd"></stop></linearGradient><linearGradient id="g17" x2="1" href="#P" gradientTransform="matrix(158.311,0,0,158.31,54.667,533.524)"><stop stop-color="#3ddeed"></stop><stop offset="1" stop-color="#cb00dd"></stop></linearGradient><linearGradient id="g18" x2="1" href="#P" gradientTransform="matrix(152.713,0,0,152.713,57.466,536.323)"><stop stop-color="#3ddeed"></stop><stop offset="1" stop-color="#cb00dd"></stop></linearGradient><linearGradient id="g19" x2="1" href="#P" gradientTransform="matrix(146.697,0,0,146.697,60.474,539.331)"><stop stop-color="#3ddeed"></stop><stop offset="1" stop-color="#cb00dd"></stop></linearGradient><linearGradient id="g20" x2="1" href="#P" gradientTransform="matrix(140.278,0,0,140.279,63.683,542.54)"><stop stop-color="#3ddeed"></stop><stop offset="1" stop-color="#cb00dd"></stop></linearGradient><linearGradient id="g21" x2="1" href="#P" gradientTransform="matrix(133.476,0,0,133.476,67.085,545.941)"><stop stop-color="#3ddeed"></stop><stop offset="1" stop-color="#cb00dd"></stop></linearGradient></defs><style>.a{fill:url(#g1)}.b{fill:url(#g2)}.c{fill:url(#g3)}.d{fill:url(#g4)}.e{fill:url(#g5)}.f{fill:url(#g6)}.g{fill:url(#g7)}.h{fill:url(#g8)}.i{fill:url(#g9)}.j{fill:url(#g10)}.k{fill:url(#g11)}.l{fill:url(#g12)}.m{fill:url(#g13)}.n{fill:url(#g14)}.o{fill:url(#g15)}.p{fill:url(#g16)}.q{fill:url(#g17)}.r{fill:url(#g18)}.s{fill:url(#g19)}.t{fill:url(#g20)}.u{fill:url(#g21)}</style><path class="a" d="m158.3 703.8l-115.6-66.7 66.7-115.6 115.6 66.8zm-114.9-67l114.7 66.3 66.2-114.8-114.7-66.2z"></path><path class="b" d="m153.4 705l-0.2-0.1-111.7-72.6 0.1-0.2 72.6-111.7 0.2 0.1 111.7 72.6-0.1 0.2zm-111.2-72.9l111.1 72.2 72.1-111.1-111.1-72.2z"></path><path class="c" d="m148.6 705.9l-0.2-0.1-107.8-78.4 78.5-107.9 0.2 0.1 107.7 78.3zm-107.2-78.6l107.1 77.9 77.9-107.2-107.2-77.8z"></path><path class="d" d="m143.7 706.5l-103.7-84 0.1-0.1 83.9-103.6 103.7 84-0.2 0.2zm-103-84.1l103 83.4 83.3-102.9-102.9-83.4z"></path><path class="e" d="m138.8 706.9l-99.2-89.3 89.3-99.2 99.2 89.3zm-98.5-89.3l98.4 88.6 88.7-98.4-98.5-88.7z"></path><path class="f" d="m133.8 707.1l-94.4-94.4 94.4-94.4 94.4 94.4zm-93.7-94.4l93.7 93.7 93.7-93.7-93.7-93.7z"></path><path class="g" d="m128.9 706.9l-89.3-99.2 99.2-89.3 89.3 99.2zm-88.6-99.1l88.6 98.4 98.5-88.6-88.7-98.5z"></path><path class="h" d="m124 706.5l-0.2-0.2-83.8-103.5 103.7-84 0.1 0.2 83.9 103.5zm-83.3-103.6l83.4 102.9 102.9-83.3-83.4-103z"></path><path class="i" d="m119.1 705.9l-0.2-0.2-78.3-107.8 0.2-0.1 107.8-78.3 0.1 0.2 78.3 107.7-0.2 0.2zm-77.7-107.9l77.9 107.2 107.1-77.9-77.8-107.2z"></path><path class="j" d="m114.2 705l-72.7-111.9 111.9-72.7 72.7 111.9zm-72-111.8l72.2 111.1 111.1-72.1-72.2-111.1z"></path><path class="k" d="m109.4 703.8l-66.7-115.5 115.6-66.8 66.7 115.6zm-66.1-115.4l66.3 114.7 114.7-66.2-66.2-114.7z"></path><path class="l" d="m104.7 702.4l-0.2-0.2-60.4-118.7 0.2-0.1 118.7-60.5 0.1 0.2 60.5 118.7-0.2 0.2zm-60-118.8l60.2 118.1 118-60.2-60.1-118z"></path><path class="m" d="m100 700.8l-0.1-0.2-54.2-121.7 121.9-54.3 0.1 0.2 54.2 121.7zm-53.6-121.7l53.9 121 121-53.8-53.9-121.1z"></path><path class="n" d="m95.4 698.9l-47.8-124.6 124.6-47.8 47.8 124.6zm-47.1-124.4l47.4 123.7 123.7-47.5-47.5-123.6z"></path><path class="o" d="m91 696.8l-0.1-0.3-41.2-126.7 127-41.2v0.2l41.2 126.7zm-40.6-126.6l40.9 126 126-40.9-40.9-126z"></path><path class="p" d="m86.6 694.4l-34.5-128.9 128.9-34.6 34.6 129zm-34-128.6l34.3 128 128-34.3-34.3-128z"></path><path class="q" d="m82.4 691.8l-27.7-130.5 130.5-27.8 27.8 130.6zm-27.2-130.2l27.6 129.6 129.5-27.6-27.5-129.5z"></path><path class="r" d="m78.3 689l-20.8-131.8 131.8-20.9 20.9 131.9zm-20.3-131.5l20.7 130.9 130.8-20.7-20.7-130.9z"></path><path class="s" d="m74.4 686l-13.9-132.7 132.7-14 14 132.8zm-13.4-132.3l13.8 131.7 131.8-13.8-13.9-131.8z"></path><path class="t" d="m70.7 682.8v-0.2l-7-133.1 133.3-7v0.3l7 133zm-6.5-132.8l6.9 132.3 132.3-6.9-6.9-132.3z"></path><path class="u" d="m200.6 679.4h-133.5v-133.5h133.5zm-133-0.5h132.5v-132.4h-132.5z"></path></svg>