<svg version="1.2" xmlns="http://www.w3.org/2000/svg" viewBox="525.07 41.87 185.58 173.63"><defs><linearGradient id="P" gradientUnits="userSpaceOnUse"></linearGradient><linearGradient id="g1" x2="1" href="#P" gradientTransform="matrix(109.832,0,0,168.848,562.976,44.293)"><stop stop-color="#3ddeed"></stop><stop offset="1" stop-color="#cb00dd"></stop></linearGradient><linearGradient id="g2" x2="1" href="#P" gradientTransform="matrix(115.759,0,0,171.675,560.012,42.881)"><stop stop-color="#3ddeed"></stop><stop offset="1" stop-color="#cb00dd"></stop></linearGradient><linearGradient id="g3" x2="1" href="#P" gradientTransform="matrix(122.972,0,0,173.278,556.405,42.087)"><stop stop-color="#3ddeed"></stop><stop offset="1" stop-color="#cb00dd"></stop></linearGradient><linearGradient id="g4" x2="1" href="#P" gradientTransform="matrix(130.82,0,0,173.655,552.481,41.892)"><stop stop-color="#3ddeed"></stop><stop offset="1" stop-color="#cb00dd"></stop></linearGradient><linearGradient id="g5" x2="1" href="#P" gradientTransform="matrix(138.889,0,0,172.846,548.447,42.295)"><stop stop-color="#3ddeed"></stop><stop offset="1" stop-color="#cb00dd"></stop></linearGradient><linearGradient id="g6" x2="1" href="#P" gradientTransform="matrix(147.055,0,0,170.77,544.364,43.334)"><stop stop-color="#3ddeed"></stop><stop offset="1" stop-color="#cb00dd"></stop></linearGradient><linearGradient id="g7" x2="1" href="#P" gradientTransform="matrix(154.983,0,0,167.584,540.4,44.927)"><stop stop-color="#3ddeed"></stop><stop offset="1" stop-color="#cb00dd"></stop></linearGradient><linearGradient id="g8" x2="1" href="#P" gradientTransform="matrix(162.348,0,0,163.397,536.717,47.019)"><stop stop-color="#3ddeed"></stop><stop offset="1" stop-color="#cb00dd"></stop></linearGradient><linearGradient id="g9" x2="1" href="#P" gradientTransform="matrix(168.949,0,0,158.435,533.417,49.5)"><stop stop-color="#3ddeed"></stop><stop offset="1" stop-color="#cb00dd"></stop></linearGradient><linearGradient id="g10" x2="1" href="#P" gradientTransform="matrix(174.605,0,0,152.942,530.589,52.249)"><stop stop-color="#3ddeed"></stop><stop offset="1" stop-color="#cb00dd"></stop></linearGradient><linearGradient id="g11" x2="1" href="#P" gradientTransform="matrix(179.201,0,0,147.095,528.291,55.17)"><stop stop-color="#3ddeed"></stop><stop offset="1" stop-color="#cb00dd"></stop></linearGradient><linearGradient id="g12" x2="1" href="#P" gradientTransform="matrix(182.603,0,0,141.635,526.59,57.9)"><stop stop-color="#3ddeed"></stop><stop offset="1" stop-color="#cb00dd"></stop></linearGradient><linearGradient id="g13" x2="1" href="#P" gradientTransform="matrix(184.75,0,0,136.497,525.516,60.471)"><stop stop-color="#3ddeed"></stop><stop offset="1" stop-color="#cb00dd"></stop></linearGradient><linearGradient id="g14" x2="1" href="#P" gradientTransform="matrix(185.588,0,0,132.496,525.097,62.469)"><stop stop-color="#3ddeed"></stop><stop offset="1" stop-color="#cb00dd"></stop></linearGradient><linearGradient id="g15" x2="1" href="#P" gradientTransform="matrix(184.965,0,0,130.16,525.409,63.638)"><stop stop-color="#3ddeed"></stop><stop offset="1" stop-color="#cb00dd"></stop></linearGradient><linearGradient id="g16" x2="1" href="#P" gradientTransform="matrix(183.167,0,0,129.736,526.308,63.851)"><stop stop-color="#3ddeed"></stop><stop offset="1" stop-color="#cb00dd"></stop></linearGradient><linearGradient id="g17" x2="1" href="#P" gradientTransform="matrix(180.14,0,0,131.563,527.821,62.936)"><stop stop-color="#3ddeed"></stop><stop offset="1" stop-color="#cb00dd"></stop></linearGradient><linearGradient id="g18" x2="1" href="#P" gradientTransform="matrix(176.009,0,0,135.629,529.887,60.903)"><stop stop-color="#3ddeed"></stop><stop offset="1" stop-color="#cb00dd"></stop></linearGradient><linearGradient id="g19" x2="1" href="#P" gradientTransform="matrix(170.921,0,0,141.775,532.431,57.83)"><stop stop-color="#3ddeed"></stop><stop offset="1" stop-color="#cb00dd"></stop></linearGradient><linearGradient id="g20" x2="1" href="#P" gradientTransform="matrix(165.139,0,0,149.688,535.322,53.873)"><stop stop-color="#3ddeed"></stop><stop offset="1" stop-color="#cb00dd"></stop></linearGradient><linearGradient id="g21" x2="1" href="#P" gradientTransform="matrix(158.94,0,0,158.946,538.421,49.247)"><stop stop-color="#3ddeed"></stop><stop offset="1" stop-color="#cb00dd"></stop></linearGradient></defs><style>.a{fill:url(#g1)}.b{fill:url(#g2)}.c{fill:url(#g3)}.d{fill:url(#g4)}.e{fill:url(#g5)}.f{fill:url(#g6)}.g{fill:url(#g7)}.h{fill:url(#g8)}.i{fill:url(#g9)}.j{fill:url(#g10)}.k{fill:url(#g11)}.l{fill:url(#g12)}.m{fill:url(#g13)}.n{fill:url(#g14)}.o{fill:url(#g15)}.p{fill:url(#g16)}.q{fill:url(#g17)}.r{fill:url(#g18)}.s{fill:url(#g19)}.t{fill:url(#g20)}.u{fill:url(#g21)}</style><path class="a" d="m645 213.1c-25.4 0-57.9-35.4-73.6-80.7-10.9-31.5-11.3-60.9-0.9-76.8 4.4-6.7 10.8-10.6 18.3-11.2 25.6-2 59.5 34.1 75.6 80.6 10.9 31.5 11.2 61 0.9 76.8-4.5 6.8-10.8 10.7-18.3 11.3q-1 0-2 0zm-54.2-168.3q-1 0-2 0.1c-7.4 0.6-13.4 4.3-17.9 11-10.2 15.7-9.9 45 1 76.4 15.6 45 47.9 80.3 73.1 80.3q1 0 2-0.1c7.4-0.5 13.4-4.3 17.8-11 10.3-15.7 9.9-44.9-0.9-76.3-15.6-45.1-48-80.4-73.1-80.4z"></path><path class="b" d="m650.3 214.6c-24 0-57-32.3-76.3-76-14.4-32.5-18-64.8-9.2-82.4 3.5-6.9 8.7-11.2 15.4-12.7 24.2-5.5 60.8 28.3 81.6 75.3 14.4 32.5 18 64.9 9.2 82.4-3.5 7-8.7 11.3-15.4 12.8q-2.6 0.6-5.3 0.6zm-64.7-171.2q-2.7 0-5.3 0.6c-6.5 1.4-11.6 5.6-15 12.5-8.8 17.4-5.2 49.5 9.1 81.9 19.3 43.5 52 75.6 75.8 75.6q2.7 0 5.3-0.5c6.5-1.5 11.6-5.7 15-12.5 8.8-17.4 5.2-49.6-9.2-82-19.2-43.5-52-75.6-75.7-75.6z"></path><path class="c" d="m655.5 215.4c-22.9 0-56-29-78.4-70.5-18-33.4-25.1-67.5-18-87.1 2.6-7.1 6.9-11.9 12.8-14.2 22.5-8.9 61.4 22 86.8 69 18 33.3 25.1 67.5 17.9 87-2.5 7.1-6.8 11.9-12.7 14.2l-0.1-0.2 0.1 0.2q-3.9 1.6-8.4 1.6zm-75.1-172.8q-4.4 0-8.3 1.5c-5.7 2.3-9.9 6.9-12.5 13.9-7 19.4 0 53.4 18 86.6 22.3 41.3 55.1 70.2 77.8 70.2q4.4 0.1 8.3-1.4c5.7-2.3 9.9-7 12.5-14 7-19.4 0-53.4-18-86.6-22.3-41.3-55.2-70.2-77.8-70.2z"></path><path class="d" d="m660.4 215.5c-21.9 0-54.6-25.6-79.5-64.4-21.5-33.5-32.2-69-27.2-90.5 1.7-7.4 5.2-12.7 10.3-15.8 20.4-12.3 61.2 15.3 90.9 61.6 21.5 33.5 32.2 69 27.2 90.4-1.7 7.4-5.2 12.7-10.3 15.8-3.3 2-7.1 2.9-11.4 2.9zm-85-173.1c-4.1 0-7.9 0.9-11.1 2.9-5 3-8.4 8.2-10.1 15.4-5 21.4 5.7 56.7 27.1 90.1 29.6 46 70 73.5 90.2 61.4l0.1 0.2-0.1-0.2c5-3.1 8.4-8.3 10.1-15.5 4.9-21.3-5.7-56.7-27.1-90-24.8-38.7-57.4-64.3-79.1-64.3z"></path><path class="e" d="m665 215.1q-1.7 0-3.5-0.2c-21.7-2.3-51.7-25-76.4-57.8-33.7-45-46.5-94.3-28.5-110 4.5-3.8 10.4-5.4 17.7-4.6 21.7 2.3 51.7 25 76.3 57.9 33.8 44.9 46.6 94.3 28.6 109.9-3.8 3.2-8.5 4.8-14.2 4.8zm-94.2-172.3c-5.6 0-10.2 1.6-13.8 4.7-17.9 15.5-5 64.5 28.6 109.3 24.5 32.7 54.4 55.3 75.9 57.6 7.2 0.8 13-0.7 17.3-4.5l0.2 0.2-0.2-0.2c17.8-15.5 5-64.5-28.6-109.2-24.5-32.8-54.4-55.4-76-57.7q-1.7-0.2-3.4-0.2z"></path><path class="f" d="m669 214.1c-21 0-51.9-20-79.1-51.2-37.4-43.1-55.4-93.5-40.1-112.4 3.9-4.6 9.4-7.1 16.4-7.2 21-0.3 52.3 19.8 79.6 51.2 37.5 43.2 55.5 93.6 40.1 112.4l-0.2-0.2 0.2 0.2c-3.8 4.7-9.3 7.1-16.4 7.2q-0.2 0-0.5 0zm-102.2-170.2q-0.3 0-0.5 0c-7 0.1-12.3 2.4-16 7-15.3 18.6 2.7 68.7 40 111.6 27.3 31.4 58.4 51.4 79.2 51.1 6.9-0.1 12.3-2.5 16-7 15.2-18.7-2.7-68.8-40.1-111.7-27-31.1-57.8-51-78.6-51z"></path><path class="g" d="m672.4 212.5c-20.1 0-49.8-16.8-77.2-44.1-40.8-40.7-63.9-91.5-51.4-113.4 3.1-5.6 8.3-8.8 15.3-9.8 20-2.7 52 14.5 81.5 43.8 40.8 40.7 63.9 91.6 51.4 113.4-3.2 5.6-8.3 8.9-15.3 9.8q-2.1 0.3-4.3 0.3zm-109-167.1q-2.2 0-4.3 0.3c-6.8 1-11.8 4.2-14.9 9.6-12.3 21.6 10.7 72.2 51.4 112.7 27.3 27.2 56.8 44 76.8 44q2.2 0 4.2-0.3c6.9-0.9 11.9-4.1 14.9-9.5 12.4-21.7-10.6-72.3-51.3-112.8-27.3-27.2-56.8-44-76.8-44z"></path><path class="h" d="m675 210.4c-19.3 0-47.2-13.7-74.1-36.9-43.7-37.6-71.7-88.3-62.4-113 2.5-6.5 7.3-10.8 14.3-12.5 18.9-4.9 51.1 9.2 82.1 35.9 43.7 37.6 71.7 88.3 62.4 113-2.5 6.6-7.3 10.8-14.3 12.6q-3.7 0.9-8 0.9zm-114.1-162.9q-4.3 0-8 1c-6.8 1.7-11.5 5.8-13.9 12.2-9.2 24.5 18.7 74.9 62.2 112.4 30.9 26.6 62.9 40.6 81.7 35.9 6.8-1.8 11.5-5.9 13.9-12.3l0.2 0.1-0.2-0.1c9.2-24.5-18.7-74.9-62.2-112.4-26.9-23.1-54.6-36.8-73.7-36.8z"></path><path class="i" d="m676.4 207.9c-6.7 0-14.4-1.4-22.9-4.2-14.5-4.9-30.6-13.7-46.6-25.5-46.1-34-78.8-83.9-72.8-111.2 1.7-7.6 6.2-12.9 13.3-15.5 8.6-3.3 20.7-2.5 34.8 2.2 14.6 4.9 30.7 13.7 46.7 25.5 46.1 34.1 78.8 84 72.8 111.2-1.7 7.7-6.2 12.9-13.3 15.6-3.5 1.3-7.5 1.9-12 1.9zm-117.1-157.8c-4.4 0-8.3 0.6-11.7 1.8-7 2.7-11.3 7.8-13 15.2-5.9 27.1 26.6 76.8 72.6 110.7 31.7 23.4 63.5 34.3 81 27.7 6.9-2.6 11.3-7.7 12.9-15.2 6-27.1-26.6-76.7-72.5-110.7-25.6-18.8-51.2-29.5-69.3-29.5z"></path><path class="j" d="m676.6 205.2c-17 0-39.7-8-63.4-22.8-48-30-85-78.4-82.5-108 0.8-8.7 4.9-15.2 12.1-18.8 16.7-8.3 47.3-0.9 79.8 19.4 48 30 85 78.5 82.5 108h-0.3 0.3c-0.8 8.7-5 15.2-12.2 18.8-4.5 2.3-10 3.4-16.3 3.4zm-117.4-152.4c-6.2 0-11.7 1-16.1 3.3-7.1 3.5-11.1 9.7-11.9 18.4-2.5 29.3 34.4 77.6 82.3 107.5 23.6 14.7 46.2 22.7 63.1 22.7 6.2 0 11.7-1.1 16.1-3.3 7.1-3.6 11.1-9.8 11.9-18.4 2.5-29.4-34.4-77.6-82.3-107.5-23.6-14.8-46.2-22.7-63.1-22.7z"></path><path class="k" d="m675.5 202.3c-15.4 0-35.1-5.6-55.8-16.3-49.4-25.4-90.3-71.8-91.4-103.3-0.3-10 3.4-17.7 10.8-22.4 15.3-9.7 44.8-5.4 77 11.1 49.3 25.5 90.3 71.8 91.4 103.4 0.3 9.9-3.4 17.7-10.8 22.3-5.5 3.5-12.7 5.2-21.2 5.2zm-115.2-146.6c-8.4 0-15.6 1.6-20.9 5-7.2 4.6-10.9 12.2-10.6 22 1.1 31.3 41.9 77.5 91.1 102.8 32 16.5 61.3 20.8 76.5 11.2 7.2-4.6 10.9-12.2 10.5-21.9-1-31.4-41.9-77.5-91-102.9-20.7-10.7-40.3-16.2-55.6-16.2z"></path><path class="l" d="m672.7 199.5c-13.2 0-29.2-3.5-46.4-10.6-50.1-20.4-94.6-64-99.3-97.2-1.6-11.3 1.6-20.3 9.1-26.2 14.2-11.1 41.7-10 73.4 3 50 20.4 94.6 64.1 99.3 97.2 1.6 11.3-1.6 20.4-9.1 26.3-6.5 5-15.8 7.5-27 7.5zm-109.7-141.1c-11 0-20.1 2.5-26.5 7.5-7.5 5.8-10.6 14.7-9 25.7 4.7 33 49.1 76.5 99 96.9 31.5 12.8 58.8 14 72.8 3 7.4-5.7 10.5-14.6 9-25.7-4.7-33-49.1-76.4-99-96.8-17.2-7-33.1-10.6-46.3-10.6z"></path><path class="m" d="m668.3 197c-10.5 0-22.5-1.9-35.3-5.8-50.2-15.1-97.8-55.4-106.2-89.8-3.1-12.5-0.6-23 7.1-30.3 12.8-12.2 38.6-14 68.9-4.9 50.2 15.1 97.8 55.4 106.2 89.8 3 12.6 0.6 23.1-7.1 30.4-7.4 7-19.2 10.6-33.6 10.6zm-100.8-136c-14.3 0-25.9 3.5-33.2 10.4-7.6 7.2-10 17.5-7 29.9 8.3 34.2 55.8 74.3 105.8 89.4 30.2 9.1 55.7 7.3 68.4-4.7 7.6-7.2 10-17.5 7-29.9-8.4-34.2-55.8-74.3-105.8-89.4-12.8-3.8-24.7-5.7-35.2-5.7z"></path><path class="n" d="m662 195c-7 0-14.5-0.8-22.4-2.3-49.7-9.4-99.8-45.8-111.9-81-4.7-13.8-3.1-25.8 4.7-34.7 11.4-13.1 35.2-17.7 63.8-12.3 49.7 9.5 99.8 45.8 111.8 81 4.7 13.8 3.1 25.8-4.6 34.7-8.2 9.5-23 14.6-41.4 14.6zm-88.3-132c-18.2 0-32.8 5-40.9 14.3-7.6 8.8-9.2 20.6-4.6 34.2 12 35.1 62 71.3 111.5 80.7 28.4 5.4 52 0.9 63.3-12.1 7.6-8.8 9.2-20.6 4.5-34.2-11.9-35.1-61.9-71.3-111.4-80.7-7.9-1.5-15.4-2.2-22.4-2.2z"></path><path class="o" d="m654.8 193.8q-4.3 0-8.7-0.3c-48.5-3.6-100.7-35.5-116.3-71.1-6.4-14.7-5.8-28.6 1.6-39.1 10.1-14.3 31.4-21.3 58.3-19.3 48.5 3.5 100.6 35.4 116.2 71 6.5 14.7 5.9 28.6-1.6 39.1-8.9 12.7-26.7 19.7-49.5 19.7zm-73.8-129.6c-22.6 0-40.2 6.9-49.1 19.4-7.5 10.5-8 23.9-1.6 38.6 15.6 35.5 67.5 67.2 115.8 70.7 26.8 2 47.8-5 57.8-19.1 7.5-10.5 8-23.9 1.6-38.6-15.6-35.4-67.5-67.2-115.8-70.7q-4.5-0.3-8.7-0.3z"></path><path class="p" d="m646.2 193.6c-45.2 0-94.9-26.1-113.1-60.1-8.3-15.6-9-31-2-43.5 8.5-15.2 27.6-24.6 52.3-26 46.7-2.5 100.2 24.4 119.3 60 8.3 15.5 9 31 2 43.4-8.6 15.2-27.6 24.7-52.3 26q-3.1 0.2-6.2 0.2zm-56.6-129.2q-3.1 0-6.2 0.1c-24.5 1.4-43.4 10.7-51.8 25.8-7 12.3-6.3 27.5 2 42.9 18.1 33.9 67.6 59.9 112.6 59.9q3.1 0 6.2-0.2c24.5-1.3 43.4-10.7 51.8-25.7 7-12.3 6.2-27.6-2-43-18.1-33.9-67.6-59.8-112.6-59.8z"></path><path class="q" d="m637.8 194.5c-39.3 0-81.3-20-100.3-49.8-10.2-16.1-12.4-33-6.2-47.5 6.9-16.1 23.7-27.9 46.1-32.3 44.3-8.8 98.5 12.7 120.9 47.8 10.2 16.1 12.4 33 6.2 47.6-6.9 16.1-23.7 27.8-46.1 32.2-6.7 1.4-13.6 2-20.6 2zm-39.8-131c-7 0-13.9 0.6-20.5 1.9-22.3 4.4-38.9 16-45.7 32-6.2 14.4-4 31.1 6.2 47 22.2 35 76.2 56.3 120.3 47.6 22.2-4.4 38.9-16 45.7-31.9 6.2-14.4 4-31.1-6.2-47.1-18.9-29.7-60.6-49.5-99.8-49.5z"></path><path class="r" d="m630.3 196.5c-33.6 0-68.4-15.1-87.3-40.5-12.1-16.3-16-34.4-11-51 5.2-17.4 19.3-31 39.7-38.4 41.3-15 95.6 0.6 121 34.9 12.2 16.2 16.1 34.3 11.1 51-5.2 17.3-19.3 30.9-39.7 38.3-10.7 3.9-22.2 5.7-33.8 5.7zm-24.8-135.1c-11.6 0-23 1.8-33.6 5.7-20.3 7.3-34.3 20.9-39.4 38-4.9 16.5-1 34.4 11 50.6 18.8 25.2 53.4 40.3 86.8 40.3 11.5 0 23-1.8 33.6-5.7 20.2-7.3 34.2-20.8 39.4-38 4.9-16.5 1-34.4-11-50.5-18.8-25.3-53.4-40.4-86.8-40.4z"></path><path class="s" d="m624.2 199.6c-28 0-56.5-11.4-74.6-32.4-13.7-16-19.5-35-16.3-53.6 3.2-18.4 15-34.2 33.2-44.5 37.7-21.2 91.3-11.7 119.7 21.1 13.7 16 19.5 35 16.3 53.6-3.3 18.5-15.1 34.3-33.3 44.5-13.5 7.7-29.2 11.3-45 11.3zm-12.6-141.2c-15.7 0-31.3 3.6-44.8 11.2-18.1 10.1-29.8 25.8-33 44.1-3.2 18.4 2.6 37.3 16.2 53.1 28.2 32.7 81.6 42.1 119 21.1 18-10.2 29.7-25.9 33-44.2 3.2-18.4-2.6-37.3-16.2-53.1-18-20.9-46.3-32.2-74.2-32.2z"></path><path class="t" d="m620 203.6c-23 0-46-8.6-62.8-25.4-15.1-15.2-22.8-34.7-21.8-54.8 1-19.8 10.4-37.9 26.5-50.9 33.4-27.3 85.8-24.2 116.6 6.8 15.2 15.1 22.9 34.6 21.9 54.8-1.1 19.7-10.5 37.8-26.5 50.9-15.3 12.4-34.6 18.6-53.9 18.6zm-4.2-149.2c-19.2 0-38.4 6.1-53.6 18.5-15.9 13-25.2 30.9-26.3 50.5-1 20 6.7 39.3 21.7 54.4 30.7 30.8 82.7 33.8 116 6.8 15.9-13 25.2-31 26.2-50.6 1.1-20-6.6-39.3-21.6-54.4-16.7-16.7-39.6-25.2-62.4-25.2z"></path><path class="u" d="m617.8 208.2c-18.4 0-37-6.4-52-19.4-33.1-28.8-36.7-79.1-8-112.2 28.8-33.1 79.1-36.7 112.2-7.9 33.1 28.7 36.7 79 7.9 112.1-15.7 18.1-37.8 27.4-60.1 27.4zm0.1-158.4c-22.1 0-44.1 9.2-59.7 27.2-28.5 32.9-25 82.8 7.9 111.4 14.9 12.9 33.4 19.3 51.7 19.3 22.2 0 44.2-9.2 59.7-27.2 28.6-32.9 25-82.9-7.8-111.4-15-13-33.4-19.3-51.8-19.3z"></path></svg>