<svg version="1.2" xmlns="http://www.w3.org/2000/svg" viewBox="271.3 261.52 209.1 209.98"><defs><linearGradient id="P" gradientUnits="userSpaceOnUse"></linearGradient><linearGradient id="g1" x2="1" href="#P" gradientTransform="matrix(121.697,0,0,118.505,315.008,307.279)"><stop stop-color="#3ddeed"></stop><stop offset="1" stop-color="#cb00dd"></stop></linearGradient><linearGradient id="g2" x2="1" href="#P" gradientTransform="matrix(127.322,0,0,124.271,312.196,304.396)"><stop stop-color="#3ddeed"></stop><stop offset="1" stop-color="#cb00dd"></stop></linearGradient><linearGradient id="g3" x2="1" href="#P" gradientTransform="matrix(133.02,0,0,130.127,309.347,301.468)"><stop stop-color="#3ddeed"></stop><stop offset="1" stop-color="#cb00dd"></stop></linearGradient><linearGradient id="g4" x2="1" href="#P" gradientTransform="matrix(138.782,0,0,136.062,306.466,298.5)"><stop stop-color="#3ddeed"></stop><stop offset="1" stop-color="#cb00dd"></stop></linearGradient><linearGradient id="g5" x2="1" href="#P" gradientTransform="matrix(144.6,0,0,142.071,303.557,295.496)"><stop stop-color="#3ddeed"></stop><stop offset="1" stop-color="#cb00dd"></stop></linearGradient><linearGradient id="g6" x2="1" href="#P" gradientTransform="matrix(150.465,0,0,148.145,300.625,292.459)"><stop stop-color="#3ddeed"></stop><stop offset="1" stop-color="#cb00dd"></stop></linearGradient><linearGradient id="g7" x2="1" href="#P" gradientTransform="matrix(156.367,0,0,154.273,297.674,289.395)"><stop stop-color="#3ddeed"></stop><stop offset="1" stop-color="#cb00dd"></stop></linearGradient><linearGradient id="g8" x2="1" href="#P" gradientTransform="matrix(162.294,0,0,160.445,294.71,286.309)"><stop stop-color="#3ddeed"></stop><stop offset="1" stop-color="#cb00dd"></stop></linearGradient><linearGradient id="g9" x2="1" href="#P" gradientTransform="matrix(168.235,0,0,166.652,291.739,283.206)"><stop stop-color="#3ddeed"></stop><stop offset="1" stop-color="#cb00dd"></stop></linearGradient><linearGradient id="g10" x2="1" href="#P" gradientTransform="matrix(174.179,0,0,172.88,288.767,280.091)"><stop stop-color="#3ddeed"></stop><stop offset="1" stop-color="#cb00dd"></stop></linearGradient><linearGradient id="g11" x2="1" href="#P" gradientTransform="matrix(180.112,0,0,179.119,285.801,276.972)"><stop stop-color="#3ddeed"></stop><stop offset="1" stop-color="#cb00dd"></stop></linearGradient><linearGradient id="g12" x2="1" href="#P" gradientTransform="matrix(186.02,0,0,185.354,282.847,273.854)"><stop stop-color="#3ddeed"></stop><stop offset="1" stop-color="#cb00dd"></stop></linearGradient><linearGradient id="g13" x2="1" href="#P" gradientTransform="matrix(191.889,0,0,191.572,279.913,270.745)"><stop stop-color="#3ddeed"></stop><stop offset="1" stop-color="#cb00dd"></stop></linearGradient><linearGradient id="g14" x2="1" href="#P" gradientTransform="matrix(197.702,0,0,197.759,277.006,267.653)"><stop stop-color="#3ddeed"></stop><stop offset="1" stop-color="#cb00dd"></stop></linearGradient><linearGradient id="g15" x2="1" href="#P" gradientTransform="matrix(203.445,0,0,203.895,274.135,264.584)"><stop stop-color="#3ddeed"></stop><stop offset="1" stop-color="#cb00dd"></stop></linearGradient><linearGradient id="g16" x2="1" href="#P" gradientTransform="matrix(209.099,0,0,209.968,271.307,261.547)"><stop stop-color="#3ddeed"></stop><stop offset="1" stop-color="#cb00dd"></stop></linearGradient></defs><style>.a{fill:url(#g1)}.b{fill:url(#g2)}.c{fill:url(#g3)}.d{fill:url(#g4)}.e{fill:url(#g5)}.f{fill:url(#g6)}.g{fill:url(#g7)}.h{fill:url(#g8)}.i{fill:url(#g9)}.j{fill:url(#g10)}.k{fill:url(#g11)}.l{fill:url(#g12)}.m{fill:url(#g13)}.n{fill:url(#g14)}.o{fill:url(#g15)}.p{fill:url(#g16)}</style><path class="a" d="m406.3 425.8q0 0-0.1 0l-91-31.9q-0.1 0-0.2-0.1 0-0.1 0-0.2l30.2-86.2c0-0.1 0.2-0.2 0.3-0.1l91 31.9q0.1 0 0.2 0.1 0 0.1 0 0.2l-30.2 86.1q0 0.2-0.2 0.2zm-90.7-32.3l90.6 31.7 29.9-85.7-90.5-31.7z"></path><path class="b" d="m405.1 428.7q0 0-0.1 0l-92.6-36.2q-0.1 0-0.2-0.1 0-0.1 0-0.2l34.2-87.6c0-0.2 0.2-0.2 0.3-0.2l92.7 36.1c0.1 0.1 0.2 0.2 0.1 0.3l-34.2 87.7q0 0.1-0.1 0.1 0 0.1-0.1 0.1zm-92.3-36.5l92.2 35.9 33.9-87.2-92.2-35.9z"></path><path class="c" d="m403.8 431.6q-0.1 0-0.1 0l-94.2-40.6q-0.1 0-0.1-0.1-0.1-0.1 0-0.2l38.3-89.1q0.1-0.1 0.2-0.1 0.1-0.1 0.1 0l94.2 40.5c0.1 0.1 0.2 0.2 0.1 0.4l-38.3 89q-0.1 0.2-0.2 0.2zm-93.9-40.9l93.7 40.3 38.2-88.6-93.7-40.4z"></path><path class="d" d="m402.3 434.6q-0.1 0-0.1-0.1l-95.6-45.1c-0.1-0.1-0.2-0.2-0.1-0.3l42.7-90.5q0.1 0 0.1-0.1 0.1 0 0.2 0l95.6 45.2c0.1 0 0.2 0.2 0.1 0.3l-42.7 90.4q0 0.1-0.1 0.1-0.1 0.1-0.1 0.1zm-95.3-45.6l95.2 45 42.5-90-95.1-44.9z"></path><path class="e" d="m400.6 437.6q0 0-0.1-0.1l-96.8-49.9q-0.1-0.1-0.1-0.2-0.1-0.1 0-0.2l47.2-91.6q0.1-0.1 0.2-0.1 0.1 0 0.2 0l96.8 50c0.1 0 0.2 0.2 0.1 0.3l-47.2 91.6q-0.1 0.2-0.3 0.2zm-96.5-50.3l96.4 49.7 47.1-91.2-96.4-49.7z"></path><path class="f" d="m398.8 440.6q0 0-0.1 0l-97.9-55c-0.2-0.1-0.2-0.2-0.1-0.3l51.9-92.7q0.1-0.1 0.2-0.1 0.1-0.1 0.2 0l98 54.9c0.1 0.1 0.1 0.3 0.1 0.4l-52 92.7q-0.1 0.1-0.2 0.1 0 0-0.1 0zm-97.6-55.3l97.6 54.7 51.7-92.2-97.5-54.8z"></path><path class="g" d="m396.9 443.7q-0.1 0-0.1-0.1l-99-60.1q-0.1-0.1-0.1-0.2 0-0.1 0-0.2l56.9-93.6c0.1-0.1 0.2-0.1 0.4-0.1l98.9 60.2c0.1 0.1 0.2 0.2 0.1 0.3l-56.9 93.6q-0.1 0.2-0.2 0.2zm-98.6-60.5l98.5 59.9 56.6-93.2-98.5-59.9z"></path><path class="h" d="m394.8 446.8q-0.1 0-0.2-0.1l-99.8-65.5q-0.1-0.1-0.1-0.2 0-0.1 0.1-0.2l61.9-94.4c0.1-0.1 0.3-0.1 0.4 0l99.8 65.5q0.1 0 0.1 0.1 0 0.1 0 0.2l-62 94.4q-0.1 0.2-0.2 0.2zm-99.5-65.9l99.4 65.3 61.7-94-99.4-65.3z"></path><path class="i" d="m392.5 449.9q-0.1 0-0.2-0.1l-100.5-71.1q0-0.1-0.1-0.2 0-0.1 0.1-0.1l67.3-95.1c0-0.1 0.2-0.1 0.3 0l100.5 71.1q0.1 0 0.1 0.1 0 0.1-0.1 0.2l-67.2 95.1q-0.1 0-0.2 0.1 0 0 0 0zm-100.2-71.5l100.1 70.9 67-94.7-100.1-70.8z"></path><path class="j" d="m390 453q-0.1 0-0.2-0.1l-100.9-76.9q-0.1 0-0.1-0.1 0-0.1 0-0.2l72.7-95.5c0.1-0.1 0.3-0.1 0.4-0.1l100.9 76.9c0.2 0.1 0.2 0.3 0.1 0.4l-72.7 95.5q-0.1 0.1-0.2 0.1 0 0 0 0zm-100.6-77.2l100.5 76.6 72.4-95.1-100.5-76.6z"></path><path class="k" d="m387.3 456.1q-0.1 0-0.2-0.1l-101.2-82.8c-0.1-0.1-0.1-0.2 0-0.4l78.3-95.7q0.1-0.1 0.2-0.1 0.1 0 0.2 0l101.2 82.9c0.1 0.1 0.1 0.2 0.1 0.3l-78.4 95.8q-0.1 0.1-0.2 0.1 0 0 0 0zm-100.9-83.1l100.9 82.5 78-95.4-100.8-82.5z"></path><path class="l" d="m384.4 459.2q-0.1 0-0.1-0.1l-101.4-88.9c-0.1-0.1-0.1-0.3 0-0.4l84.2-95.9q0.1 0 0.2 0 0.1-0.1 0.2 0l101.3 89q0.1 0.1 0.1 0.2 0 0.1-0.1 0.2l-84.2 95.8q-0.1 0.1-0.2 0.1 0 0 0 0zm-101-89.3l101 88.7 83.9-95.5-101-88.6z"></path><path class="m" d="m381.4 462.3q-0.1 0-0.2-0.1l-101.2-95.3c-0.1-0.1-0.1-0.2 0-0.3l90.2-95.8q0 0 0.1-0.1 0.1 0 0.2 0.1l101.2 95.3q0.1 0.1 0.1 0.2 0 0.1-0.1 0.2l-90.2 95.7q0 0.1-0.1 0.1 0 0 0 0zm-100.9-95.6l100.9 95 89.8-95.4-100.8-95z"></path><path class="n" d="m378.1 465.4q-0.1 0-0.2-0.1l-100.8-101.8c-0.1-0.1-0.1-0.3 0-0.4l96.3-95.4q0.1 0 0.2 0 0.1 0 0.2 0l100.8 101.9c0.1 0.1 0.1 0.2 0 0.3l-96.3 95.4q-0.1 0.1-0.2 0.1zm-100.5-102.1l100.5 101.5 96-95-100.5-101.5z"></path><path class="o" d="m374.6 468.5q-0.1 0-0.2-0.1l-100.2-108.6q-0.1-0.1-0.1-0.2 0-0.1 0.1-0.1l102.7-94.8q0.1-0.1 0.2-0.1 0.1 0 0.2 0.1l100.2 108.5c0.1 0.1 0.1 0.3 0 0.4l-102.7 94.8q-0.1 0.1-0.2 0.1zm-99.9-108.8l99.9 108.2 102.4-94.5-99.9-108.2z"></path><path class="p" d="m370.9 471.5q-0.1 0-0.2-0.1l-99.3-115.4q-0.1-0.1-0.1-0.2 0-0.1 0.1-0.2l109.2-94c0.1-0.1 0.3-0.1 0.4 0l99.3 115.5q0.1 0.1 0.1 0.2 0 0.1-0.1 0.2l-109.2 94q-0.1 0-0.2 0zm-99-115.7l99 115.1 108.9-93.7-99-115z"></path></svg>