<svg version="1.2" xmlns="http://www.w3.org/2000/svg" viewBox="44 38.9 179.6 179.6"><defs><linearGradient id="P" gradientUnits="userSpaceOnUse"></linearGradient><linearGradient id="g1" x2="1" href="#P" gradientTransform="matrix(85.838,0,0,72.155,90.904,92.64)"><stop stop-color="#3ddeed"></stop><stop offset="1" stop-color="#cb00dd"></stop></linearGradient><linearGradient id="g2" x2="1" href="#P" gradientTransform="matrix(87.811,0,0,75.793,89.917,90.821)"><stop stop-color="#3ddeed"></stop><stop offset="1" stop-color="#cb00dd"></stop></linearGradient><linearGradient id="g3" x2="1" href="#P" gradientTransform="matrix(88.922,0,0,81,89.362,88.218)"><stop stop-color="#3ddeed"></stop><stop offset="1" stop-color="#cb00dd"></stop></linearGradient><linearGradient id="g4" x2="1" href="#P" gradientTransform="matrix(89.306,0,0,87.573,89.17,84.931)"><stop stop-color="#3ddeed"></stop><stop offset="1" stop-color="#cb00dd"></stop></linearGradient><linearGradient id="g5" x2="1" href="#P" gradientTransform="matrix(89.327,0,0,95.163,89.159,81.136)"><stop stop-color="#3ddeed"></stop><stop offset="1" stop-color="#cb00dd"></stop></linearGradient><linearGradient id="g6" x2="1" href="#P" gradientTransform="matrix(89.508,0,0,103.248,89.068,77.093)"><stop stop-color="#3ddeed"></stop><stop offset="1" stop-color="#cb00dd"></stop></linearGradient><linearGradient id="g7" x2="1" href="#P" gradientTransform="matrix(90.446,0,0,111.309,88.6,73.064)"><stop stop-color="#3ddeed"></stop><stop offset="1" stop-color="#cb00dd"></stop></linearGradient><linearGradient id="g8" x2="1" href="#P" gradientTransform="matrix(92.775,0,0,118.865,87.435,69.286)"><stop stop-color="#3ddeed"></stop><stop offset="1" stop-color="#cb00dd"></stop></linearGradient><linearGradient id="g9" x2="1" href="#P" gradientTransform="matrix(97.02,0,0,125.477,85.313,65.979)"><stop stop-color="#3ddeed"></stop><stop offset="1" stop-color="#cb00dd"></stop></linearGradient><linearGradient id="g10" x2="1" href="#P" gradientTransform="matrix(103.313,0,0,130.817,82.166,63.31)"><stop stop-color="#3ddeed"></stop><stop offset="1" stop-color="#cb00dd"></stop></linearGradient><linearGradient id="g11" x2="1" href="#P" gradientTransform="matrix(111.481,0,0,134.831,78.082,61.302)"><stop stop-color="#3ddeed"></stop><stop offset="1" stop-color="#cb00dd"></stop></linearGradient><linearGradient id="g12" x2="1" href="#P" gradientTransform="matrix(121.09,0,0,137.217,73.277,60.11)"><stop stop-color="#3ddeed"></stop><stop offset="1" stop-color="#cb00dd"></stop></linearGradient><linearGradient id="g13" x2="1" href="#P" gradientTransform="matrix(131.45,0,0,138.313,68.097,59.561)"><stop stop-color="#3ddeed"></stop><stop offset="1" stop-color="#cb00dd"></stop></linearGradient><linearGradient id="g14" x2="1" href="#P" gradientTransform="matrix(142.012,0,0,138.569,62.816,59.433)"><stop stop-color="#3ddeed"></stop><stop offset="1" stop-color="#cb00dd"></stop></linearGradient><linearGradient id="g15" x2="1" href="#P" gradientTransform="matrix(152.043,0,0,138.622,57.801,59.408)"><stop stop-color="#3ddeed"></stop><stop offset="1" stop-color="#cb00dd"></stop></linearGradient><linearGradient id="g16" x2="1" href="#P" gradientTransform="matrix(160.913,0,0,139.311,53.366,59.062)"><stop stop-color="#3ddeed"></stop><stop offset="1" stop-color="#cb00dd"></stop></linearGradient><linearGradient id="g17" x2="1" href="#P" gradientTransform="matrix(168.229,0,0,141.637,49.708,57.901)"><stop stop-color="#3ddeed"></stop><stop offset="1" stop-color="#cb00dd"></stop></linearGradient><linearGradient id="g18" x2="1" href="#P" gradientTransform="matrix(173.715,0,0,146.577,46.965,55.432)"><stop stop-color="#3ddeed"></stop><stop offset="1" stop-color="#cb00dd"></stop></linearGradient><linearGradient id="g19" x2="1" href="#P" gradientTransform="matrix(177.294,0,0,154.663,45.175,51.393)"><stop stop-color="#3ddeed"></stop><stop offset="1" stop-color="#cb00dd"></stop></linearGradient><linearGradient id="g20" x2="1" href="#P" gradientTransform="matrix(179.143,0,0,165.867,44.241,45.784)"><stop stop-color="#3ddeed"></stop><stop offset="1" stop-color="#cb00dd"></stop></linearGradient><linearGradient id="g21" x2="1" href="#P" gradientTransform="matrix(179.648,0,0,179.648,43.999,38.893)"><stop stop-color="#3ddeed"></stop><stop offset="1" stop-color="#cb00dd"></stop></linearGradient></defs><style>.a{fill:url(#g1)}.b{fill:url(#g2)}.c{fill:url(#g3)}.d{fill:url(#g4)}.e{fill:url(#g5)}.f{fill:url(#g6)}.g{fill:url(#g7)}.h{fill:url(#g8)}.i{fill:url(#g9)}.j{fill:url(#g10)}.k{fill:url(#g11)}.l{fill:url(#g12)}.m{fill:url(#g13)}.n{fill:url(#g14)}.o{fill:url(#g15)}.p{fill:url(#g16)}.q{fill:url(#g17)}.r{fill:url(#g18)}.s{fill:url(#g19)}.t{fill:url(#g20)}.u{fill:url(#g21)}</style><path class="a" d="m141.6 164.8c-9.8 0-20.4-2.9-29.7-8.9-11.3-7.3-18.8-17.8-20.6-28.9-1.3-8.2 0.6-15.9 5.6-22.1 12.1-14.9 38.5-16.4 58.8-3.3 11.3 7.2 18.8 17.8 20.6 28.9 1.4 8.2-0.6 15.8-5.6 22-6.5 8.1-17.3 12.3-29.1 12.3zm-15.6-71.8c-11.6 0-22.3 4.1-28.8 12.1-5 6.2-6.9 13.7-5.6 21.8 1.8 11 9.3 21.5 20.5 28.7 20.2 13 46.4 11.5 58.4-3.3 4.9-6.1 6.8-13.7 5.5-21.8-1.8-11-9.2-21.4-20.5-28.7-9.2-5.9-19.7-8.8-29.5-8.8z"></path><path class="b" d="m138.4 166.6c-6.9 0-14-1.4-20.9-4.4-12.1-5.2-21.3-14.5-25.4-25.5-3.2-8.7-2.9-17.8 1-25.7 8.9-18.5 34.5-25.6 57-15.8 12.1 5.3 21.4 14.6 25.4 25.6 3.3 8.7 2.9 17.8-0.9 25.6-6.3 12.9-20.5 20.2-36.2 20.2zm-45.2-55.5l0.2 0.1c-3.8 7.7-4.2 16.7-1 25.3 4.1 11 13.3 20.2 25.3 25.4 22.3 9.7 47.7 2.7 56.6-15.6 3.8-7.8 4.1-16.8 0.9-25.4-4-10.9-13.2-20.2-25.2-25.4-22.3-9.7-47.7-2.7-56.6 15.7z"></path><path class="c" d="m135.7 169.2c-3.8 0-7.6-0.4-11.5-1.4-12.2-2.9-22.8-10.4-29-20.6-5.5-9-7.2-19.2-4.8-28.9h0.2-0.2c5.3-21.6 29.1-34.5 53-28.7 12.3 2.9 22.9 10.5 29.1 20.7 5.4 8.9 7.1 19.2 4.7 28.9-4.4 18-21.9 30-41.5 30zm-3.8-80.6c-19.4 0-36.7 11.8-41.1 29.8-2.4 9.6-0.7 19.7 4.7 28.6 6.1 10.1 16.6 17.6 28.8 20.5 23.7 5.7 47.3-7 52.6-28.4 2.3-9.6 0.7-19.8-4.7-28.7-6.2-10.1-16.7-17.5-28.9-20.5-3.8-0.9-7.6-1.3-11.4-1.3z"></path><path class="d" d="m134.1 172.5q-1.1 0-2.2 0c-24.6-1.2-43.8-21.8-42.7-45.9 0.5-11.5 5.5-22.2 14.1-30 8.9-8.1 20.4-12.2 32.5-11.6 24.6 1.2 43.7 21.7 42.6 45.9-0.5 11.5-5.5 22.1-14.1 30-8.3 7.5-18.9 11.6-30.2 11.6zm-0.5-87.2c-11.2 0-21.8 4.1-30 11.6-8.5 7.7-13.5 18.3-14 29.7-1.1 23.9 17.9 44.3 42.3 45.5 12 0.6 23.4-3.5 32.2-11.5 8.5-7.8 13.5-18.3 14-29.8 1-23.9-17.9-44.3-42.3-45.4q-1.1-0.1-2.2-0.1z"></path><path class="e" d="m133.6 176.3c-9 0-17.9-2.9-25.4-8.5-10.2-7.6-16.8-19-18.6-32.1-3.5-26 13.4-50.2 37.8-54 11.3-1.8 22.7 1 32.1 8 10.1 7.6 16.7 18.9 18.5 32 3.6 26-13.4 50.2-37.8 54.1q-3.3 0.5-6.6 0.5zm0.4-94.8q-3.3 0-6.5 0.5c-24.2 3.8-41 27.9-37.5 53.6 1.8 13 8.3 24.3 18.4 31.8 9.3 6.9 20.6 9.8 31.8 8 24.1-3.8 41-27.9 37.4-53.6-1.7-13-8.3-24.3-18.4-31.8-7.4-5.6-16.2-8.5-25.2-8.5z"></path><path class="f" d="m134.8 180.3c-5.9 0-11.8-1.3-17.4-3.9-11.9-5.8-21.3-17.1-25.6-31.1-8.5-26.9 3.5-56.3 26.7-65.5 10.3-4 21.5-3.6 31.7 1.3 12 5.7 21.3 17 25.7 31 8.4 27-3.6 56.3-26.8 65.5-4.6 1.8-9.5 2.7-14.3 2.7zm-1.9-102.8c-4.8 0-9.6 0.9-14.2 2.7-23 9.1-34.9 38.2-26.6 65 4.4 13.9 13.7 25.1 25.5 30.8 10.1 4.8 21.2 5.2 31.4 1.2 23-9.1 34.9-38.2 26.5-65-4.3-13.9-13.6-25.1-25.5-30.8-5.5-2.6-11.3-3.9-17.1-3.9z"></path><path class="g" d="m137.1 184.4q-4.7 0-9.4-1.2c-13.2-3.4-24.9-13.6-32-28.1-13.4-27-7.2-60.8 13.8-75.3 9-6.3 19.8-8.3 30.4-5.5 13.2 3.4 24.9 13.6 32.1 28 13.4 27 7.2 60.8-13.8 75.4-6.4 4.4-13.7 6.7-21.1 6.7zm-41-29.4c7.1 14.3 18.6 24.4 31.7 27.8 10.5 2.7 21.2 0.7 30.1-5.5 20.9-14.4 27-48 13.7-74.8-7.1-14.3-18.7-24.5-31.8-27.8-10.5-2.7-21.2-0.8-30.1 5.4-20.8 14.5-27 48-13.6 74.9z"></path><path class="h" d="m140.5 188.2q-1 0-2.1-0.1c-13.7-0.8-27.1-9.3-37-23.3-18.3-26-18.7-63.4-0.8-83.3 7.6-8.5 17.8-12.8 28.6-12.2 13.7 0.9 27.2 9.3 37 23.3 18.3 26 18.7 63.4 0.9 83.3-7.1 7.9-16.5 12.3-26.6 12.3zm-13.4-118.5c-9.9 0-19.2 4.3-26.2 12.1-17.7 19.8-17.3 56.9 0.9 82.8 9.7 13.8 23.1 22.3 36.7 23.1 10.7 0.6 20.7-3.7 28.3-12.1 17.7-19.8 17.3-56.9-0.9-82.7-9.8-13.9-23.2-22.3-36.7-23.1q-1.1-0.1-2.1-0.1z"></path><path class="i" d="m144.7 191.5c-12.2 0-25-6.3-35.8-17.6-22.9-23.9-30.4-63.7-16.7-88.6 5.9-10.8 15.2-17.6 26.2-19 13.5-1.8 28.2 4.5 40.4 17.2 22.9 24 30.4 63.7 16.7 88.7-6 10.8-15.3 17.5-26.3 19q-2.2 0.3-4.5 0.3zm-21.7-125.1q-2.3 0-4.5 0.3c-10.9 1.4-20.1 8.1-25.9 18.8-13.7 24.8-6.2 64.3 16.6 88.1 12.1 12.6 26.6 18.9 40 17.1 10.8-1.4 20-8.1 25.9-18.8 13.6-24.7 6.1-64.3-16.7-88.1-10.7-11.2-23.4-17.4-35.4-17.4z"></path><path class="j" d="m149.3 194.1c-10.1 0-21.1-4.1-31.3-12-27.1-20.8-42.1-61.6-33.4-91.1 3.9-13.2 12.2-22.5 23.2-26.1 12.7-4.1 28-0.3 41.9 10.4 27.1 20.8 42 61.7 33.3 91.1-3.9 13.2-12.1 22.5-23.2 26.1-3.3 1.1-6.9 1.6-10.5 1.6zm-30.9-130.3c-3.6 0-7.1 0.5-10.4 1.6-10.9 3.5-19 12.7-22.9 25.8-8.7 29.2 6.2 69.9 33.1 90.5 13.9 10.7 29 14.4 41.5 10.3 10.9-3.5 19-12.6 22.9-25.7 8.6-29.3-6.3-69.9-33.2-90.6-10.2-7.8-21-11.9-31-11.9z"></path><path class="k" d="m153.7 196.1c-7.9 0-16.5-2.4-25.3-7.1-30.5-16.6-53-57.1-50.1-90.3 1.4-15.6 8.2-27.5 19.2-33.4 11.6-6.3 26.5-5.1 41.7 3.2 30.6 16.5 53 57 50.1 90.2-1.4 15.7-8.2 27.5-19.1 33.4-5 2.7-10.5 4-16.5 4zm-39.8-134.3c-5.8 0-11.3 1.3-16.2 3.9-10.8 5.8-17.5 17.6-18.9 33-2.9 33.1 19.5 73.4 49.9 89.8 15.1 8.3 29.7 9.4 41.2 3.2 10.8-5.8 17.6-17.5 18.9-33 2.9-33-19.4-73.3-49.8-89.8-8.7-4.7-17.2-7.1-25.1-7.1z"></path><path class="l" d="m157.9 197.3c-5.6 0-11.6-1-17.9-3.2-33.1-11.3-62.9-49.9-66.4-85.9-1.7-17.9 3.2-32.4 13.9-40.8 10.1-8 24.4-9.5 40.1-4.1 33.2 11.4 63 49.9 66.4 85.9 1.8 17.9-3.2 32.4-13.8 40.8-6.1 4.9-13.8 7.3-22.3 7.3zm-48.1-136.7c-8.5 0-16 2.4-22 7.2-10.5 8.3-15.4 22.6-13.7 40.3 3.5 35.9 33.1 74.2 66.1 85.5 15.5 5.4 29.6 3.9 39.7-4 10.5-8.3 15.3-22.6 13.6-40.3-3.4-35.9-33.1-74.2-66-85.5-6.2-2.1-12.2-3.2-17.7-3.2z"></path><path class="m" d="m160.9 197.9q-4.1 0-8.5-0.7c-34.7-5.2-71.3-40.2-81.6-77.9-5.3-19.4-2.7-36.9 7.1-47.9 8.5-9.6 21.8-13.5 37.4-11.2 34.7 5.3 71.3 40.2 81.6 77.9 5.2 19.5 2.7 36.9-7.1 47.9-6.9 7.8-17 11.9-28.9 11.9zm-54.2-137.8c-11.7 0-21.6 4-28.4 11.7-9.7 10.8-12.2 28.1-7 47.4 10.2 37.5 46.6 72.3 81.2 77.5 15.4 2.3 28.5-1.6 36.9-11 9.6-10.9 12.2-28.2 6.9-47.4-10.2-37.6-46.6-72.3-81.1-77.5q-4.4-0.7-8.5-0.7z"></path><path class="n" d="m162.4 198c-34.6 0-75.4-29.1-92.3-66.3-9.3-20.5-9.7-40.2-1.2-54.1 6.7-11 18.7-17.4 33.6-18.1 35.1-1.6 77.7 28.1 95 66.2 9.3 20.5 9.8 40.3 1.3 54.2-6.8 10.9-18.7 17.4-33.7 18q-1.4 0.1-2.7 0.1zm2.7-0.6v0.3-0.3c14.8-0.7 26.6-7 33.2-17.8 8.4-13.8 7.9-33.3-1.3-53.7-17.2-37.9-59.6-67.4-94.4-65.8-14.8 0.6-26.6 7-33.2 17.8-8.5 13.7-8 33.2 1.3 53.6 17.1 37.9 59.5 67.5 94.4 65.9z"></path><path class="o" d="m161.9 198c-31.8 0-69.4-21.2-90-52.9-13.5-20.6-17.5-42.1-11.1-58.9 4.8-12.5 14.9-21.1 29.1-24.8 34.1-9 81.6 13.8 105.9 50.9 13.5 20.6 17.5 42.1 11 58.9-4.8 12.5-14.8 21.1-29.1 24.9-5 1.3-10.3 1.9-15.8 1.9zm-56.2-138c-5.4 0-10.7 0.6-15.7 1.9-14 3.7-23.9 12.2-28.6 24.5-6.4 16.7-2.4 37.9 11 58.4 24.1 36.9 71.3 59.6 105.2 50.7 14-3.7 23.9-12.2 28.7-24.5 6.4-16.6 2.4-37.9-11-58.4-20.6-31.4-58-52.6-89.6-52.6z"></path><path class="p" d="m159.3 198.4c-28.4 0-61-14.5-83.2-39.3-17.4-19.6-25.4-42-21.9-61.4 2.5-14 10.7-24.9 23.6-31.7 31.8-16.7 82.8-2.2 113.7 32.4 17.5 19.5 25.5 41.9 22 61.4-2.6 13.9-10.7 24.9-23.7 31.7l-0.1-0.3 0.1 0.3c-8.9 4.7-19.4 6.9-30.5 6.9zm-50.9-138.7c-11 0-21.4 2.2-30.3 6.8-12.8 6.7-20.8 17.5-23.3 31.3-3.5 19.3 4.4 41.4 21.8 60.8 22.1 24.7 54.5 39.2 82.7 39.2 11 0 21.4-2.2 30.2-6.9 12.8-6.7 20.9-17.5 23.4-31.2 3.5-19.3-4.5-41.5-21.8-60.9-22.1-24.7-54.5-39.1-82.7-39.1z"></path><path class="q" d="m154.3 199.5c-23.9 0-50.2-9-71.4-26.5-20.8-17.2-32.9-39.4-33.2-60.8-0.2-15.4 5.7-28.9 17.2-38.8 28-24.4 80.9-19.5 117.8 11 20.8 17.2 33 39.4 33.2 60.9 0.2 15.4-5.7 28.8-17.1 38.7-12 10.5-28.6 15.5-46.5 15.5zm-41-141c-17.7 0-34.1 5-46 15.4-11.3 9.8-17.2 23-17 38.3 0.3 21.3 12.4 43.3 33.1 60.3 36.6 30.3 89.1 35.3 117 11.1l0.2 0.2-0.2-0.2c11.2-9.9 17.1-23.1 16.9-38.3-0.3-21.3-12.3-43.3-33-60.4-21-17.3-47.2-26.4-71-26.4z"></path><path class="r" d="m147.9 202c-18.4 0-37.9-5-55.6-15.5-23.2-13.7-39.3-34.4-44-56.8-3.5-16.6-0.2-33 9.2-46.1 22.9-31.9 75.8-37.6 117.8-12.7 23.3 13.7 39.3 34.5 44 56.8 3.5 16.6 0.2 33-9.2 46.1l-0.3-0.2 0.3 0.2c-13.3 18.5-36.7 28.2-62.2 28.2zm-28.2-145.9c-25.3 0-48.5 9.6-61.6 27.9-9.5 13.1-12.6 28.9-9.1 45.6 4.6 22.2 20.6 42.7 43.7 56.4 17.5 10.3 36.9 15.4 55.2 15.4 25.3 0 48.5-9.6 61.7-28 9.4-13.1 12.6-28.9 9.1-45.5-4.7-22.2-20.6-42.8-43.7-56.4-17.6-10.4-37-15.4-55.3-15.4z"></path><path class="s" d="m141.6 206.1c-12.4 0-25.1-2.3-37.5-7.1-24.5-9.5-43.9-27.5-53.1-49.3-7.5-17.7-7.8-36.6-0.7-53.3 16.4-38.7 67.2-55.8 113.2-38 24.6 9.5 43.9 27.5 53.2 49.4 7.5 17.6 7.7 36.5 0.6 53.2-11.9 28.3-42.3 45.1-75.7 45.1zm-15.5-154c-33.2 0-63.3 16.5-75.2 44.6-6.9 16.5-6.7 35.2 0.7 52.7 9.2 21.7 28.4 39.5 52.8 49 45.7 17.6 96.1 0.8 112.3-37.6 7-16.6 6.8-35.3-0.6-52.8-9.2-21.7-28.5-39.5-52.8-48.9-12.3-4.8-25-7-37.2-7z"></path><path class="t" d="m136.6 211.7c-6.1 0-12.3-0.6-18.5-1.8-23.6-4.6-44.1-17.4-57.8-35.9-13.6-18.6-18.8-40.7-14.6-62.4 8.7-44.8 55.3-73.5 103.9-64 48.6 9.4 81.1 53.5 72.4 98.3l-0.4-0.1 0.4 0.1c-7.6 38.9-44 65.8-85.4 65.8zm-5.6-165.2c-41 0-77.1 26.6-84.6 65.2-4.2 21.5 1 43.5 14.5 61.9 13.6 18.4 33.9 31 57.3 35.5 6.2 1.3 12.4 1.8 18.4 1.8 41.1 0 77.2-26.5 84.7-65.2 8.6-44.3-23.6-88-71.8-97.4-6.2-1.2-12.4-1.8-18.5-1.8z"></path><path class="u" d="m133.8 218.5c-49.5 0-89.8-40.3-89.8-89.8 0-49.5 40.3-89.8 89.8-89.8 49.6 0 89.8 40.3 89.8 89.8 0 49.5-40.2 89.8-89.8 89.8zm0-178.9c-49.1 0-89.1 40-89.1 89.1 0 49.1 40 89.1 89.1 89.1 49.1 0 89.1-40 89.1-89.1 0-49.1-40-89.1-89.1-89.1z"></path></svg>