<svg version="1.2" xmlns="http://www.w3.org/2000/svg" viewBox="511.3 258.38 213.2 213.13"><defs><linearGradient id="P" gradientUnits="userSpaceOnUse"></linearGradient><linearGradient id="g1" x2="1" href="#P" gradientTransform="matrix(22.285,0,0,22.283,606.75,353.793)"><stop stop-color="#3ddeed"></stop><stop offset="1" stop-color="#cb00dd"></stop></linearGradient><linearGradient id="g2" x2="1" href="#P" gradientTransform="matrix(25.512,0,0,25.508,605.135,352.183)"><stop stop-color="#3ddeed"></stop><stop offset="1" stop-color="#cb00dd"></stop></linearGradient><linearGradient id="g3" x2="1" href="#P" gradientTransform="matrix(28.923,0,0,28.916,603.427,350.477)"><stop stop-color="#3ddeed"></stop><stop offset="1" stop-color="#cb00dd"></stop></linearGradient><linearGradient id="g4" x2="1" href="#P" gradientTransform="matrix(32.512,0,0,32.512,601.632,348.675)"><stop stop-color="#3ddeed"></stop><stop offset="1" stop-color="#cb00dd"></stop></linearGradient><linearGradient id="g5" x2="1" href="#P" gradientTransform="matrix(36.256,0,0,36.256,599.763,346.807)"><stop stop-color="#3ddeed"></stop><stop offset="1" stop-color="#cb00dd"></stop></linearGradient><linearGradient id="g6" x2="1" href="#P" gradientTransform="matrix(40.109,0,0,40.109,597.837,344.88)"><stop stop-color="#3ddeed"></stop><stop offset="1" stop-color="#cb00dd"></stop></linearGradient><linearGradient id="g7" x2="1" href="#P" gradientTransform="matrix(44.037,0,0,44.038,595.873,342.916)"><stop stop-color="#3ddeed"></stop><stop offset="1" stop-color="#cb00dd"></stop></linearGradient><linearGradient id="g8" x2="1" href="#P" gradientTransform="matrix(47.994,0,0,47.989,593.894,340.942)"><stop stop-color="#3ddeed"></stop><stop offset="1" stop-color="#cb00dd"></stop></linearGradient><linearGradient id="g9" x2="1" href="#P" gradientTransform="matrix(51.919,0,0,51.919,591.932,338.975)"><stop stop-color="#3ddeed"></stop><stop offset="1" stop-color="#cb00dd"></stop></linearGradient><linearGradient id="g10" x2="1" href="#P" gradientTransform="matrix(55.747,0,0,55.748,590.018,337.061)"><stop stop-color="#3ddeed"></stop><stop offset="1" stop-color="#cb00dd"></stop></linearGradient><linearGradient id="g11" x2="1" href="#P" gradientTransform="matrix(59.399,0,0,59.4,588.192,335.235)"><stop stop-color="#3ddeed"></stop><stop offset="1" stop-color="#cb00dd"></stop></linearGradient><linearGradient id="g12" x2="1" href="#P" gradientTransform="matrix(62.786,0,0,62.787,586.499,333.541)"><stop stop-color="#3ddeed"></stop><stop offset="1" stop-color="#cb00dd"></stop></linearGradient><linearGradient id="g13" x2="1" href="#P" gradientTransform="matrix(65.806,0,0,65.807,584.988,332.031)"><stop stop-color="#3ddeed"></stop><stop offset="1" stop-color="#cb00dd"></stop></linearGradient><linearGradient id="g14" x2="1" href="#P" gradientTransform="matrix(68.345,0,0,68.346,583.719,330.762)"><stop stop-color="#3ddeed"></stop><stop offset="1" stop-color="#cb00dd"></stop></linearGradient><linearGradient id="g15" x2="1" href="#P" gradientTransform="matrix(70.276,0,0,70.277,582.753,329.796)"><stop stop-color="#3ddeed"></stop><stop offset="1" stop-color="#cb00dd"></stop></linearGradient><linearGradient id="g16" x2="1" href="#P" gradientTransform="matrix(71.458,0,0,71.459,582.162,329.206)"><stop stop-color="#3ddeed"></stop><stop offset="1" stop-color="#cb00dd"></stop></linearGradient><linearGradient id="g17" x2="1" href="#P" gradientTransform="matrix(71.738,0,0,71.738,582.022,329.066)"><stop stop-color="#3ddeed"></stop><stop offset="1" stop-color="#cb00dd"></stop></linearGradient><linearGradient id="g18" x2="1" href="#P" gradientTransform="matrix(84.316,0,0,84.316,575.733,322.777)"><stop stop-color="#3ddeed"></stop><stop offset="1" stop-color="#cb00dd"></stop></linearGradient><linearGradient id="g19" x2="1" href="#P" gradientTransform="matrix(97.857,0,0,97.858,568.963,316.006)"><stop stop-color="#3ddeed"></stop><stop offset="1" stop-color="#cb00dd"></stop></linearGradient><linearGradient id="g20" x2="1" href="#P" gradientTransform="matrix(112.321,0,0,112.321,561.731,308.774)"><stop stop-color="#3ddeed"></stop><stop offset="1" stop-color="#cb00dd"></stop></linearGradient><linearGradient id="g21" x2="1" href="#P" gradientTransform="matrix(127.646,0,0,127.647,554.068,301.111)"><stop stop-color="#3ddeed"></stop><stop offset="1" stop-color="#cb00dd"></stop></linearGradient><linearGradient id="g22" x2="1" href="#P" gradientTransform="matrix(143.748,0,0,143.748,546.017,293.061)"><stop stop-color="#3ddeed"></stop><stop offset="1" stop-color="#cb00dd"></stop></linearGradient><linearGradient id="g23" x2="1" href="#P" gradientTransform="matrix(160.513,0,0,160.514,537.635,284.678)"><stop stop-color="#3ddeed"></stop><stop offset="1" stop-color="#cb00dd"></stop></linearGradient><linearGradient id="g24" x2="1" href="#P" gradientTransform="matrix(177.796,0,0,177.796,528.993,276.037)"><stop stop-color="#3ddeed"></stop><stop offset="1" stop-color="#cb00dd"></stop></linearGradient><linearGradient id="g25" x2="1" href="#P" gradientTransform="matrix(195.417,0,0,195.417,520.183,267.226)"><stop stop-color="#3ddeed"></stop><stop offset="1" stop-color="#cb00dd"></stop></linearGradient><linearGradient id="g26" x2="1" href="#P" gradientTransform="matrix(213.161,0,0,213.153,511.311,258.363)"><stop stop-color="#3ddeed"></stop><stop offset="1" stop-color="#cb00dd"></stop></linearGradient></defs><style>.a{fill:url(#g1)}.b{fill:url(#g2)}.c{fill:url(#g3)}.d{fill:url(#g4)}.e{fill:url(#g5)}.f{fill:url(#g6)}.g{fill:url(#g7)}.h{fill:url(#g8)}.i{fill:url(#g9)}.j{fill:url(#g10)}.k{fill:url(#g11)}.l{fill:url(#g12)}.m{fill:url(#g13)}.n{fill:url(#g14)}.o{fill:url(#g15)}.p{fill:url(#g16)}.q{fill:url(#g17)}.r{fill:url(#g18)}.s{fill:url(#g19)}.t{fill:url(#g20)}.u{fill:url(#g21)}.v{fill:url(#g22)}.w{fill:url(#g23)}.x{fill:url(#g24)}.y{fill:url(#g25)}.z{fill:url(#g26)}</style><path class="a" d="m625.4 376.1q0 0 0 0l-18.3-3.3c-0.1 0-0.2 0-0.3-0.1 0-0.1-0.1-0.2 0-0.3l3.2-18.3c0-0.1 0.1-0.2 0.1-0.2 0.1-0.1 0.2-0.1 0.3-0.1q0 0 0 0l18.3 3.2c0.2 0.1 0.4 0.3 0.3 0.5l-3.2 18.3c0 0-0.1 0.2-0.2 0.2 0 0-0.1 0.1-0.2 0.1zm-18-3.8l17.8 3.1 3.2-17.8-17.9-3.2z"></path><path class="b" d="m625 377.7q0 0-0.1 0l-19.5-5.3c-0.2 0-0.3-0.2-0.3-0.4l5.3-19.5c0-0.1 0.1-0.2 0.2-0.3 0 0 0.2 0 0.2 0l19.6 5.2c0.2 0.1 0.3 0.3 0.2 0.5l-5.2 19.5c0 0.1-0.1 0.2-0.2 0.2q-0.1 0.1-0.2 0.1zm-19.2-5.8l19.1 5.1 5.1-19.1-19.1-5.1zm4.9-19.1q0 0 0 0z"></path><path class="c" d="m624.4 379.4q0 0-0.1 0l-20.6-7.5c-0.1-0.1-0.2-0.2-0.2-0.2q-0.1-0.2 0-0.3l7.5-20.7c0 0 0.1-0.2 0.2-0.2 0 0 0.2 0 0.3 0l20.6 7.5c0.1 0 0.2 0.1 0.2 0.2 0.1 0.1 0.1 0.2 0 0.3l-7.5 20.6c0 0.1-0.1 0.2-0.2 0.3q-0.1 0-0.2 0zm-20.3-8l20.2 7.3 7.4-20.2-20.2-7.4z"></path><path class="d" d="m623.7 381.2q-0.1 0-0.2 0l-21.6-10.1c-0.2-0.1-0.3-0.4-0.2-0.6l10.1-21.6c0-0.1 0.1-0.2 0.2-0.2q0.1-0.1 0.3 0l21.6 10.1c0.1 0 0.2 0.1 0.2 0.2 0.1 0.1 0 0.3 0 0.3l-10.1 21.7c0 0-0.1 0.1-0.2 0.2q-0.1 0-0.1 0zm-21.4-10.6l21.3 9.9 9.9-21.2-21.3-9.9z"></path><path class="e" d="m622.6 383.1q-0.1 0-0.2-0.1l-22.4-13c-0.2-0.1-0.3-0.3-0.2-0.5l13-22.5c0.1-0.2 0.4-0.3 0.5-0.1l22.5 12.9c0.2 0.1 0.3 0.4 0.2 0.6l-13 22.5q-0.1 0.1-0.3 0.1 0 0.1-0.1 0.1zm-22.2-13.5l22.2 12.8 12.7-22.1-22.1-12.8zm35.1-9.3zm-22.5-12.9q0 0 0 0 0 0 0 0z"></path><path class="f" d="m621.4 385q-0.2 0-0.3-0.1l-23.1-16.2q-0.1-0.1-0.2-0.2 0-0.2 0.1-0.3l16.2-23.1c0.1-0.2 0.4-0.3 0.6-0.1q0 0 0 0l23.1 16.1c0.2 0.2 0.2 0.4 0.1 0.6l-16.2 23.1q-0.1 0.2-0.3 0.2 0 0 0 0zm0.1-0.6q0 0 0 0zm-23-16l22.8 15.9 16-22.8-22.8-15.9zm15.8-22.9q0 0 0 0z"></path><path class="g" d="m619.8 387q-0.2 0-0.3-0.1l-23.5-19.7q-0.1-0.2-0.1-0.3 0-0.2 0.1-0.4l19.7-23.4q0.1-0.2 0.3-0.2 0.1 0 0.3 0.1l23.5 19.7q0.1 0.1 0.1 0.3 0 0.2-0.1 0.3l-19.7 23.5q-0.1 0.2-0.3 0.2zm-23.2-20.2l23.2 19.5 19.4-23.2-23.2-19.5zm42.8-3.6zm-23.4-19.7q0 0 0 0 0 0 0 0z"></path><path class="h" d="m617.9 388.9q-0.2 0-0.3-0.1l-23.6-23.6q-0.1-0.1-0.1-0.3 0-0.1 0.1-0.3l23.6-23.5c0.1-0.2 0.4-0.2 0.6 0l23.6 23.5q0.1 0.2 0.1 0.3 0 0.2-0.1 0.3l-23.6 23.6q-0.1 0.1-0.3 0.1zm-23.3-24l23.3 23.4 23.3-23.4-23.3-23.3zm46.7 0.1h0.1z"></path><path class="i" d="m615.7 390.9q-0.1 0-0.1 0-0.2 0-0.3-0.2l-23.3-27.7c-0.1-0.2-0.1-0.5 0.1-0.6l27.7-23.3q0.2-0.1 0.4-0.1 0.1 0 0.3 0.1l23.2 27.8c0.2 0.2 0.2 0.5 0 0.6l-27.8 23.3q-0.1 0.1-0.2 0.1zm-23.1-28.2l23.1 27.5 27.5-23.1-23.1-27.5zm50.7 4.6zm-23.3-27.7q0 0 0 0 0 0 0 0z"></path><path class="j" d="m613.1 392.8q-0.1 0-0.1 0-0.2 0-0.3-0.2l-22.6-32.2q-0.1-0.2-0.1-0.4 0.1-0.2 0.2-0.3l32.3-22.6q0.1-0.1 0.3 0 0.2 0 0.3 0.2l22.6 32.2q0.1 0.2 0.1 0.3-0.1 0.2-0.2 0.3l-32.3 22.6q-0.1 0.1-0.2 0.1zm-22.4-32.7l22.4 32 32-22.4-22.4-32zm54.5 9.7zm-22.6-32.2q0 0 0 0z"></path><path class="k" d="m610.1 394.6q-0.1 0-0.2 0-0.2 0-0.3-0.2l-21.3-37.1c-0.2-0.2-0.1-0.5 0.1-0.6l37.1-21.4q0.2-0.1 0.3 0 0.2 0 0.3 0.2l21.4 37c0.2 0.3 0.1 0.5-0.1 0.7l-37.1 21.4q-0.1 0-0.2 0zm-21.3-37.4l21.3 36.8 36.8-21.3-21.2-36.8zm58.1 15.7zm-21.4-37.1q0 0 0 0zm0 0z"></path><path class="l" d="m606.6 396.3q0 0-0.1 0-0.2-0.1-0.3-0.3l-19.7-42.1c-0.1-0.3 0-0.5 0.3-0.7l42.1-19.6q0.2-0.1 0.4 0 0.2 0 0.3 0.2l19.6 42.2c0.2 0.2 0 0.5-0.2 0.6l-42.1 19.7q-0.1 0-0.3 0zm-19.5-42.6l19.6 42 41.9-19.6-19.5-41.9zm61.5 22.5zm-19.6-42.2q0 0 0 0 0 0 0 0z"></path><path class="m" d="m602.8 397.8q-0.1 0-0.2 0-0.2-0.1-0.3-0.3l-17.3-47.5q-0.1-0.2 0-0.4 0.1-0.2 0.3-0.2l47.5-17.3q0.2-0.1 0.4 0 0.2 0.1 0.3 0.3l17.3 47.5c0.1 0.2-0.1 0.5-0.3 0.6l-47.5 17.3q-0.1 0-0.2 0zm-17.2-47.9l17.2 47.3 47.4-17.2-17.3-47.3zm64.6 30.2zm-17.3-47.5q0 0 0 0 0 0 0 0z"></path><path class="n" d="m598.5 399.1c-0.3 0-0.5-0.1-0.5-0.4l-14.3-53.1c0-0.2 0.1-0.5 0.4-0.6l53.1-14.2q0.2-0.1 0.4 0 0.2 0.1 0.2 0.3l14.2 53.1c0.1 0.3 0 0.6-0.3 0.7l-53.1 14.2q-0.1 0-0.1 0zm-14.2-53.5l14.2 52.9 52.9-14.2-14.1-52.9zm67.1 38.8z"></path><path class="o" d="m593.7 400.1c-0.3 0-0.5-0.2-0.6-0.5l-10.3-58.8c-0.1-0.3 0.1-0.6 0.4-0.6l58.8-10.4c0.3 0 0.6 0.2 0.6 0.4l10.4 58.9q0.1 0.2-0.1 0.4-0.1 0.2-0.3 0.2l-58.8 10.4q-0.1 0-0.1 0zm-10.3-59.3l10.3 58.7 58.7-10.4-10.3-58.7z"></path><path class="p" d="m588.4 400.7q-0.2 0-0.4-0.2-0.2-0.1-0.2-0.3l-5.6-64.7c-0.1-0.3 0.2-0.6 0.5-0.6l64.7-5.7q0.2 0 0.4 0.1 0.1 0.2 0.2 0.4l5.6 64.7c0 0.3-0.2 0.6-0.5 0.6l-64.7 5.7q0 0 0 0zm59-70.9l-64.7 5.7 5.7 64.6 64.7-5.7z"></path><path class="q" d="m653.2 400.8h-70.6c-0.3 0-0.6-0.3-0.6-0.6v-70.5c0-0.4 0.3-0.6 0.6-0.6h70.6c0.3 0 0.6 0.2 0.6 0.6v70.5c0 0.3-0.3 0.6-0.6 0.6zm-70.6-71.1v70.5h70.6v-70.5z"></path><path class="r" d="m652.8 407.1q-0.1 0-0.1 0l-76.4-6.7c-0.3 0-0.6-0.3-0.6-0.7l6.7-76.4c0-0.3 0.3-0.6 0.7-0.5l76.4 6.7c0.3 0 0.6 0.3 0.5 0.6q0 0 0 0l-6.6 76.4c-0.1 0.4-0.3 0.6-0.6 0.6zm-69.8-83.7l-6.7 76.4 76.5 6.7 6.6-76.4q0 0 0 0zm76.8 6.7z"></path><path class="s" d="m651.7 413.9q0 0-0.1 0l-82.1-14.5q-0.3-0.1-0.4-0.3-0.2-0.2-0.1-0.5l14.4-82.1c0.1-0.3 0.4-0.5 0.8-0.5l82.1 14.5q0.3 0 0.4 0.3 0.2 0.2 0.1 0.4l-14.5 82.1q0 0.3-0.2 0.4-0.2 0.2-0.4 0.2zm-67.6-97.3l-14.5 82.1 82.1 14.6 14.5-82.2q0 0 0 0z"></path><path class="t" d="m649.9 421.1q-0.1 0-0.1 0l-87.6-23.5q-0.2-0.1-0.4-0.3-0.1-0.2 0-0.5l23.4-87.5q0.1-0.3 0.3-0.4 0.3-0.2 0.5-0.1l87.6 23.5q0.2 0 0.4 0.3 0.1 0.2 0 0.5l-23.4 87.5q-0.1 0.3-0.3 0.4-0.2 0.1-0.4 0.1zm-64-111.7q-0.1 0-0.1 0l-23.5 87.6q0 0 0.1 0l87.5 23.5q0.1 0 0.1-0.1l23.4-87.5q0 0 0-0.1l-87.5-23.4q0 0 0 0z"></path><path class="u" d="m647.3 428.8q-0.1 0-0.2-0.1l-92.6-33.7c-0.3-0.1-0.5-0.5-0.4-0.9l33.7-92.5q0.1-0.3 0.4-0.4 0.2-0.1 0.5 0l92.6 33.6c0.3 0.2 0.5 0.6 0.4 0.9l-33.7 92.6c-0.1 0.3-0.4 0.5-0.7 0.5zm-58.8-127.1q-0.1 0-0.1 0.1l-33.7 92.5q0 0.1 0 0.2l92.6 33.6q0.1 0.1 0.1 0l33.7-92.6q0-0.1-0.1-0.1l-92.5-33.7q0 0 0 0zm92.9 33.9z"></path><path class="v" d="m643.8 436.8q-0.2 0-0.3-0.1l-97.1-45.2c-0.3-0.2-0.5-0.6-0.3-1l45.2-97c0.2-0.4 0.6-0.5 1-0.4l97 45.3q0.3 0.1 0.4 0.4 0.1 0.3 0 0.6l-45.3 97c-0.1 0.3-0.3 0.4-0.6 0.4zm-51.8-143.1q-0.1 0-0.1 0l-45.3 97.1q0 0.1 0.1 0.1l97 45.3q0.1 0 0.2-0.1l45.2-97c0.1-0.1 0-0.1 0-0.2l-97.1-45.2q0 0 0 0z"></path><path class="w" d="m639.2 445.2q-0.2 0-0.4-0.1l-100.8-58.2c-0.3-0.2-0.5-0.7-0.3-1.1l58.2-100.7q0.2-0.3 0.5-0.4 0.3-0.1 0.6 0.1l100.8 58.2q0.2 0.1 0.3 0.4 0.1 0.3-0.1 0.6l-58.1 100.8q-0.2 0.3-0.5 0.4-0.1 0-0.2 0zm-42.6-159.9q-0.1 0-0.1 0.1l-58.2 100.8c-0.1 0-0.1 0.1 0 0.2l100.8 58.2q0.1 0 0.1 0 0.1 0 0.1-0.1l58.2-100.8q0 0 0 0 0.1 0 0-0.1 0-0.1 0-0.1l-100.8-58.2q-0.1 0-0.1 0z"></path><path class="x" d="m633.4 453.8q-0.2 0-0.4-0.1l-103.7-72.6q-0.2-0.2-0.3-0.5 0-0.3 0.1-0.6l72.6-103.6q0.2-0.3 0.5-0.4 0.3 0 0.6 0.2l103.6 72.5q0.3 0.2 0.4 0.6 0 0.3-0.2 0.6l-72.5 103.6q-0.2 0.3-0.5 0.3-0.1 0-0.2 0zm-31-177.2q-0.1 0-0.1 0-0.1 0.1-0.1 0.1l-72.6 103.7q0 0 0 0.1 0 0.1 0.1 0.1l103.6 72.6q0.1 0 0.2 0 0 0 0.1-0.1l72.5-103.6q0.1-0.1 0.1-0.1 0-0.1-0.1-0.2l-103.6-72.5q-0.1-0.1-0.1-0.1z"></path><path class="y" d="m626.4 462.6q-0.3 0-0.6-0.2l-105.3-88.3c-0.4-0.3-0.4-0.9-0.1-1.2l88.4-105.4c0.3-0.3 0.8-0.4 1.2-0.1l105.3 88.4c0.4 0.3 0.4 0.8 0.1 1.2q0 0 0 0l-88.4 105.3q-0.2 0.3-0.6 0.3 0 0 0 0zm-17-194.8q-0.1 0-0.2 0.1l-88.4 105.4c0 0.1 0 0.2 0.1 0.3l105.3 88.4q0.1 0 0.2 0 0.1 0 0.2-0.1l88.3-105.3c0.1-0.1 0.1-0.2 0-0.3l-105.3-88.4q-0.1-0.1-0.2-0.1zm105.8 89z"></path><path class="z" d="m617.9 471.5q-0.4 0-0.6-0.2l-105.7-105.7c-0.4-0.4-0.4-1 0-1.3l105.7-105.7c0.3-0.3 0.9-0.3 1.2 0l105.7 105.7c0.4 0.3 0.4 0.9 0 1.3l-0.2-0.2 0.2 0.2-105.7 105.7q-0.2 0.2-0.6 0.2zm0-212.5q-0.1 0-0.2 0l-105.7 105.7q-0.1 0.1-0.1 0.2 0 0.2 0.1 0.2l105.7 105.7c0.1 0.1 0.3 0.1 0.4 0l105.7-105.7q0.1 0 0.1-0.2 0-0.1-0.1-0.2l-105.7-105.7q-0.1 0-0.2 0z"></path></svg>